<?xml version="1.0" encoding="UTF-8"?>
<svg id="Intermodalidad_buses" data-name="Intermodalidad buses" xmlns="http://www.w3.org/2000/svg" viewBox="0 0 584.73 582.48">
  <defs>
    <style>
      .cls-1, .cls-2 {
        stroke-width: 0px;
      }

      .cls-2 {
        fill: #fff;
      }
    </style>
  </defs>
  <g id="Fondo">
    <path class="cls-1" d="m292.48,582.28C131.97,582.28,1.37,451.72,1.37,291.24S131.97.2,292.48.2s290.89,130.55,290.89,291.04-130.5,291.04-290.89,291.04Z"/>
  </g>
  <g id="Bus">
    <path class="cls-2" d="m402.26,117.43h-219.73c-18.14,0-32.8,14.72-32.8,32.86v237.48c0,18.14,14.72,32.8,32.8,32.8h14.6v23.14c0,11.8,9.55,21.34,21.34,21.34s21.34-9.55,21.34-21.34v-23.14h106.21v21.46c0,11.8,9.55,21.34,21.34,21.34s21.34-9.55,21.34-21.34v-21.46h13.48c18.14,0,32.8-14.72,32.8-32.8v-237.48c.06-18.14-14.6-32.86-32.75-32.86Zm-171.14,269.44c-.51.79-1.24,1.46-2.02,2.02-14.1,9.77-29.32-.11-29.32-13.65,0-9.72,7.86-17.52,17.52-17.52,13.48,0,23.31,15,13.82,29.15Zm136.32,5.95c-9.66,0-17.52-7.86-17.52-17.58,0-13.48,15.17-23.31,29.32-13.65.79.56,1.46,1.24,2.02,2.02,9.49,14.21-.45,29.21-13.82,29.21h0Zm43.92-88.46c0,15.9-12.86,28.76-28.76,28.76h-180.41c-15.9,0-28.76-12.86-28.76-28.76v-122c0-15.9,12.86-28.76,28.76-28.76h180.41c15.9,0,28.76,12.86,28.76,28.76v122h0Z"/>
  </g>
</svg>