<?xml version="1.0" encoding="UTF-8"?>
<svg id="Capa_1" data-name="Capa 1" xmlns="http://www.w3.org/2000/svg" viewBox="0 0 583.15 582.02">
  <path d="m582.59,291.01c0,77.18-30.66,151.19-85.23,205.77-54.58,54.57-128.59,85.23-205.77,85.23s-151.19-30.66-205.77-85.23C31.25,442.2.59,368.19.59,291.01S31.25,139.81,85.83,85.24C140.4,30.67,214.42,0,291.59,0s151.19,30.66,205.77,85.23c54.57,54.57,85.23,128.59,85.23,205.77h0Zm-382.08-71.55h30.01c5.02,0,9.02-4.11,9.68-9.09,3.27-23.86,19.64-41.25,48.81-41.25,24.95,0,47.8,12.48,47.8,42.49,0,23.1-13.61,33.72-35.1,49.87-24.48,17.79-43.87,38.56-42.48,72.28l.11,7.89c.04,2.39,1.02,4.66,2.72,6.34,1.7,1.67,3.99,2.61,6.38,2.61h29.5c2.41,0,4.73-.96,6.43-2.66s2.66-4.02,2.66-6.43v-3.82c0-26.12,9.93-33.72,36.74-54.05,22.15-16.84,45.25-35.54,45.25-74.79,0-54.96-46.41-81.52-97.23-81.52-46.08,0-96.57,21.46-100.03,83.15-.05,1.17.14,2.35.56,3.45.42,1.1,1.06,2.1,1.88,2.94.82.84,1.81,1.51,2.89,1.95,1.09.45,2.25.67,3.43.65h0Zm84.57,234.36c22.19,0,37.43-14.33,37.43-33.72s-15.28-34.19-37.43-34.19-36.7,14.11-36.7,34.19,15.46,33.72,36.74,33.72h-.04Z" stroke-width="0"/>
</svg>