<?xml version="1.0" encoding="UTF-8"?>
<svg id="Capa_1" data-name="Capa 1" xmlns="http://www.w3.org/2000/svg" viewBox="0 0 583.15 582.48">
  <circle cx="291.59" cy="291.24" r="291" stroke-width="0"/>
  <path id="Reglamento" d="m291.59,225.7v-98.3h-97.65c-8.63,0-16.91,3.45-23.02,9.6-6.1,6.15-9.53,14.48-9.53,23.17v262.15c0,8.69,3.43,17.03,9.53,23.17,6.1,6.14,14.38,9.6,23.02,9.6h195.3c8.63,0,16.91-3.45,23.02-9.6,6.1-6.15,9.53-14.48,9.53-23.17v-163.84h-97.65c-8.63,0-16.91-3.45-23.02-9.6-6.11-6.15-9.53-14.48-9.53-23.17Zm-81.38,69.63c0-3.26,1.29-6.38,3.57-8.69,2.29-2.3,5.39-3.6,8.63-3.6s6.34,1.29,8.63,3.6c2.29,2.31,3.57,5.43,3.57,8.69s-1.29,6.39-3.57,8.69c-2.29,2.3-5.39,3.6-8.63,3.6s-6.34-1.3-8.63-3.6c-2.29-2.3-3.57-5.43-3.57-8.69Zm0,49.15c0-3.26,1.29-6.38,3.57-8.69,2.29-2.3,5.39-3.6,8.63-3.6s6.34,1.29,8.63,3.6c2.29,2.31,3.57,5.43,3.57,8.69s-1.29,6.39-3.57,8.69-5.39,3.6-8.63,3.6-6.34-1.3-8.63-3.6c-2.29-2.3-3.57-5.43-3.57-8.69Zm0,49.15c0-3.26,1.29-6.38,3.57-8.69,2.29-2.3,5.39-3.6,8.63-3.6s6.34,1.29,8.63,3.6c2.29,2.31,3.57,5.43,3.57,8.69s-1.29,6.39-3.57,8.69-5.39,3.6-8.63,3.6-6.34-1.3-8.63-3.6c-2.29-2.3-3.57-5.43-3.57-8.69Zm48.83-98.3c0-3.26,1.29-6.38,3.57-8.69,2.29-2.3,5.39-3.6,8.63-3.6h89.51c3.24,0,6.34,1.29,8.63,3.6,2.29,2.31,3.57,5.43,3.57,8.69s-1.29,6.39-3.57,8.69c-2.29,2.3-5.39,3.6-8.63,3.6h-89.51c-3.24,0-6.34-1.3-8.63-3.6-2.29-2.3-3.57-5.43-3.57-8.69Zm0,49.15c0-3.26,1.29-6.38,3.57-8.69,2.29-2.3,5.39-3.6,8.63-3.6h89.51c3.24,0,6.34,1.29,8.63,3.6,2.29,2.31,3.57,5.43,3.57,8.69s-1.29,6.39-3.57,8.69c-2.29,2.3-5.39,3.6-8.63,3.6h-89.51c-3.24,0-6.34-1.3-8.63-3.6-2.29-2.3-3.57-5.43-3.57-8.69Zm0,49.15c0-3.26,1.29-6.38,3.57-8.69,2.29-2.3,5.39-3.6,8.63-3.6h89.51c3.24,0,6.34,1.29,8.63,3.6,2.29,2.31,3.57,5.43,3.57,8.69s-1.29,6.39-3.57,8.69c-2.29,2.3-5.39,3.6-8.63,3.6h-89.51c-3.24,0-6.34-1.3-8.63-3.6-2.29-2.3-3.57-5.43-3.57-8.69Zm56.96-167.94v-90.11l97.65,98.31h-89.51c-2.16,0-4.23-.86-5.75-2.4-1.53-1.54-2.38-3.62-2.38-5.79Z" fill="#fff" stroke-width="0"/>
</svg>