<?xml version="1.0" encoding="UTF-8"?>
<svg id="Movimientos_bip_QR" data-name="Movimientos bip!QR" xmlns="http://www.w3.org/2000/svg" viewBox="0 0 622 622.08">
  <defs>
    <style>
      .cls-1, .cls-2 {
        stroke-width: 0px;
      }

      .cls-2 {
        fill: #fff;
      }
    </style>
  </defs>
  <g id="Fondo">
    <path class="cls-1" d="m311.11,602.08c-160.51,0-291.11-130.55-291.11-291.04S150.61,20,311.11,20s290.89,130.55,290.89,291.04-130.5,291.04-290.89,291.04Z"/>
  </g>
  <path id="Tren" class="cls-2" d="m417.25,379.04v-157.25c0-21.12-17.13-38.25-38.25-38.25h-46.75v-21.25h32.35c5.61,0,10.15-4.55,10.15-10.15v-.94c0-5.61-4.55-10.15-10.15-10.15h-107.19c-5.61,0-10.15,4.55-10.15,10.15v.94c0,5.61,4.55,10.15,10.15,10.15h32.35v21.25h-46.75c-21.12,0-38.25,17.13-38.25,38.25v157.25c0,21.12,17.13,38.25,38.25,38.25h4.25l-14.87,21.25h-17.48c-5.6,0-10.15,4.54-10.15,10.15v.96c0,5.6,4.54,10.15,10.15,10.15h4.73l-3.7,5.29c-4.71,6.72.1,15.96,8.31,15.96h17.27c3.56,0,6.87-1.87,8.7-4.93l9.79-16.32h104.13l9.79,16.32c1.83,3.06,5.14,4.93,8.7,4.93h17.27c8.21,0,13.02-9.24,8.31-15.96l-3.7-5.29h2.6c5.6,0,10.15-4.54,10.15-10.15v-.96c0-5.6-4.54-10.15-10.15-10.15h-17.48l-14.87-21.25h4.25c21.25,0,38.25-17,38.25-38.25h0Zm-191.25-155.12c0-10.62,8.5-19.13,19.13-19.13h129.62c12.75,0,21.25,8.5,21.25,19.13v44.62c0,12.75-8.5,21.25-19.12,21.25h-131.75c-10.56,0-19.13-8.56-19.13-19.13v-46.75h0Zm0,150.87c0-12.75,8.5-21.25,21.25-21.25,11.7,0,21.25,9.55,21.25,21.25,0,12.75-8.5,21.25-21.25,21.25-11.7,0-21.25-9.55-21.25-21.25Zm125.37,63.75h-80.75l12.75-21.25h55.25l12.75,21.25Zm2.13-63.75c0-12.75,8.5-21.25,21.25-21.25,11.7,0,21.25,9.55,21.25,21.25,0,12.75-8.5,21.25-21.25,21.25-11.7,0-21.25-9.55-21.25-21.25Z"/>
</svg>