<?xml version="1.0" encoding="UTF-8"?>
<svg id="Capa_1" data-name="Capa 1" xmlns="http://www.w3.org/2000/svg" viewBox="0 0 580 580">
  <circle cx="290" cy="290" r="290" stroke-width="0"/>
  <path d="m182.46,149.7c25.98-22.62,61.91-33.93,107.78-33.93,46.52,0,82.54,11.23,108.03,33.68,25.51,22.45,38.26,57.09,38.26,103.93v213.66s-75.55,0-75.55,0v-213.66c0-9.3-.79-18.44-2.4-27.42-1.61-8.98-4.97-16.92-10.1-23.81-5.14-6.9-12.27-12.52-21.41-16.85-9.15-4.33-21.41-6.49-36.82-6.49-26.94,0-45.55,6.02-55.82,18.04-10.25,12.03-15.39,30.88-15.39,56.54v213.66s-75.55,0-75.55,0v-213.66c0-46.5,13.01-81.08,38.99-103.68Z" fill="#fff" stroke-width="0"/>
</svg>