<?xml version="1.0" encoding="UTF-8"?>
<svg id="Menú" xmlns="http://www.w3.org/2000/svg" viewBox="0 0 584.73 582.48">
  <defs>
    <style>
      .cls-1, .cls-2 {
        stroke-width: 0px;
      }

      .cls-2 {
        fill: #fff;
      }
    </style>
  </defs>
  <g id="Fondo">
    <path class="cls-1" d="m292.48,582.28C131.97,582.28,1.37,451.72,1.37,291.24S131.97.2,292.48.2s290.89,130.55,290.89,291.04-130.5,291.04-290.89,291.04Z"/>
  </g>
  <path id="Mis_Favoritos" data-name="Mis Favoritos" class="cls-2" d="m292.36,413.29l91.77,55.5c16.8,10.17,37.37-4.86,32.95-23.88l-24.32-104.37,81.15-70.32c14.82-12.82,6.85-37.15-12.6-38.7l-106.8-9.07-41.79-98.62c-7.52-17.91-33.17-17.91-40.69,0l-41.79,98.4-106.8,9.07c-19.46,1.55-27.42,25.87-12.6,38.7l81.15,70.32-24.32,104.37c-4.42,19.02,16.14,34.05,32.95,23.88l91.77-55.28h0Z"/>
</svg>