<?xml version="1.0" encoding="UTF-8"?>
<svg id="Menú" xmlns="http://www.w3.org/2000/svg" viewBox="0 0 584.73 582.48">
  <defs>
    <style>
      .cls-1, .cls-2 {
        stroke-width: 0px;
      }

      .cls-2 {
        fill: #fff;
      }
    </style>
  </defs>
  <g id="Fondo">
    <path class="cls-1" d="m292.48,582.28C131.97,582.28,1.37,451.72,1.37,291.24S131.97.2,292.48.2s290.89,130.55,290.89,291.04-130.5,291.04-290.89,291.04Z"/>
  </g>
  <path id="Mi_viaje" data-name="Mi viaje" class="cls-2" d="m362.2,186.49c0-10.72,3.29-21.17,9.42-29.96,6.13-8.79,14.81-15.49,24.86-19.19,10.06-3.7,21-4.23,31.37-1.52,10.37,2.71,19.65,8.54,26.6,16.7,6.95,8.16,11.23,18.25,12.27,28.91,1.03,10.67-1.23,21.39-6.48,30.73-5.25,9.34-13.24,16.85-22.89,21.5-9.65,4.66-20.5,6.24-31.08,4.54l-35.59,58.63c7.5,11.05,10.5,24.55,8.38,37.74-2.12,13.19-9.2,25.07-19.8,33.21-10.59,8.14-23.89,11.93-37.19,10.58-13.29-1.34-25.57-7.71-34.32-17.81l-65.32,32.65c.67,12.72-3.31,25.25-11.2,35.24-7.89,9.99-19.16,16.77-31.69,19.06-12.53,2.29-25.46-.06-36.38-6.62-10.92-6.56-19.07-16.86-22.94-29-3.87-12.13-3.18-25.26,1.93-36.93,5.11-11.67,14.29-21.07,25.84-26.45,11.54-5.38,24.65-6.38,36.87-2.8,12.22,3.58,22.72,11.49,29.53,22.25l61.65-30.82c-2.07-9.65-1.38-19.69,2.01-28.96,3.39-9.27,9.32-17.4,17.12-23.44,7.8-6.05,17.15-9.76,26.97-10.73,9.82-.96,19.72.87,28.54,5.28l31.4-51.74c-6.21-4.9-11.22-11.14-14.66-18.26-3.45-7.12-5.23-14.92-5.23-22.83Z"/>
</svg>