<?xml version="1.0" encoding="UTF-8"?>
<svg id="Menú" xmlns="http://www.w3.org/2000/svg" viewBox="0 0 584.73 582.48">
  <defs>
    <style>
      .cls-1, .cls-2 {
        stroke-width: 0px;
      }

      .cls-2 {
        fill: #fff;
      }
    </style>
  </defs>
  <g id="Fondo">
    <path class="cls-1" d="m292.48,582.28C131.97,582.28,1.37,451.72,1.37,291.24S131.97.2,292.48.2s290.89,130.55,290.89,291.04-130.5,291.04-290.89,291.04Z"/>
  </g>
  <g id="Información_de_estaciones" data-name="Información de estaciones">
    <path class="cls-2" d="m292.37,375.4l16.83-33.66v-86.54c28.96-7.52,50.49-33.66,50.49-64.93,0-37.13-30.19-67.32-67.32-67.32s-67.32,30.19-67.32,67.32c0,31.27,21.53,57.41,50.49,64.93v86.54l16.83,33.66Z"/>
    <path class="cls-2" d="m359.69,281.37c-2.84,8.31-1.1,17.85,10.3,22.85,35.09,12.82,57.02,33.32,57.02,54.34,0,31.84-55.29,67.32-134.64,67.32s-134.64-35.48-134.64-67.32c0-21.02,21.93-41.53,57.04-54.36,8.25-3.01,12.81-11.84,10.47-20.3h0c-2.62-9.48-12.78-14.7-22.02-11.32-49.27,18.05-79.15,50.01-79.15,85.97,0,56.62,73.94,100.98,168.3,100.98s168.3-44.36,168.3-100.98c0-35.87-29.73-67.76-78.77-85.83-5.65-2.08-18.85-1.18-22.21,8.64Z"/>
  </g>
</svg>