<?xml version="1.0" encoding="UTF-8"?>
<svg id="Menú" xmlns="http://www.w3.org/2000/svg" viewBox="0 0 584.73 582.48">
  <defs>
    <style>
      .cls-1 {
        fill: #fff;
        opacity: .97;
      }

      .cls-1, .cls-2 {
        stroke-width: 0px;
      }
    </style>
  </defs>
  <g id="Fondo">
    <path class="cls-2" d="m292.48,582.28C131.97,582.28,1.37,451.72,1.37,291.24S131.97.2,292.48.2s290.89,130.55,290.89,291.04-130.5,291.04-290.89,291.04Z"/>
  </g>
  <path id="Notificacion" class="cls-1" d="m292.39,481.87c21.51,0,39.1-17.6,39.1-39.1h-78.21c0,10.37,4.12,20.32,11.45,27.65,7.33,7.33,17.28,11.45,27.65,11.45Zm117.31-117.31v-97.76c0-60.02-32.06-110.27-87.98-123.57v-13.3c0-16.23-13.1-29.33-29.33-29.33s-29.33,13.1-29.33,29.33v13.3c-56.11,13.3-87.98,63.35-87.98,123.57v97.76l-25.22,25.22c-12.32,12.32-3.71,33.43,13.69,33.43h257.5c17.4,0,26.2-21.12,13.88-33.43l-25.22-25.22Z"/>
</svg>