<?xml version="1.0" encoding="UTF-8"?>
<svg id="Menú" xmlns="http://www.w3.org/2000/svg" viewBox="0 0 584.73 582.48">
  <defs>
    <style>
      .cls-1, .cls-2 {
        stroke-width: 0px;
      }

      .cls-2 {
        fill: #fff;
      }
    </style>
  </defs>
  <g id="Fondo">
    <path class="cls-1" d="m292.48,582.28C131.97,582.28,1.37,451.72,1.37,291.24S131.97.2,292.48.2s290.89,130.55,290.89,291.04-130.5,291.04-290.89,291.04Z"/>
  </g>
  <path id="Home" class="cls-2" d="m464.08,296.95l-158.64-176.41c-6.68-7.44-19.51-7.44-26.19,0l-158.64,176.41c-2.28,2.53-3.78,5.68-4.31,9.05-.53,3.37-.07,6.82,1.32,9.94,2.82,6.37,9.13,10.46,16.09,10.46h35.25v123.49c0,4.68,1.86,9.17,5.16,12.48,3.31,3.31,7.79,5.17,12.46,5.17h52.88c4.67,0,9.16-1.86,12.46-5.17,3.31-3.31,5.16-7.8,5.16-12.48v-70.57h70.51v70.57c0,4.68,1.86,9.17,5.16,12.48,3.3,3.31,7.79,5.17,12.46,5.17h52.88c4.67,0,9.16-1.86,12.46-5.17s5.16-7.8,5.16-12.48v-123.49h35.25c3.41.01,6.76-.97,9.63-2.82,2.87-1.85,5.13-4.51,6.52-7.63,1.39-3.12,1.84-6.58,1.3-9.95-.54-3.37-2.05-6.52-4.35-9.05h0Z"/>
</svg>