<?xml version="1.0" encoding="UTF-8"?>
<svg id="Menú" xmlns="http://www.w3.org/2000/svg" viewBox="0 0 584.73 582.48">
  <defs>
    <style>
      .cls-1, .cls-2 {
        stroke-width: 0px;
      }

      .cls-2 {
        fill: #fff;
      }
    </style>
  </defs>
  <g id="Fondo">
    <path class="cls-1" d="m292.48,582.28C131.97,582.28,1.37,451.72,1.37,291.24S131.97.2,292.48.2s290.89,130.55,290.89,291.04-130.5,291.04-290.89,291.04Z"/>
  </g>
  <path class="cls-2" d="m467.16,392.54c0,4.47-.83,10.3-2.48,17.5-1.66,7.2-3.39,12.87-5.21,17.01-3.48,8.28-13.57,17.05-30.29,26.32-15.56,8.44-30.95,12.66-46.18,12.66-4.47,0-8.86-.29-13.16-.87-4.3-.58-9.06-1.61-14.28-3.1-5.21-1.49-9.1-2.69-11.67-3.6-2.57-.91-7.16-2.61-13.78-5.09-6.62-2.48-10.68-3.97-12.17-4.47-16.22-5.79-30.71-12.66-43.45-20.61-21.02-13.08-42.87-30.95-65.55-53.63-22.68-22.68-40.55-44.53-53.63-65.55-7.95-12.75-14.81-27.23-20.61-43.45-.5-1.49-1.99-5.54-4.47-12.17-2.48-6.62-4.18-11.21-5.09-13.78-.91-2.57-2.11-6.46-3.6-11.67-1.49-5.21-2.52-9.97-3.1-14.28-.58-4.3-.87-8.69-.87-13.16,0-15.23,4.22-30.62,12.66-46.18,9.27-16.72,18.04-26.82,26.32-30.29,4.14-1.82,9.81-3.56,17.01-5.21,7.2-1.66,13.04-2.48,17.5-2.48,2.32,0,4.06.25,5.21.74,2.98.99,7.37,7.28,13.16,18.87,1.82,3.14,4.3,7.61,7.45,13.41,3.14,5.79,6.04,11.05,8.69,15.77,2.65,4.72,5.21,9.15,7.7,13.28.5.66,1.94,2.73,4.35,6.21,2.4,3.48,4.18,6.41,5.34,8.81,1.16,2.4,1.74,4.76,1.74,7.08,0,3.31-2.36,7.45-7.08,12.41-4.72,4.97-9.85,9.52-15.39,13.66-5.55,4.14-10.68,8.52-15.39,13.16-4.72,4.63-7.08,8.44-7.08,11.42,0,1.49.41,3.35,1.24,5.59.83,2.24,1.53,3.93,2.11,5.09.58,1.16,1.74,3.14,3.48,5.96,1.74,2.81,2.69,4.39,2.86,4.72,12.58,22.68,26.98,42.13,43.2,58.35,16.22,16.22,35.67,30.62,58.35,43.2.33.17,1.9,1.12,4.72,2.86,2.81,1.74,4.8,2.9,5.96,3.48,1.16.58,2.86,1.28,5.09,2.11,2.24.83,4.1,1.24,5.59,1.24,2.98,0,6.79-2.36,11.42-7.08,4.63-4.72,9.02-9.85,13.16-15.39,4.14-5.54,8.69-10.68,13.66-15.39,4.97-4.72,9.1-7.08,12.41-7.08,2.32,0,4.68.58,7.08,1.74,2.4,1.16,5.34,2.94,8.82,5.34,3.48,2.4,5.54,3.85,6.21,4.34,4.14,2.48,8.57,5.05,13.28,7.7,4.72,2.65,9.97,5.54,15.77,8.69,5.79,3.14,10.26,5.63,13.41,7.45,11.59,5.79,17.88,10.18,18.87,13.16.5,1.16.75,2.9.75,5.21Z"/>
</svg>