<?xml version="1.0" encoding="UTF-8"?>
<svg id="Menú" xmlns="http://www.w3.org/2000/svg" viewBox="0 0 584.73 582.48">
  <defs>
    <style>
      .cls-1, .cls-2 {
        stroke-width: 0px;
      }

      .cls-2 {
        fill: #fff;
      }
    </style>
  </defs>
  <g id="Fondo">
    <path class="cls-1" d="m292.48,582.28C131.97,582.28,1.37,451.72,1.37,291.24S131.97.2,292.48.2s290.89,130.55,290.89,291.04-130.5,291.04-290.89,291.04Z"/>
  </g>
  <g id="Cultura_y_Comunidad" data-name="Cultura y Comunidad">
    <g>
      <path class="cls-2" d="m193.24,425.43c-24.59,9.5-42.53,0-42.53,0,7.97,31.9,31.9,34.61,51.17,35.97,19.27,1.36,26.58-11.54,25.92-21.04-.66-9.5-9.97-24.43-34.56-14.93Z"/>
      <path class="cls-2" d="m257.7,422.39c-13.29,5.75-23.26,8.46-23.26,8.46,0,0,7.98,9.5,3.99,20.36,13.29,3.39,25.25,4.75,25.25,4.75,0,0,13.29-23.73-5.98-33.57Z"/>
      <path class="cls-2" d="m271.67,422.39s13.29,22.04,0,33.57c45.19-6.79,149.9-17.64,157.35-23.75,8.12-9.82-157.35-9.82-157.35-9.82Z"/>
    </g>
    <path class="cls-2" d="m292.37,120.98c-94.1,0-170.39,61.22-170.39,136.75s76.28,136.75,170.39,136.75,170.39-61.22,170.39-136.75-76.28-136.75-170.39-136.75Zm-41.69,144.3c-8.82,3.05-17.7,6-26.62,8.82,3.99-.92,7.99-1.83,11.98-2.75,4.95-1.13,8.36,6.07,3.56,8.61-4.26,2.28-8.57,4.45-12.9,6.52,5.04.07,6.5,7.09,1.35,9.18-5.37,2.17-10.71,4.37-16.02,6.65,2.09-.38,4.17-.81,6.26-1.34,5.78-1.32,8.23,7.63,2.46,9.09-3.18.73-6.22,1.7-9.12,2.9,3.4.74,6.02,4.75,2.62,7.67-2.57,2.21-5.15,4.43-7.72,6.64.72,1.07,1.42,2.13,2.14,3.2,3.36,5.01-4.65,9.73-7.97,4.75-1.44-2.13-2.86-4.28-4.3-6.43-.83-1.23-.81-3.17-.13-4.58-1.33-.15-2.7-.34-4.08-.66-3.27-.73-4.6-5.6-2.03-7.88.98-.87,1.98-1.7,2.97-2.49-1.64-.06-3.29-.11-4.95-.25-4.21-.32-6.74-6.52-2.33-8.79,1.29-.66,2.6-1.26,3.91-1.9-1.37.23-2.73.47-4.1.7-5.78,1-8.2-7.2-2.46-9.09,2.18-.72,4.34-1.45,6.48-2.21-5.17,1.19-10.34,2.38-15.51,3.56-3.71.87-7.51-3.28-5.21-6.92,2.66-4.2,6.11-7.13,10.01-9.33-2.51.43-5,.89-7.51,1.3-5.83.98-8.1-7.01-2.46-9.09,1.18-.43,2.34-.87,3.51-1.3-3.56.51-7.14.98-10.73,1.39-5.7.66-5.48-7.43-1.22-9.26,4.32-1.85,8.66-3.71,12.98-5.56-3.14.75-6.28,1.55-9.41,2.28-4.89,1.15-8.49-6.31-3.56-8.61,6.72-3.13,13.4-6.31,20.07-9.54-2.79.45-5.59.87-8.42,1.21-4.63.57-6.15-6.69-2.33-8.78,3.51-1.92,7.07-3.79,10.61-5.62h-1.5c-3.75-.02-6.44-5.33-3.27-8.05,2.7-2.3,5.5-4.39,8.38-6.32-1.31-1.72-1.5-4.39.18-6.35,1.86-2.19,3.84-4.22,5.87-6.16-4.3-.66-3.91-6.6-1.09-8.61,4.17-2.98,8.05-5.9,7.46-11.65-.63-6.03,8.6-5.98,9.23,0,.39,3.73-.41,6.9-1.94,9.65.2-.09.39-.17.59-.26,1.14-.68,2.29-1.32,3.45-1.96,5.26-2.85,9.62,4.84,4.65,8.14-1.13.75-2.25,1.38-3.4,1.96-1.37.83-2.7,1.72-4.01,2.62,2.42-.64,4.82-1.3,7.22-1.94,4.91-1.32,8.45,6.47,3.56,8.62-7.35,3.22-14.69,6.48-21.6,10.52,3.03-.25,6.04-.62,8.99-1.24,6.22-2.87,12.5-5.64,18.85-8.26,5.28-2.17,7.37,5.75,3.56,8.62-1.99,1.51-4.06,2.77-6.18,3.88,1.9-.74,3.8-1.47,5.69-2.24,4.91-2.02,8.14,6.24,3.56,8.62-7.37,3.83-14.79,7.6-22.21,11.31,9.1-2.47,18.18-4.98,27.23-7.62,5.91-1.72,7.75,6.82,2.45,9.09-11.85,5.09-23.72,10.16-35.59,15.25,14.58-3.45,28.96-7.84,43.07-13.16,5.67-2.13,7.81,6.82,2.46,9.09-9.05,3.81-18.15,7.5-27.27,11.16,9.8-1.9,19.59-3.86,29.37-5.92,5.83-1.23,8.09,7.14,2.38,9.1Zm180.66,0c-8.82,3.05-17.7,6-26.62,8.82,3.99-.92,7.99-1.83,11.98-2.75,4.95-1.13,8.36,6.07,3.56,8.61-4.26,2.28-8.57,4.45-12.9,6.52,5.04.07,6.5,7.09,1.35,9.18-5.37,2.17-10.71,4.37-16.02,6.65,2.09-.38,4.17-.81,6.26-1.34,5.78-1.32,8.23,7.63,2.46,9.09-3.17.73-6.22,1.7-9.12,2.9,3.4.74,6.02,4.75,2.62,7.67-2.56,2.21-5.15,4.43-7.72,6.64.72,1.07,1.42,2.13,2.14,3.2,3.36,5.01-4.65,9.73-7.98,4.75-1.44-2.13-2.86-4.28-4.3-6.43-.83-1.23-.81-3.17-.13-4.58-1.33-.15-2.7-.34-4.08-.66-3.27-.73-4.6-5.6-2.03-7.88.98-.87,1.98-1.7,2.97-2.49-1.64-.06-3.29-.11-4.95-.25-4.21-.32-6.74-6.52-2.33-8.79,1.29-.66,2.6-1.26,3.91-1.9-1.37.23-2.73.47-4.1.7-5.78,1-8.2-7.2-2.45-9.09,2.18-.72,4.34-1.45,6.48-2.21-5.17,1.19-10.34,2.38-15.51,3.56-3.71.87-7.51-3.28-5.21-6.92,2.66-4.2,6.11-7.13,10.01-9.33-2.51.43-5,.89-7.51,1.3-5.83.98-8.1-7.01-2.45-9.09,1.18-.43,2.34-.87,3.51-1.3-3.56.51-7.14.98-10.73,1.39-2.5.29-3.86-1.1-4.24-2.91-.52.72-1.21,1.31-2.08,1.65-4.41,1.75-8.82,3.53-13.25,5.26,1.4-.15,2.79-.34,4.19-.49,5.3-.57,6.09,7.92,1.22,9.26-7.77,2.13-15.51,4.41-23.19,6.88,4.87-.77,9.78-1.43,14.73-1.96,4.58-.49,6.26,6.75,2.33,8.78-6.68,3.49-14.84,4.51-22.28,6.73,4.86.13,9.71.55,14.6,1.23,3.88.55,4.52,7.03,1.11,8.61-3.3,1.55-6.59,3.07-9.89,4.62,3.65,1.41,3.86,7.84-.52,8.97-1.22,2.04-2.46,4.09-3.67,6.13,1.49,5.88-7.4,8.37-8.9,2.51-.77-3.04-.68-5.97.15-8.58-2.1-.11-4.21-.26-6.33-.49-4.01-.43-6.94-6.64-2.33-8.79,3.49-1.62,7-3.26,10.49-4.88-4.28.07-8.55.38-12.85.91-4.39.53-5.48-5.32-3.27-8.05.17-.21.35-.38.52-.57-.68.19-1.35.36-2.03.55-4.12,1.15-6.89-3.32-5.21-6.92,1.64-3.54,4.06-6.11,6.9-8.14-1.88.38-3.77.7-5.63,1.09-5.78,1.21-8.23-7.45-2.46-9.09,8.75-2.49,17.39-5.33,25.96-8.39-10.47,1.85-20.88,4.07-31.24,6.69-5.78,1.39-8.23-7.62-2.45-9.09,14.84-3.58,29.35-8.14,43.53-13.69-16.25,4.05-32.07,12.71-48.7,13.91-4.39.32-6.53-6.92-2.33-8.79,3.99-1.77,7.96-3.52,11.94-5.3-3.36.4-6.7.77-10.06,1.13-5.65.6-5.58-7.48-1.22-9.26,4.85-1.98,9.71-3.96,14.56-5.94-1.59.36-3.16.7-4.73,1.04-5.81,1.26-8.1-7.2-2.46-9.09,2.4-.81,4.76-1.68,7.11-2.58-3.29-1.24-4.39-5.94-.85-8.41,4.82-3.36,9.62-6.69,14.44-10.05-1-1.81-.98-4.41.35-6.15,2.05-2.68,4.08-5.33,6.11-8.01-.87-.09-1.73-.17-2.64-.3-2.88-.43-4.25-4.6-2.75-6.92,3.16-4.84,5.22-9.75,6.5-15.44,1.31-5.92,10.21-3.39,8.9,2.51-.87,3.9-2.07,7.48-3.67,10.93.7-.09,1.4-.23,2.1-.4,4.76-.9,7.31,4.17,4.49,7.88-.83,1.09-1.68,2.21-2.51,3.3,1.11-.41,2.23-.81,3.36-1.23,5.24-1.89,7.62,5.79,3.56,8.61-4.19,2.92-8.4,5.84-12.59,8.77,6.26-1.9,12.42-4.07,18.53-6.52,4.97-2,8.03,6.13,3.56,8.61-3.56,2-7.14,3.98-10.74,5.92,4.87-1.07,9.77-2.13,14.66-3.2,5.93-1.3,7.88,6.88,2.45,9.09-9.27,3.79-18.55,7.58-27.84,11.37,3.42-.85,6.81-1.81,10.15-2.9,6.63-2.94,13.24-5.88,19.86-8.82,5.3-2.36,9.95,5.05,4.65,8.14-4.97,2.9-10.1,5.28-15.32,7.31,5.63-.73,11.41-.75,17.43.38,3.82.72,4.6,6.94,1.11,8.61-3.21,1.55-6.42,3.02-9.67,4.47,3.6-.38,7.18-.73,10.78-1.04,2.47-.21,3.86,1.21,4.27,3.01.52-.76,1.21-1.39,2.08-1.76,4.32-1.85,8.66-3.71,12.98-5.56-3.14.75-6.28,1.55-9.41,2.28-4.89,1.15-8.49-6.31-3.56-8.61,6.72-3.13,13.4-6.31,20.07-9.54-2.79.45-5.59.87-8.42,1.21-4.63.57-6.15-6.69-2.33-8.78,3.51-1.92,7.07-3.79,10.61-5.62h-1.49c-3.75-.02-6.44-5.33-3.27-8.05,2.7-2.3,5.5-4.39,8.38-6.32-1.31-1.72-1.49-4.39.19-6.35,1.86-2.19,3.84-4.22,5.87-6.16-4.3-.66-3.91-6.6-1.09-8.61,4.17-2.98,8.05-5.9,7.46-11.65-.63-6.03,8.6-5.98,9.23,0,.39,3.73-.41,6.9-1.94,9.65.2-.09.39-.17.59-.26,1.14-.68,2.29-1.32,3.45-1.96,5.26-2.85,9.62,4.84,4.65,8.14-1.13.75-2.25,1.38-3.4,1.96-1.37.83-2.7,1.72-4.01,2.62,2.42-.64,4.82-1.3,7.22-1.94,4.91-1.32,8.45,6.47,3.56,8.62-7.35,3.22-14.69,6.48-21.6,10.52,3.03-.25,6.04-.62,8.99-1.24,6.22-2.87,12.5-5.64,18.85-8.26,5.28-2.17,7.37,5.75,3.56,8.62-1.99,1.51-4.06,2.77-6.18,3.88,1.9-.74,3.8-1.47,5.69-2.24,4.91-2.02,8.14,6.24,3.56,8.62-7.37,3.83-14.79,7.6-22.21,11.31,9.1-2.47,18.18-4.98,27.23-7.62,5.91-1.72,7.75,6.82,2.45,9.09-11.85,5.09-23.72,10.16-35.59,15.25,14.58-3.45,28.96-7.84,43.07-13.16,5.67-2.13,7.81,6.82,2.46,9.09-9.05,3.81-18.15,7.5-27.27,11.16,9.8-1.9,19.59-3.86,29.37-5.92,5.83-1.23,8.09,7.14,2.38,9.1Z"/>
  </g>
</svg>