<?xml version="1.0" encoding="UTF-8"?>
<svg id="Capa_1" data-name="Capa 1" xmlns="http://www.w3.org/2000/svg" viewBox="0 0 583.15 582.73">
  <defs>
    <style>
      .cls-1, .cls-2 {
        stroke-width: 0px;
      }

      .cls-2 {
        fill: #fff;
      }
    </style>
  </defs>
  <circle class="cls-1" cx="291.59" cy="291.24" r="290"/>
  <path class="cls-2" d="m305.5,136.71c-1.85-3.75-4.72-6.91-8.27-9.12-3.55-2.21-7.66-3.38-11.84-3.38s-8.29,1.17-11.84,3.38c-3.56,2.21-6.42,5.37-8.28,9.12l-37.92,76.83-84.79,12.34c-4.14.6-8.04,2.34-11.24,5.04-3.2,2.7-5.59,6.24-6.89,10.22-1.3,3.98-1.45,8.25-.45,12.31,1,4.07,3.12,7.77,6.12,10.69l61.38,59.81-14.48,84.44c-.71,4.13-.25,8.37,1.33,12.25,1.58,3.88,4.21,7.24,7.6,9.7,3.39,2.46,7.4,3.93,11.57,4.23,4.18.3,8.35-.57,12.06-2.52l22.69-11.94c-4.5-7.01-8.34-14.41-11.49-22.11l-18.32,9.65,13.84-80.77c.62-3.58.36-7.27-.76-10.73-1.12-3.46-3.07-6.6-5.67-9.14l-58.68-57.19,81.1-11.79c3.6-.52,7.01-1.92,9.95-4.05,2.94-2.14,5.32-4.96,6.93-8.21l36.27-73.47,29.89,60.53c8.51-2.06,17.2-3.29,25.95-3.69l-35.72-72.45v.02Zm-94.93,209.38v-2.57,5.11-2.54Zm249.29,0c0,14.73-2.9,29.32-8.54,42.93-5.64,13.61-13.9,25.98-24.32,36.39-10.42,10.42-22.78,18.68-36.39,24.32-13.61,5.64-28.2,8.54-42.93,8.54s-29.32-2.9-42.93-8.54c-13.61-5.64-25.98-13.9-36.39-24.32-10.42-10.42-18.68-22.78-24.32-36.39-5.64-13.61-8.54-28.2-8.54-42.93,0-29.75,11.82-58.29,32.86-79.32,21.04-21.04,49.57-32.86,79.32-32.86s58.29,11.82,79.33,32.86c21.04,21.04,32.86,49.57,32.86,79.32h0Zm-99.72-49.86c0-3.31-1.31-6.48-3.65-8.81-2.34-2.34-5.51-3.65-8.81-3.65s-6.48,1.31-8.81,3.65c-2.34,2.34-3.65,5.51-3.65,8.81v37.39h-37.39c-3.31,0-6.48,1.31-8.81,3.65-2.34,2.34-3.65,5.51-3.65,8.81s1.31,6.48,3.65,8.82c2.34,2.34,5.51,3.65,8.81,3.65h37.39v37.39c0,3.31,1.31,6.48,3.65,8.82,2.34,2.34,5.51,3.65,8.81,3.65s6.48-1.31,8.81-3.65c2.34-2.34,3.65-5.51,3.65-8.82v-37.39h37.39c3.31,0,6.48-1.31,8.81-3.65,2.34-2.34,3.65-5.51,3.65-8.82s-1.31-6.48-3.65-8.81c-2.34-2.34-5.51-3.65-8.81-3.65h-37.39v-37.39Z"/>
</svg>