<?xml version="1.0" encoding="UTF-8"?>
<svg id="Capa_1" data-name="Capa 1" xmlns="http://www.w3.org/2000/svg" viewBox="0 0 583.15 582.73">
  <defs>
    <style>
      .cls-1, .cls-2 {
        stroke-width: 0px;
      }

      .cls-2 {
        fill: #fff;
      }
    </style>
  </defs>
  <circle class="cls-1" cx="291.59" cy="291.24" r="290"/>
  <g id="BIP">
    <path class="cls-2" d="m251.27,266.21c5.37,0,9.73-4.14,9.73-9.25s-4.36-9.25-9.73-9.25-9.73,4.14-9.73,9.25,4.36,9.25,9.73,9.25Z"/>
    <path class="cls-2" d="m327.56,333.84c7.7,0,13.94-5.93,13.94-13.25s-6.24-13.25-13.94-13.25-13.94,5.93-13.94,13.25,6.24,13.25,13.94,13.25Z"/>
    <path class="cls-2" d="m219.62,270.2c-6.49,0-11.45,5.08-11.45,5.08v-25.39s-17.54,0-17.54,0v70.72s11.45,0,11.45,0l3.8-3.61s5.34,5.26,11.83,5.26c11.45,0,19.07-13.42,19.07-29.93,0-16.5-10.68-22.12-17.17-22.12Zm-1.9,29.56c0,3.08-1.72,7.01-4.77,7.58-3.05.58-4.77-2.87-4.77-2.87v-15.6s1.52-3.81,4.57-3.63,4.96,4.9,4.96,4.9v9.61h0Z"/>
    <path class="cls-2" d="m313.07,300.24c2.2-16.37-7.63-29.93-19.07-29.93-6.49,0-10.87,5.5-10.87,5.5l-2.29-3.86h-13.92s0,70.72,0,70.72h17.54s0-22.79,0-22.79c0,0,4.96,2.48,11.44,2.48,6.49,0,15.45-9.37,17.17-22.12h0Zm-19.07,2.18s-1.91,4.71-4.96,4.9c-3.05.19-4.57-3.63-4.57-3.63v-15.6s1.72-3.45,4.77-2.87c3.05.58,4.77,4.5,4.77,7.58v9.61s0,0,0,0Z"/>
    <path class="cls-2" d="m259.85,271.65h-18.31s0,48.94,0,48.94h18.31s0-48.94,0-48.94Z"/>
    <path class="cls-2" d="m326.23,297.76l23.65-58.4,24.41,10.52-28.8,55.32-19.26-7.44Z"/>
    <path class="cls-2" d="m431.69,331.2v45.92s45.92,0,45.92,0v30.61s-45.92,0-45.92,0v45.92s-30.61,0-30.61,0v-45.92s-45.92,0-45.92,0v-30.61s45.92,0,45.92,0v-45.92s30.61,0,30.61,0Zm-107.14,45.92h-168.36s0-183.66,0-183.66h244.88s0,107.14,0,107.14h30.61s0-107.14,0-107.14c0-16.99-13.62-30.61-30.61-30.61h-244.88c-8.12,0-15.9,3.23-21.64,8.97-5.74,5.74-8.97,13.53-8.97,21.64v183.66c0,8.12,3.23,15.9,8.97,21.65,5.74,5.74,13.53,8.97,21.64,8.97h168.36s0-30.61,0-30.61Z"/>
  </g>
</svg>