<?xml version="1.0" encoding="UTF-8"?>
<svg id="Capa_1" data-name="Capa 1" xmlns="http://www.w3.org/2000/svg" viewBox="0 0 583.15 582.73">
  <defs>
    <style>
      .cls-1, .cls-2 {
        stroke-width: 0px;
      }

      .cls-2 {
        fill: #fff;
      }
    </style>
  </defs>
  <circle class="cls-1" cx="291.59" cy="291.24" r="290"/>
  <path id="Comprobante_bip_" data-name="Comprobante bip!" class="cls-2" d="m251.02,266.93h40.57c4.31,0,8.43-1.71,11.48-4.75,3.04-3.04,4.75-7.17,4.75-11.48s-1.71-8.43-4.75-11.48c-3.04-3.04-7.17-4.75-11.48-4.75h-16.23v-8.11c0-4.3-1.71-8.43-4.75-11.48-3.04-3.04-7.17-4.75-11.48-4.75s-8.43,1.71-11.48,4.75c-3.04,3.04-4.75,7.17-4.75,11.48v8.93c-9.86,2-18.63,7.6-24.59,15.7-5.97,8.1-8.71,18.13-7.7,28.14,1.01,10.01,5.71,19.29,13.17,26.03,7.47,6.74,17.17,10.47,27.24,10.46h16.23c2.15,0,4.22.85,5.74,2.38,1.52,1.52,2.38,3.59,2.38,5.74s-.85,4.22-2.38,5.74c-1.52,1.52-3.59,2.38-5.74,2.38h-40.57c-4.3,0-8.43,1.71-11.48,4.75-3.04,3.04-4.75,7.17-4.75,11.48s1.71,8.43,4.75,11.48c3.04,3.04,7.17,4.75,11.48,4.75h16.23v8.11c0,4.31,1.71,8.43,4.75,11.48,3.04,3.04,7.17,4.75,11.48,4.75s8.43-1.71,11.48-4.75c3.04-3.04,4.75-7.17,4.75-11.48v-8.93c9.86-2,18.63-7.6,24.59-15.7,5.97-8.1,8.71-18.13,7.7-28.14-1.01-10.01-5.71-19.29-13.17-26.03-7.47-6.74-17.17-10.47-27.24-10.46h-16.23c-2.15,0-4.22-.85-5.74-2.38-1.52-1.52-2.38-3.59-2.38-5.74s.86-4.22,2.38-5.74c1.52-1.52,3.59-2.38,5.74-2.38Zm186.64,24.34h-48.69v-146.07c.01-2.86-.73-5.67-2.16-8.15-1.42-2.48-3.48-4.54-5.96-5.97-2.47-1.42-5.27-2.17-8.12-2.17s-5.65.75-8.12,2.17l-48.69,27.92-48.69-27.92c-2.47-1.42-5.27-2.17-8.11-2.17s-5.65.75-8.12,2.17l-48.69,27.92-48.69-27.92c-2.47-1.42-5.27-2.17-8.11-2.17s-5.65.75-8.11,2.17c-2.48,1.43-4.53,3.49-5.96,5.97-1.43,2.48-2.17,5.29-2.16,8.15v259.67c0,12.91,5.13,25.3,14.26,34.43,9.13,9.13,21.52,14.26,34.43,14.26h227.22c12.91,0,25.3-5.13,34.43-14.26,9.13-9.13,14.26-21.51,14.26-34.43v-97.38c0-4.3-1.71-8.43-4.75-11.48-3.04-3.04-7.17-4.75-11.48-4.75Zm-259.67,129.84c-4.3,0-8.43-1.71-11.48-4.75-3.04-3.04-4.75-7.17-4.75-11.48v-231.6l32.46,18.5c2.5,1.31,5.29,1.99,8.11,1.99s5.61-.68,8.11-1.99l48.69-27.92,48.69,27.92c2.51,1.31,5.29,1.99,8.11,1.99s5.61-.68,8.12-1.99l32.46-18.5v231.6c.04,5.54,1.03,11.03,2.92,16.23h-181.45Zm243.45-16.23c0,4.3-1.71,8.43-4.75,11.48-3.04,3.04-7.17,4.75-11.48,4.75s-8.43-1.71-11.48-4.75c-3.04-3.04-4.75-7.17-4.75-11.48v-81.15h32.46v81.15Z"/>
</svg>