<?xml version="1.0" encoding="UTF-8"?>
<svg id="Consulta_y_carga_bip_" data-name="Consulta y carga bip!" xmlns="http://www.w3.org/2000/svg" viewBox="0 0 584.73 582.73">
  <defs>
    <style>
      .cls-1, .cls-2 {
        stroke-width: 0px;
      }

      .cls-2 {
        fill: #fff;
      }
    </style>
  </defs>
  <g id="Fondo">
    <path class="cls-1" d="m292.48,582.28C131.97,582.28,1.37,451.72,1.37,291.24S131.97.2,292.48.2s290.89,130.55,290.89,291.04-130.5,291.04-290.89,291.04Z"/>
  </g>
  <path id="Estrella_favoritos" data-name="Estrella favoritos" class="cls-2" d="m440.32,249.29c-.93-2.75-2.66-5.17-4.95-6.96-2.29-1.79-5.06-2.86-7.96-3.09l-84.8-6.74-36.7-81.23c-1.17-2.62-3.07-4.84-5.47-6.4-2.4-1.56-5.21-2.39-8.07-2.39-2.87,0-5.67.83-8.08,2.38-2.41,1.56-4.31,3.78-5.48,6.39l-36.7,81.24-84.8,6.74c-2.85.23-5.57,1.27-7.85,3-2.27,1.73-4,4.08-4.97,6.77-.97,2.69-1.15,5.6-.51,8.38.64,2.79,2.07,5.33,4.12,7.32l62.67,61.09-22.16,95.97c-.67,2.9-.46,5.94.62,8.73,1.08,2.78,2.96,5.17,5.42,6.87,2.45,1.69,5.36,2.61,8.34,2.64,2.98.02,5.9-.85,8.38-2.51l80.99-53.99,80.99,53.99c2.53,1.68,5.52,2.55,8.56,2.48,3.04-.07,5.99-1.06,8.45-2.85,2.46-1.79,4.31-4.29,5.3-7.17.99-2.87,1.08-5.98.26-8.91l-27.21-95.2,67.47-60.72c4.42-3.99,6.04-10.2,4.14-15.84Z"/>
</svg>