<?xml version="1.0" encoding="UTF-8"?>
<svg id="Capa_1" data-name="Capa 1" xmlns="http://www.w3.org/2000/svg" viewBox="0 0 582.1 480.87">
  <path d="m207.84,170.94c8.88,0,16.09-6.85,16.09-15.3s-7.2-15.3-16.09-15.3-16.09,6.85-16.09,15.3,7.2,15.3,16.09,15.3Z"  stroke-width="0"/>
  <path d="m333.98,282.76c12.73,0,23.05-9.81,23.05-21.92s-10.32-21.92-23.05-21.92-23.05,9.81-23.05,21.92,10.32,21.92,23.05,21.92Z" stroke-width="0"/>
  <path d="m155.49,177.53c-10.73,0-18.93,8.4-18.93,8.4v-41.98h-29.01v116.94h18.94l6.28-5.98s8.83,8.69,19.56,8.69c18.93,0,31.54-22.2,31.54-49.49s-17.66-36.58-28.39-36.58h.01Zm-3.15,48.88c0,5.09-2.84,11.59-7.89,12.54s-7.89-4.74-7.89-4.74v-25.79s2.52-6.3,7.56-6,8.2,8.1,8.2,8.1v15.9h.02Z" stroke-width="0"/>
  <path d="m310.02,227.2c3.63-27.07-12.61-49.49-31.54-49.49-10.73,0-17.97,9.1-17.97,9.1l-3.78-6.38h-23.02v116.94h29.01v-37.69s8.2,4.1,18.92,4.1,25.55-15.49,28.39-36.58h-.01,0Zm-31.54,3.6s-3.15,7.8-8.2,8.1c-5.05.31-7.56-6-7.56-6v-25.79s2.84-5.7,7.89-4.74c5.05.95,7.89,7.44,7.89,12.54v15.9h-.02Z" stroke-width="0"/>
  <path d="m222.02,179.93h-30.27v80.93h30.27v-80.93Z" stroke-width="0"/>
  <path d="m331.78,223.11l39.1-96.56,40.37,17.4-47.62,91.47-31.85-12.3h0Z" stroke-width="0"/>
  <path d="m506.17,278.39v75.93h75.93v50.62h-75.93v75.93h-50.62v-75.93h-75.93v-50.62h75.93v-75.93h50.62,0Zm-177.16,75.93H50.62V50.62h404.93v177.16h50.62V50.62c0-28.09-22.52-50.62-50.62-50.62H50.62c-13.42,0-26.3,5.33-35.79,14.83C5.33,24.32,0,37.19,0,50.62v303.7c0,13.42,5.33,26.3,14.83,35.79,9.49,9.49,22.37,14.82,35.79,14.82h278.39v-50.62h0Z" stroke-width="0"/>
</svg>