<svg xmlns="http://www.w3.org/2000/svg" data-name="Capa 1" viewBox="0 0 583.15 582.02"><g ><path d="M122.6 519.58c-41.92 16.2-72.51 0-72.51 0 13.6 54.38 54.39 59.01 87.24 61.32 32.86 2.31 45.32-19.67 44.19-35.87-1.13-16.2-17-41.65-58.92-25.46ZM232.49 514.4c-22.66 9.8-39.66 14.43-39.66 14.43s13.6 16.2 6.8 34.71c22.66 5.78 43.06 8.1 43.06 8.1s22.66-40.46-10.2-57.24ZM256.31 514.4s22.66 37.57 0 57.24c77.05-11.57 255.57-30.08 268.28-40.5 13.85-16.75-268.28-16.75-268.28-16.75Z"/></g><path d="M291.59.51C131.16.51 1.09 104.89 1.09 233.65S131.15 466.8 291.59 466.8s290.5-104.38 290.5-233.15S452.03.51 291.59.51Zm-71.08 246.02c-15.04 5.21-30.18 10.22-45.39 15.04 6.8-1.57 13.63-3.12 20.43-4.69 8.44-1.93 14.26 10.35 6.08 14.69-7.27 3.89-14.6 7.59-22 11.12 8.59.13 11.08 12.08 2.3 15.65-9.16 3.7-18.25 7.46-27.32 11.35 3.56-.64 7.11-1.38 10.67-2.28 9.85-2.25 14.04 13.02 4.19 15.49-5.41 1.25-10.61 2.89-15.55 4.95 5.79 1.26 10.26 8.1 4.47 13.08-4.37 3.76-8.78 7.55-13.16 11.31 1.23 1.83 2.42 3.63 3.65 5.46 5.73 8.55-7.93 16.58-13.6 8.1-2.45-3.63-4.88-7.3-7.33-10.96-1.42-2.09-1.38-5.4-.22-7.81-2.27-.26-4.6-.58-6.96-1.13-5.57-1.25-7.84-9.55-3.46-13.43 1.67-1.48 3.37-2.89 5.07-4.24-2.8-.1-5.6-.19-8.43-.42-7.18-.55-11.49-11.12-3.97-14.98 2.2-1.13 4.44-2.15 6.67-3.25-2.33.39-4.66.8-6.99 1.19-9.85 1.7-13.97-12.28-4.19-15.49 3.71-1.22 7.4-2.48 11.05-3.76-8.81 2.03-17.63 4.05-26.44 6.08-6.33 1.48-12.81-5.59-8.88-11.8 4.53-7.17 10.42-12.15 17.06-15.91-4.28.74-8.53 1.51-12.81 2.22-9.95 1.67-13.82-11.96-4.19-15.49 2.01-.74 4-1.48 5.98-2.22-6.07.87-12.18 1.67-18.29 2.38-9.73 1.13-9.35-12.66-2.08-15.78 7.36-3.15 14.76-6.33 22.13-9.48-5.35 1.29-10.7 2.64-16.05 3.89-8.34 1.96-14.48-10.77-6.07-14.69a2680.68 2680.68 0 0 0 34.21-16.26c-4.75.77-9.54 1.48-14.35 2.06-7.9.96-10.48-11.41-3.97-14.98 5.98-3.28 12.05-6.46 18.1-9.58h-2.55c-6.39-.03-10.98-9.1-5.57-13.72 4.6-3.92 9.38-7.49 14.29-10.77-2.23-2.92-2.55-7.49.31-10.83 3.18-3.73 6.55-7.2 10.01-10.51-7.33-1.12-6.67-11.25-1.86-14.69 7.11-5.08 13.72-10.06 12.72-19.86-1.07-10.28 14.67-10.19 15.74 0 .66 6.36-.69 11.76-3.3 16.46.35-.16.66-.29 1.01-.45 1.95-1.16 3.9-2.25 5.89-3.34 8.97-4.85 16.4 8.26 7.93 13.88-1.92 1.29-3.84 2.35-5.79 3.34-2.33 1.41-4.6 2.92-6.83 4.47 4.12-1.09 8.21-2.22 12.31-3.31 8.37-2.25 14.42 11.02 6.07 14.69-12.53 5.5-25.05 11.06-36.82 17.93 5.16-.42 10.29-1.06 15.33-2.12 10.61-4.89 21.31-9.61 32.13-14.08 9-3.7 12.56 9.8 6.07 14.69-3.4 2.57-6.92 4.72-10.54 6.62 3.24-1.25 6.48-2.51 9.69-3.82 8.37-3.44 13.88 10.64 6.07 14.69-12.56 6.52-25.21 12.95-37.86 19.28 15.52-4.21 31-8.48 46.42-12.98 10.07-2.92 13.22 11.63 4.19 15.49-20.21 8.68-40.44 17.32-60.68 26a600.088 600.088 0 0 0 73.43-22.43c9.66-3.63 13.31 11.64 4.19 15.49-15.42 6.49-30.94 12.79-46.49 19.03 16.71-3.25 33.39-6.59 50.07-10.09 9.95-2.09 13.79 12.18 4.06 15.52Zm308.01 0c-15.05 5.21-30.18 10.22-45.39 15.04 6.8-1.57 13.63-3.12 20.43-4.69 8.44-1.93 14.26 10.35 6.08 14.69-7.27 3.89-14.6 7.59-22 11.12 8.59.13 11.08 12.08 2.3 15.65-9.16 3.7-18.25 7.46-27.32 11.35 3.56-.64 7.11-1.38 10.67-2.28 9.85-2.25 14.04 13.02 4.19 15.49-5.41 1.25-10.61 2.89-15.55 4.95 5.79 1.26 10.26 8.1 4.47 13.08-4.37 3.76-8.78 7.55-13.16 11.31 1.23 1.83 2.42 3.63 3.65 5.46 5.73 8.55-7.93 16.58-13.6 8.1-2.46-3.63-4.88-7.3-7.33-10.96-1.42-2.09-1.38-5.4-.22-7.81-2.27-.26-4.6-.58-6.96-1.13-5.57-1.25-7.84-9.55-3.46-13.43 1.67-1.48 3.37-2.89 5.07-4.24-2.8-.1-5.6-.19-8.43-.42-7.18-.55-11.49-11.12-3.97-14.98 2.2-1.13 4.44-2.15 6.67-3.25-2.33.39-4.66.8-6.99 1.19-9.85 1.7-13.97-12.28-4.19-15.49 3.71-1.22 7.4-2.48 11.05-3.76-8.81 2.03-17.63 4.05-26.44 6.08-6.33 1.48-12.81-5.59-8.88-11.8 4.53-7.17 10.42-12.15 17.06-15.91-4.28.74-8.53 1.51-12.81 2.22-9.94 1.67-13.82-11.96-4.19-15.49 2.01-.74 4-1.48 5.98-2.22-6.07.87-12.18 1.67-18.29 2.38-4.27.49-6.59-1.88-7.24-4.97-.88 1.22-2.07 2.23-3.55 2.82-7.52 2.99-15.04 6.01-22.6 8.97 2.39-.26 4.75-.58 7.14-.83 9.03-.96 10.39 13.5 2.08 15.78-13.25 3.63-26.44 7.52-39.53 11.73 8.31-1.32 16.68-2.44 25.11-3.34 7.8-.84 10.67 11.51 3.97 14.98-11.39 5.95-25.3 7.68-37.99 11.47 8.28.22 16.56.93 24.9 2.09 6.61.93 7.71 11.99 1.89 14.69-5.63 2.64-11.23 5.24-16.87 7.87 6.23 2.41 6.58 13.37-.88 15.3-2.08 3.47-4.19 6.97-6.26 10.44 2.55 10.03-12.62 14.27-15.17 4.27-1.32-5.17-1.16-10.19.25-14.62-3.59-.19-7.18-.45-10.79-.83-6.83-.74-11.83-11.31-3.97-14.98 5.95-2.76 11.93-5.56 17.88-8.32-7.3.13-14.57.64-21.91 1.54-7.49.9-9.35-9.06-5.57-13.73.28-.35.6-.64.88-.96-1.16.32-2.3.61-3.46.93-7.02 1.96-11.74-5.66-8.88-11.8 2.8-6.04 6.93-10.41 11.77-13.88-3.21.64-6.42 1.19-9.6 1.86-9.85 2.06-14.04-12.69-4.19-15.49 14.92-4.24 29.65-9.09 44.25-14.3-17.85 3.15-35.6 6.94-53.25 11.41-9.85 2.38-14.04-12.99-4.19-15.49 25.3-6.11 50.04-13.88 74.21-23.33-27.7 6.91-54.67 21.66-83.03 23.72-7.49.55-11.14-11.8-3.97-14.98 6.8-3.02 13.56-6.01 20.36-9.03-5.73.67-11.43 1.32-17.15 1.93-9.63 1.03-9.51-12.76-2.08-15.78 8.28-3.38 16.55-6.75 24.83-10.12-2.71.61-5.38 1.19-8.06 1.77-9.91 2.15-13.82-12.28-4.19-15.49 4.09-1.38 8.12-2.86 12.12-4.4-5.6-2.12-7.49-10.12-1.45-14.33 8.21-5.72 16.4-11.41 24.61-17.13-1.7-3.09-1.67-7.52.6-10.48 3.49-4.56 6.96-9.1 10.42-13.66-1.48-.16-2.96-.29-4.5-.51-4.91-.74-7.24-7.84-4.69-11.8 5.38-8.26 8.91-16.62 11.08-26.32 2.23-10.09 17.4-5.79 15.17 4.27-1.48 6.65-3.52 12.76-6.26 18.64 1.2-.16 2.39-.39 3.59-.67 8.12-1.54 12.46 7.1 7.65 13.43-1.42 1.86-2.86 3.76-4.28 5.62 1.89-.71 3.81-1.38 5.73-2.09 8.94-3.21 13 9.87 6.07 14.69-7.14 4.98-14.32 9.96-21.46 14.95 10.67-3.25 21.18-6.94 31.6-11.12 8.47-3.41 13.69 10.45 6.08 14.69-6.08 3.41-12.18 6.78-18.32 10.09 8.31-1.83 16.65-3.63 24.99-5.46 10.1-2.22 13.44 11.73 4.19 15.49-15.8 6.46-31.63 12.92-47.46 19.38 5.82-1.45 11.61-3.09 17.31-4.95 11.3-5.01 22.57-10.03 33.86-15.04 9.03-4.02 16.97 8.61 7.93 13.89-8.47 4.95-17.22 9-26.12 12.47 9.6-1.25 19.45-1.29 29.71.64 6.51 1.22 7.84 11.83 1.89 14.69-5.48 2.64-10.95 5.14-16.49 7.62 6.14-.64 12.24-1.25 18.38-1.77 4.21-.35 6.58 2.06 7.28 5.12.88-1.3 2.07-2.37 3.54-3 7.37-3.15 14.76-6.33 22.12-9.48-5.35 1.29-10.7 2.64-16.05 3.89-8.34 1.96-14.48-10.77-6.07-14.69a2680.68 2680.68 0 0 0 34.21-16.26c-4.75.77-9.54 1.48-14.35 2.06-7.9.96-10.48-11.41-3.96-14.98 5.98-3.28 12.05-6.46 18.1-9.58h-2.55c-6.39-.03-10.98-9.1-5.57-13.72 4.6-3.92 9.38-7.49 14.29-10.77-2.23-2.92-2.55-7.49.32-10.83 3.18-3.73 6.55-7.2 10.01-10.51-7.33-1.12-6.67-11.25-1.86-14.69 7.11-5.08 13.72-10.06 12.72-19.86-1.07-10.28 14.67-10.19 15.74 0 .66 6.36-.69 11.76-3.3 16.46.35-.16.66-.29 1.01-.45 1.95-1.16 3.9-2.25 5.89-3.34 8.97-4.85 16.4 8.26 7.93 13.88-1.92 1.29-3.84 2.35-5.79 3.34-2.33 1.41-4.6 2.92-6.83 4.47 4.12-1.09 8.21-2.22 12.31-3.31 8.37-2.25 14.41 11.02 6.07 14.69-12.53 5.5-25.05 11.06-36.82 17.93 5.16-.42 10.29-1.06 15.33-2.12 10.61-4.89 21.31-9.61 32.13-14.08 9-3.7 12.56 9.8 6.08 14.69-3.4 2.57-6.92 4.72-10.54 6.62 3.24-1.25 6.48-2.51 9.69-3.82 8.37-3.44 13.88 10.64 6.08 14.69-12.56 6.52-25.21 12.95-37.86 19.28 15.52-4.21 31-8.48 46.42-12.98 10.07-2.92 13.22 11.63 4.19 15.49-20.21 8.68-40.44 17.32-60.68 26a600.088 600.088 0 0 0 73.43-22.43c9.66-3.63 13.31 11.64 4.19 15.49-15.42 6.49-30.94 12.79-46.49 19.03 16.71-3.25 33.39-6.59 50.07-10.09 9.95-2.09 13.79 12.18 4.06 15.52Z"/></svg>