<svg xmlns="http://www.w3.org/2000/svg" data-name="Capa 1" viewBox="0 0 583.15 582.02"><path  d="M531.2 348.05c-22.33-8.53-52.17-11.49-68.04 2.08-16.79 14.3-23.89 20.57-54.34 47.1-40.27 12.13-27.17-84.23-24.77-110.62.14-1.52 19.33-156.19 23.62-182.26 5.03-30.68-5.35-51.02-26.48-54.48-22.7-3.69-37.27 26.66-39.81 42.39-3.92 24.26-17.62 102.04-24.36 158.41 0 0-1.06 5.4-2.44 6.41-9.87 7.24-16.19-5.44-16.19-5.44-2.81-42.67-2.63-167.22-2.81-190.88C295.12 19.89 282.66.56 261.3.52c-28.14-.05-36.58 24.13-36.16 64.03.28 23.85 4.01 113.25 3.41 181.29-10.29 18.45-22.74 2.54-22.74 2.54-8.16-64.58-15.45-149.27-18.77-169.16-5.4-32.29-16.33-47.1-37.69-45.34-22.19 1.8-29.98 19.97-26.16 57.66 2.72 26.71 13.29 130.91 18.41 173.91-5.54 25.6-23.25 11.21-23.25 11.21-11.9-62.23-18.82-95.67-22.83-111.31-8.44-33.07-18.73-43.32-39.39-37.69-22.88 6.27-23.62 26.89-19.01 56.88C40.21 204.7 63.51 340 65.72 393.97c3.51 82.85 40.55 152.78 82.39 170.36 58.81 24.73 139.26 24.63 206.15-12.27 16.19-8.95 39.16-40.18 52.68-52.86 2.08-2.03 43.09-50.97 49.03-54.85 15.27-9.92 30.63-19.14 42.07-25.28 12.32-6.6 24.68-14.21 30.08-18.27 29.2-21.91 23.66-44.84 3.09-52.73Z"/></svg>