<svg xmlns="http://www.w3.org/2000/svg" data-name="Capa 1" viewBox="0 0 582 582.02"><path  d="M373.57 520.23H133.2c-39.73 0-72.02-32.29-72.02-72.02s32.29-72.02 72.02-72.02h201.66c55.6 0 100.83-45.23 100.83-100.83s-45.23-100.83-100.83-100.83H194.83a282.597 282.597 0 0 1-39.01 57.62h179.04c23.83 0 43.21 19.39 43.21 43.21s-19.39 43.21-43.21 43.21H133.2c-71.47 0-129.64 58.16-129.64 129.64S61.72 577.85 133.2 577.85h276.36a299.494 299.494 0 0 1-35.98-57.62ZM89.99 1.69c-47.65 0-86.43 38.77-86.43 86.42 0 91.84 86.42 144.04 86.42 144.04s86.42-52.23 86.42-144.04c.01-47.65-38.77-86.42-86.41-86.42Zm0 129.64c-5.68 0-11.3-1.12-16.54-3.3a43.11 43.11 0 0 1-14.02-9.38 43.444 43.444 0 0 1-9.37-14.03 43.107 43.107 0 0 1-3.28-16.54c0-5.68 1.12-11.3 3.3-16.54a43.11 43.11 0 0 1 9.38-14.02c4.02-4.01 8.78-7.2 14.03-9.37a43.107 43.107 0 0 1 16.54-3.28c11.46 0 22.46 4.56 30.56 12.67a43.267 43.267 0 0 1 12.65 30.57c0 11.46-4.56 22.46-12.67 30.56A43.267 43.267 0 0 1 90 131.32Z"/><path d="M493.3 347.38c-47.65 0-86.42 38.78-86.42 86.42 0 91.84 86.42 144.04 86.42 144.04s86.42-52.23 86.42-144.04c0-47.65-38.78-86.42-86.42-86.42Zm0 129.64c-5.68 0-11.3-1.12-16.54-3.3a43.27 43.27 0 0 1-26.68-39.96c0-5.68 1.12-11.3 3.3-16.54a43.241 43.241 0 0 1 9.37-14.02c4.02-4.01 8.78-7.2 14.03-9.37s10.87-3.29 16.54-3.29c11.46 0 22.46 4.56 30.56 12.67a43.267 43.267 0 0 1 12.65 30.57c0 11.46-4.56 22.46-12.67 30.56a43.267 43.267 0 0 1-30.57 12.65Z"/></svg>