<svg xmlns="http://www.w3.org/2000/svg" data-name="Capa 1" viewBox="0 0 582.56 582.02"><path  d="M375.21 577.07h-.05c-2.49 0-5-.28-7.48-.86-2.83-.65-5.52-1.66-8.02-2.98l-154.14-77.07-154.77 77.38a33.305 33.305 0 0 1-32.43-1.46 33.318 33.318 0 0 1-15.81-28.35V119.54c0-12.62 7.13-24.17 18.43-29.81L189.97 5.21c2.54-1.34 5.26-2.36 8.13-3.01 2.5-.57 5.06-.86 7.54-.83 2.42 0 4.86.28 7.27.83 2.87.65 5.6 1.67 8.13 3.01l154.14 77.07L529.95 4.89a33.304 33.304 0 0 1 32.43 1.46 33.323 33.323 0 0 1 15.81 28.36V458.9c0 12.63-7.13 24.17-18.43 29.81l-169.05 84.52a33.034 33.034 0 0 1-8.13 3.01c-2.45.56-4.92.83-7.38.83ZM238.84 438.29l103.01 51.5V140.14l-103.01-51.5v349.65Zm169.68-298.15v349.65l103.01-51.5V88.64l-103.01 51.5Zm-339.35 0v349.65l103.01-51.5V88.64l-103.01 51.5Z" data-name="Navigation / Map"/></svg>