<svg xmlns="http://www.w3.org/2000/svg" data-name="Capa 1" viewBox="0 0 582.04 582.05"><path fill="none" d="M261.92 449.89h58.2v15.75h-58.2zM189.17 349.23h72.76v58.2h-72.76zM232.82 261.92c-8.04 0-14.55-6.51-14.55-14.55s6.51-14.55 14.55-14.55h29.1v-58.2h-29.1c-40.18 0-72.76 32.57-72.76 72.76s32.57 72.76 72.76 72.76h29.1v-58.2h-29.1v-.02ZM349.23 261.92h-29.1v58.2h29.1c8.04 0 14.55 6.51 14.55 14.55s-6.51 14.55-14.55 14.55h-29.1v58.2h29.1c40.18 0 72.76-32.57 72.76-72.76s-32.57-72.76-72.76-72.76v.02ZM320.13 174.61h72.76v58.2h-72.76z"/><path d="M349.23 349.23c8.04 0 14.55-6.51 14.55-14.55s-6.51-14.55-14.55-14.55h-29.1v29.1h29.1Z"/><path d="M349.73 5.74C143.37-34.56-34.56 143.37 5.74 349.73c22.34 114.41 112.17 204.24 226.58 226.58 206.35 40.3 384.29-137.63 343.98-343.98C553.95 117.92 464.13 28.09 349.72 5.75ZM348 407.43h-27.61c-.14 0-.26.12-.26.26l-20.82 36.48-37.39-36.48c0-.14-.12-.26-.26-.26h-43.4c-16.07 0-29.1-13.03-29.1-29.1s13.03-29.1 29.1-29.1h43.4c.14 0 .26-.12.26-.26v-28.59c0-.14-.12-.26-.26-.26h-27.61c-41.88 0-76.07-34.78-73.89-76.6 2-38.4 33.76-68.91 72.66-68.91h28.84c.14 0 .26-.12.26-.26v-28.84c0-16.07 13.03-29.1 29.1-29.1s29.1 13.03 29.1 29.1v28.84c0 .14.12.26.26.26h43.4c16.07 0 29.1 13.03 29.1 29.1s-13.03 29.1-29.1 29.1h-43.4c-.14 0-.26.12-.26.26v28.59c0 .14.12.26.26.26h28.84c38.89 0 70.66 30.52 72.66 68.91 2.18 41.82-32.01 76.6-73.89 76.6h.01Z"/><path d="M232.82 232.82c-8.04 0-14.55 6.51-14.55 14.55s6.51 14.55 14.55 14.55h29.1v-29.1h-29.1Z"/><path fill="#fff" d="M261.92 349.23v87.31c0 16.07 13.03 29.1 29.1 29.1s29.1-13.03 29.1-29.1v-87.31h-58.2ZM291.02 232.82c16.07 0 29.1-13.03 29.1-29.1v-58.2c0-16.07-13.03-29.1-29.1-29.1s-29.1 13.03-29.1 29.1v58.2c0 16.07 13.03 29.1 29.1 29.1ZM261.92 320.13h58.2v29.1h-58.2zM261.92 232.82h58.2v29.1h-58.2z"/></svg>