<?xml version="1.0" encoding="UTF-8"?>
<svg id="Combinación" xmlns="http://www.w3.org/2000/svg" viewBox="0 0 585.11 585.11">
  <defs>
    <style>
      .cls-1 {
        fill: #43464e;
      }

      .cls-1, .cls-2 {
        stroke-width: 0px;
      }

      .cls-2 {
        fill: #eeeff0;
      }
    </style>
  </defs>
  <circle class="cls-2" cx="292.55" cy="292.55" r="291"/>
  <path class="cls-1" d="m178.53,113.63s-.08.07-.12.11l-64.67,64.67c-4.54,4.55-7.09,10.72-7.09,17.14,0,6.43,2.56,12.59,7.1,17.14,4.55,4.55,10.71,7.1,17.14,7.1,6.43,0,12.6-2.55,17.14-7.09l23.27-23.27v264.79c0,6.43,2.55,12.6,7.1,17.15,4.55,4.55,10.72,7.1,17.15,7.1s12.6-2.55,17.15-7.1c4.55-4.55,7.1-10.72,7.1-17.15V189.43l23.27,23.27c4.55,4.54,10.72,7.09,17.14,7.09,6.43,0,12.59-2.56,17.14-7.1,4.55-4.55,7.1-10.71,7.1-17.14,0-6.43-2.55-12.6-7.09-17.14l-64.67-64.67s-.08-.07-.12-.11c-.53-.52-1.08-1.02-1.65-1.49-.3-.24-.61-.46-.92-.69-.33-.24-.65-.5-.99-.73-.36-.24-.73-.45-1.1-.67-.31-.18-.61-.38-.93-.55-.37-.2-.76-.37-1.14-.55-.34-.16-.67-.33-1.01-.47-.37-.15-.75-.28-1.13-.41-.37-.13-.73-.27-1.11-.39-.38-.12-.77-.2-1.15-.3-.38-.1-.76-.2-1.15-.28-.45-.09-.9-.14-1.35-.21-.33-.05-.66-.11-1-.14-1.59-.16-3.2-.16-4.8,0-.34.03-.67.1-1,.14-.45.06-.9.12-1.35.21-.39.08-.77.19-1.15.28-.38.1-.77.18-1.15.3-.38.11-.74.26-1.11.39-.38.13-.76.26-1.13.41-.34.14-.67.31-1.01.47-.38.18-.77.35-1.14.55-.32.17-.62.37-.93.55-.37.22-.74.43-1.1.67-.34.23-.66.48-.99.73-.31.23-.62.44-.92.69-.57.47-1.12.97-1.65,1.49Zm225.48,360.03c-.33.25-.65.5-.99.73-.36.24-.73.45-1.11.67-.31.18-.61.38-.93.55-.38.2-.76.37-1.14.55-.34.16-.66.33-1.01.47-.38.16-.75.28-1.13.41-.37.13-.73.27-1.11.39-.38.12-.77.2-1.15.29-.38.1-.76.2-1.15.28-.45.09-.9.14-1.35.21-.33.05-.66.11-1,.14-1.59.16-3.2.16-4.8,0-.34-.03-.67-.09-1-.14-.45-.06-.9-.12-1.35-.21-.39-.08-.77-.18-1.15-.28-.38-.09-.77-.18-1.15-.29-.38-.12-.74-.26-1.11-.39-.38-.14-.76-.26-1.13-.41-.34-.14-.67-.31-1.01-.47-.38-.18-.77-.35-1.14-.55-.32-.17-.62-.37-.93-.55-.37-.22-.74-.43-1.1-.67-.34-.23-.66-.48-.99-.73-.3-.23-.62-.44-.92-.69-.58-.47-1.13-.97-1.65-1.49-.04-.04-.08-.07-.12-.11l-64.67-64.67c-4.54-4.55-7.09-10.72-7.09-17.14,0-6.43,2.56-12.59,7.1-17.14,4.55-4.55,10.71-7.1,17.14-7.1,6.43,0,12.59,2.55,17.14,7.09l23.27,23.27V130.89c0-6.43,2.55-12.6,7.1-17.15,4.55-4.55,10.72-7.1,17.15-7.1s12.6,2.55,17.15,7.1c4.55,4.55,7.1,10.72,7.1,17.15v264.79l23.27-23.27c4.55-4.54,10.72-7.09,17.15-7.09,6.43,0,12.59,2.55,17.14,7.1s7.1,10.71,7.1,17.14c0,6.43-2.55,12.59-7.09,17.14l-64.67,64.67s-.08.07-.12.11c-.53.52-1.08,1.02-1.65,1.49-.3.25-.61.46-.92.69Z"/>
</svg>