<?xml version="1.0" encoding="UTF-8"?>
<svg id="Capa_1" data-name="Capa 1" xmlns="http://www.w3.org/2000/svg" viewBox="0 0 583.15 582.48">
  <circle cx="291.59" cy="291.24" r="291" stroke-width="0"/>
  <g>
    <path d="m327.57,422.57h-137.52c-22.73,0-41.2-18.48-41.2-41.2s18.48-41.2,41.2-41.2h115.37c31.81,0,57.68-25.88,57.68-57.68s-25.88-57.68-57.68-57.68h-80.11c-6.05,11.86-13.55,22.94-22.32,32.96h102.43c13.63,0,24.72,11.09,24.72,24.72s-11.09,24.72-24.72,24.72h-115.37c-40.89,0-74.17,33.28-74.17,74.17s33.28,74.17,74.17,74.17h158.1c-8.09-10.17-14.99-21.23-20.58-32.96ZM165.33,125.91c-27.26,0-49.44,22.18-49.44,49.44,0,52.54,49.44,82.41,49.44,82.41,0,0,49.44-29.88,49.44-82.41,0-27.26-22.18-49.44-49.44-49.44Zm0,74.17c-3.25,0-6.46-.64-9.46-1.89-3-1.24-5.73-3.07-8.02-5.36s-4.12-5.02-5.36-8.02c-1.24-3-1.88-6.22-1.88-9.46s.64-6.46,1.89-9.46c1.24-3,3.07-5.73,5.36-8.02,2.3-2.3,5.02-4.12,8.02-5.36,3-1.24,6.22-1.88,9.46-1.88,6.56,0,12.85,2.61,17.48,7.25,4.64,4.64,7.24,10.93,7.24,17.49,0,6.56-2.61,12.85-7.25,17.48-4.64,4.64-10.93,7.24-17.49,7.24Z" fill="#fff" stroke-width="0"/>
    <path d="m408.38,299.43c-32.49,0-58.93,26.44-58.93,58.93,0,62.62,58.93,98.22,58.93,98.22,0,0,58.93-35.61,58.93-98.22,0-32.49-26.44-58.93-58.93-58.93Zm0,88.39c-3.87,0-7.7-.76-11.28-2.25-3.58-1.48-6.82-3.66-9.56-6.39-2.74-2.74-4.9-5.99-6.39-9.56-1.48-3.58-2.24-7.41-2.24-11.28,0-3.87.76-7.7,2.25-11.28,1.48-3.58,3.66-6.82,6.39-9.56,2.74-2.74,5.99-4.9,9.56-6.39,3.58-1.48,7.41-2.24,11.28-2.24,7.82,0,15.31,3.11,20.84,8.64,5.53,5.53,8.63,13.03,8.63,20.85,0,7.82-3.11,15.31-8.64,20.84-5.53,5.53-13.03,8.63-20.85,8.63Z" fill="#fff" stroke-width="0"/>
  </g>
</svg>