<?xml version="1.0" encoding="UTF-8"?>
<svg id="Capa_1" data-name="Capa 1" xmlns="http://www.w3.org/2000/svg" viewBox="0 0 583.15 582.48">
  <defs>
    <style>
      .cls-1, .cls-2 {
        stroke-width: 0px;
      }

      .cls-2 {
        fill: #fff;
      }
    </style>
  </defs>
  <circle class="cls-1" cx="291.59" cy="291.24" r="291"/>
  <g id="Planificador_beta" data-name="Planificador beta">
    <g>
      <path class="cls-2" d="m322.38,301.22h-90.32c-14.93,0-27.06-12.14-27.06-27.06s12.13-27.06,27.06-27.06h75.78c20.89,0,37.89-17,37.89-37.89s-17-37.89-37.89-37.89h-52.62c-3.98,7.79-8.9,15.06-14.66,21.65h67.28c8.95,0,16.24,7.28,16.24,16.24s-7.28,16.24-16.24,16.24h-75.78c-26.86,0-48.71,21.86-48.71,48.71s21.86,48.71,48.71,48.71h103.85c-5.31-6.68-9.85-13.95-13.52-21.65h0Zm-106.56-194.85c-17.9,0-32.48,14.57-32.48,32.48,0,34.51,32.48,54.13,32.48,54.13,0,0,32.48-19.63,32.48-54.13,0-17.9-14.57-32.48-32.48-32.48Zm0,48.71c-2.13,0-4.25-.42-6.22-1.24-1.97-.82-3.76-2.01-5.27-3.52-1.51-1.51-2.7-3.3-3.52-5.27-.82-1.97-1.24-4.08-1.23-6.22,0-2.13.42-4.25,1.24-6.22.82-1.97,2.01-3.76,3.52-5.27,1.51-1.51,3.3-2.7,5.27-3.52,1.97-.82,4.08-1.24,6.22-1.23,4.31,0,8.44,1.71,11.48,4.76,3.05,3.05,4.76,7.18,4.75,11.49,0,4.31-1.71,8.44-4.76,11.48-3.05,3.05-7.18,4.76-11.49,4.75h0Z"/>
      <path class="cls-2" d="m367.37,236.27c-17.9,0-32.48,14.57-32.48,32.48,0,34.51,32.48,54.13,32.48,54.13,0,0,32.48-19.63,32.48-54.13,0-17.9-14.57-32.48-32.48-32.48Zm0,48.71c-2.13,0-4.25-.42-6.22-1.24-1.97-.82-3.76-2.01-5.27-3.52-1.51-1.51-2.7-3.3-3.52-5.27s-1.23-4.08-1.23-6.22c0-2.13.42-4.25,1.24-6.22.82-1.97,2.01-3.76,3.52-5.27,1.51-1.51,3.3-2.7,5.27-3.52,1.97-.82,4.08-1.23,6.22-1.23,4.31,0,8.44,1.71,11.48,4.76,3.04,3.05,4.76,7.18,4.75,11.49,0,4.31-1.71,8.44-4.76,11.48-3.05,3.04-7.18,4.76-11.49,4.75h0Z"/>
    </g>
    <path class="cls-2" d="m148.58,415.73v20.11h18.27c8.17,0,12.26-3.27,12.26-9.81,0-6.87-4.09-10.3-12.26-10.3h-18.27Zm-22.81,38.38v-87.55h40.95c21.09,0,31.64,7.32,31.64,21.95,0,7.93-3.84,13.81-11.53,17.66,4.66,1.31,8.34,3.84,11.04,7.6s4.05,8.13,4.05,13.12c0,18.15-11.36,27.22-34.09,27.22h-42.06Zm22.81-69.89v16.8h17.66c2.37,0,4.41-.61,6.13-1.84,2.13-1.47,3.19-3.64,3.19-6.5,0-5.64-3.11-8.46-9.32-8.46h-17.66Zm65.68,69.89v-87.55h69.77v18.27h-46.96v15.33h42.92v17.66h-42.92v16.68h48.19v19.62h-70.99Zm153.34-87.55v19.62h-26.12v67.93h-22.81v-67.93h-26.12v-19.62h75.04Zm45.3,24.28l-9.93,30.65h19.86l-9.69-30.65h-.25Zm-44.14,63.27l32.74-87.55h23.17l32.74,87.55h-23.79l-5.4-15.69h-30.53l-5.52,15.69h-23.42Z"/>
  </g>
</svg>