<?xml version="1.0" encoding="UTF-8"?>
<svg id="Ruta_Expresa_Altocontraste" data-name="Ruta Expresa Altocontraste" xmlns="http://www.w3.org/2000/svg" viewBox="0 0 622 622.08">
  <defs>
    <style>
      .cls-1 {
        fill: #fff;
      }

      .cls-1, .cls-2 {
        stroke-width: 0px;
      }

      .cls-2 {
        fill: #231f20;
      }
    </style>
  </defs>
  <g id="Combinación_Común" data-name="Combinación Común">
    <g id="Circulo_externo" data-name="Circulo externo">
      <path class="cls-2" d="m311.11,582.08c-149.49,0-271.11-121.59-271.11-271.04S161.62,40,311.11,40s270.89,121.59,270.89,271.04-121.52,271.04-270.89,271.04Z"/>
      <path class="cls-1" d="m311.11,60c138.34,0,250.89,112.62,250.89,251.04s-112.55,251.04-250.89,251.04S60,449.46,60,311.04,172.65,60,311.11,60m0-40C150.61,20,20,150.55,20,311.04s130.61,291.04,291.11,291.04,290.89-130.55,290.89-291.04S471.5,20,311.11,20h0Z"/>
    </g>
    <path class="cls-1" d="m311,153.54c-.17,0-.33,0-.5,0-86.75.27-157,70.7-157,157.53s70.25,157.19,157,157.46c.17,0,.33,0,.5,0,86.95,0,157.5-70.5,157.5-157.47s-70.55-157.53-157.5-157.53Z"/>
    <path class="cls-2" d="m332.76,275.07v-14.39c0-14.15-1.44-23.98-4.32-29.5-2.64-5.52-7.31-8.27-14.03-8.27-9.83,0-16.19,5.99-19.06,17.98-2.4,10.55-3.6,33.93-3.6,70.14s1.2,59.59,3.6,70.14c2.88,11.99,9.23,17.98,19.06,17.98s16.67-8.63,19.06-25.9c.72-4.56,1.08-16.91,1.08-37.05h64.75v19.06c0,59.47-28.3,89.2-84.89,89.2-36.45,0-61.15-10.31-74.1-30.93-11.75-18.46-17.63-52.64-17.63-102.51s6.59-83.93,19.78-103.59c13.43-19.9,37.41-29.85,71.94-29.85,55.39,0,83.09,27.1,83.09,81.29v16.19h-64.75Z"/>
  </g>
</svg>