<?xml version="1.0" encoding="UTF-8"?>
<svg id="Ruta_Expresa_Altocontraste" data-name="Ruta Expresa Altocontraste" xmlns="http://www.w3.org/2000/svg" viewBox="0 0 622 622.08">
  <defs>
    <style>
      .cls-1 {
        fill: #fff;
      }

      .cls-1, .cls-2 {
        stroke-width: 0px;
      }

      .cls-2 {
        fill: #231f20;
      }
    </style>
  </defs>
  <g id="Común">
    <g id="Circulo_externo" data-name="Circulo externo">
      <path class="cls-1" d="m311.11,582.08c-149.49,0-271.11-121.59-271.11-271.04S161.62,40,311.11,40s270.89,121.59,270.89,271.04-121.52,271.04-270.89,271.04Z"/>
      <path class="cls-2" d="m311.11,60c138.34,0,250.89,112.62,250.89,251.04s-112.55,251.04-250.89,251.04S60,449.46,60,311.04,172.65,60,311.11,60m0-40C150.61,20,20,150.55,20,311.04s130.61,291.04,291.11,291.04,290.89-130.55,290.89-291.04S471.5,20,311.11,20h0Z"/>
    </g>
    <path class="cls-2" d="m342.66,258.68v-20.95c0-20.6-2.1-34.92-6.29-42.95-3.84-8.03-10.65-12.05-20.43-12.05-14.32,0-23.57,8.73-27.76,26.19-3.49,15.36-5.24,49.41-5.24,102.14s1.75,86.78,5.24,102.14c4.19,17.46,13.44,26.19,27.76,26.19s24.27-12.57,27.76-37.71c1.05-6.63,1.57-24.62,1.57-53.95h94.28v27.76c0,86.6-41.21,129.9-123.62,129.9-53.08,0-89.05-15.02-107.9-45.05-17.11-26.89-25.67-76.65-25.67-149.28s9.6-122.22,28.81-150.85c19.56-28.98,54.48-43.48,104.76-43.48,80.67,0,121,39.46,121,118.38v23.57h-94.28Z"/>
  </g>
</svg>