<?xml version="1.0" encoding="UTF-8"?>
<svg id="Capa_1" data-name="Capa 1" xmlns="http://www.w3.org/2000/svg" viewBox="0 0 583.15 582.02">
  <path d="m4.06,336.65C-25.76,140.02,140.98-26.56,337.6,3.53c122.58,18.76,222.76,118.97,241.48,241.56,30.06,196.87-137.18,363.72-333.93,333.34-122.51-18.92-222.5-119.22-241.09-241.78Z" fill-rule="evenodd" stroke-width="0"/>
  <path d="m200.55,216.6c4.27-13.77,10.69-25.8,19.25-36.09s19.32-18.31,32.28-24.07c12.96-5.75,27.88-8.62,44.72-8.62,12.84,0,25.07,2,36.7,6.01s21.87,9.76,30.69,17.24c8.82,7.49,15.84,16.72,21.05,27.67,5.22,10.97,7.82,23.27,7.82,36.91s-2.28,26.34-6.83,36.5c-4.54,10.16-10.57,19.19-18.05,27.08-7.49,7.89-15.98,15.04-25.47,21.45-9.49,6.42-19.05,12.78-28.67,19.06-9.63,6.29-19,13.03-28.08,20.25-9.09,7.23-17.11,15.65-24.06,25.27h132.76v48.93h-206.16c0-16.3,2.34-30.48,7.02-42.52,4.67-12.03,11.03-22.79,19.06-32.28,8.02-9.49,17.44-18.25,28.27-26.27,10.83-8.02,22.27-16.18,34.29-24.46,6.15-4.28,12.7-8.63,19.65-13.04,6.95-4.41,13.3-9.28,19.06-14.64,5.75-5.35,10.56-11.36,14.44-18.05,3.87-6.68,5.81-14.3,5.81-22.86,0-13.63-3.95-24.26-11.83-31.88-7.89-7.62-17.99-11.43-30.28-11.43-8.29,0-15.31,1.94-21.06,5.82-5.75,3.88-10.36,8.96-13.84,15.24-3.48,6.29-5.95,13.24-7.42,20.86-1.47,7.62-2.2,15.18-2.2,22.66h-54.54c-.55-16.04,1.33-30.94,5.61-44.72Z" fill="#fff" stroke-width="0"/>
</svg>