<?xml version="1.0" encoding="UTF-8"?>
<svg id="Capa_1" data-name="Capa 1" xmlns="http://www.w3.org/2000/svg" viewBox="0 0 583.15 582.02">
  <path d="m4.06,336.65C-25.76,140.02,140.98-26.56,337.6,3.53c122.58,18.76,222.76,118.97,241.48,241.56,30.06,196.87-137.18,363.72-333.93,333.34-122.51-18.92-222.5-119.22-241.09-241.78Z" fill-rule="evenodd" stroke-width="0"/>
  <path d="m291.21,262.51c6.95-.54,13.43-2.08,19.45-4.61,6.02-2.55,10.97-6.22,14.84-11.04,3.88-4.81,5.82-11.23,5.82-19.25,0-12.03-4.01-21.26-12.03-27.67s-17.24-9.63-27.67-9.63c-14.44,0-25.34,4.75-32.69,14.24-7.36,9.5-10.9,21.45-10.63,35.9h-54.14c.53-14.44,3.13-27.6,7.81-39.51,4.68-11.89,11.23-22.12,19.65-30.68,8.43-8.56,18.52-15.18,30.29-19.86,11.76-4.67,24.86-7.01,39.31-7.01,11.23,0,22.46,1.66,33.69,5.01,11.22,3.34,21.32,8.35,30.28,15.04,8.96,6.68,16.25,14.84,21.86,24.46,5.62,9.63,8.43,20.73,8.43,33.29,0,13.63-3.28,25.67-9.83,36.09-6.55,10.43-16.38,17.52-29.48,21.26v.8c15.51,3.48,27.68,10.97,36.51,22.46,8.82,11.5,13.23,25.26,13.23,41.31,0,14.71-2.87,27.81-8.62,39.31-5.76,11.5-13.43,21.12-23.06,28.88s-20.73,13.63-33.29,17.65c-12.57,4.01-25.67,6.01-39.31,6.01-15.78,0-30.15-2.27-43.11-6.82-12.97-4.54-24.01-11.16-33.1-19.85s-16.11-19.32-21.05-31.89c-4.95-12.56-7.29-27-7.02-43.31h54.15c.26,7.48,1.47,14.64,3.61,21.45,2.13,6.82,5.21,12.7,9.22,17.65,4,4.95,9.02,8.89,15.04,11.84,6.01,2.94,13.16,4.41,21.45,4.41,12.84,0,23.67-3.94,32.49-11.83,8.82-7.88,13.23-18.65,13.23-32.28,0-10.69-2.07-18.86-6.21-24.47-4.15-5.61-9.43-9.68-15.84-12.23-6.42-2.55-13.44-4.01-21.06-4.42s-14.9-.6-21.86-.6v-40.11c6.15.54,12.7.54,19.65,0Z" fill="#fff" stroke-width="0"/>
</svg>