<?xml version="1.0" encoding="UTF-8"?>
<svg id="Capa_1" data-name="Capa 1" xmlns="http://www.w3.org/2000/svg" viewBox="0 0 583.15 582.02">
  <path d="m4.06,336.65C-25.76,140.02,140.98-26.56,337.6,3.53c122.58,18.76,222.76,118.97,241.48,241.56,30.06,196.87-137.18,363.72-333.93,333.34-122.51-18.92-222.5-119.22-241.09-241.78Z" fill-rule="evenodd" stroke-width="0"/>
  <g>
    <path d="m52.95,369.21v-52.13l121.93-163.65h50.94v168.86h37.3v46.92h-37.3v64.98h-54.14v-64.98H52.95Zm117.53-144.38l-72.6,97.46h73.8v-97.46h-1.2Z" fill="#fff" stroke-width="0"/>
    <path d="m423.15,147.82l107.09,286.37h-65.37l-21.66-63.78h-107.09l-22.46,63.78h-63.37l108.29-286.37h64.58Zm3.61,175.67l-36.1-105.08h-.8l-37.3,105.08h74.2Z" fill="#fff" stroke-width="0"/>
  </g>
</svg>