<?xml version="1.0" encoding="UTF-8"?>
<svg id="Capa_1" data-name="Capa 1" xmlns="http://www.w3.org/2000/svg" viewBox="0 0 583.15 582.02">
  <path d="m4.06,336.65C-25.76,140.02,140.98-26.56,337.6,3.53c122.58,18.76,222.76,118.97,241.48,241.56,30.06,196.87-137.18,363.72-333.93,333.34-122.51-18.92-222.5-119.22-241.09-241.78Z" fill-rule="evenodd" stroke-width="0"/>
  <path d="m264.73,194.94l-11.23,63.78.8.8c7.75-7.76,16.04-13.3,24.86-16.65,8.82-3.34,18.85-5.01,30.08-5.01,13.9,0,26.2,2.55,36.9,7.62,10.69,5.08,19.72,11.91,27.08,20.46,7.35,8.56,12.96,18.65,16.85,30.29,3.87,11.63,5.81,24,5.81,37.1,0,14.43-2.8,27.87-8.42,40.3-5.61,12.44-13.17,23.2-22.66,32.28-9.5,9.1-20.52,16.12-33.09,21.06-12.57,4.95-25.94,7.28-40.11,7.01-13.64,0-26.67-1.8-39.11-5.41-12.43-3.61-23.46-9.17-33.09-16.65-9.63-7.48-17.31-16.78-23.06-27.88-5.76-11.09-8.76-24-9.03-38.71h56.96c1.33,12.84,6.14,23.07,14.43,30.69,8.28,7.62,18.85,11.43,31.69,11.43,7.48,0,14.24-1.54,20.25-4.61,6.02-3.07,11.09-7.08,15.25-12.03,4.14-4.95,7.35-10.69,9.63-17.24,2.27-6.55,3.41-13.3,3.41-20.25s-1.07-14.04-3.21-20.46c-2.13-6.42-5.35-12.03-9.63-16.85-4.28-4.81-9.36-8.55-15.24-11.23-5.89-2.66-12.7-4-20.46-4-10.16,0-18.45,1.8-24.87,5.42-6.41,3.6-12.43,9.29-18.05,17.05h-51.34l27.68-155.22h156.82v46.92h-115.91Z" fill="#fff" stroke-width="0"/>
</svg>