<?xml version="1.0" encoding="UTF-8"?>
<svg id="Capa_1" data-name="Capa 1" xmlns="http://www.w3.org/2000/svg" viewBox="0 0 583.15 582.02">
  <path d="m291.59,582.01c160.71,0,291-130.28,291-291S452.31,0,291.59,0,.59,130.29.59,291.01s130.29,291,291,291Z" stroke-width="0"/>
  <path d="m58.79,288.88s87.3-174.6,232.8-174.6,232.8,174.6,232.8,174.6c0,0-87.3,174.6-232.8,174.6S58.79,288.88,58.79,288.88Zm52.67,3.78c-.78-1.26-1.56-2.52-2.33-3.78l2.39-3.78c9.49-14.84,23.45-34.54,41.32-54.01,36.72-40.13,84.04-73.16,138.75-73.16s102.02,33.03,138.81,73.16c16.27,17.9,30.88,37.25,43.65,57.79-12.83,20.52-27.45,39.86-43.71,57.79-36.72,40.13-84.04,73.16-138.75,73.16s-102.02-33.03-138.81-73.16c-15.29-16.79-29.11-34.86-41.32-54.01Zm267.43-3.78c0,18.38-5.81,36.28-16.59,51.17-10.78,14.89-25.98,25.99-43.43,31.73-17.46,5.74-36.28,5.83-53.79.25-17.51-5.58-32.81-16.54-43.72-31.33-10.91-14.79-16.88-32.64-17.06-51.02-.17-18.38,5.45-36.34,16.08-51.33,10.63-14.99,25.72-26.24,43.12-32.16,17.4-5.91,36.22-6.19,53.79-.78-6.43,2.91-12.06,7.34-16.41,12.9-4.34,5.56-7.27,12.1-8.54,19.04-1.27,6.94-.83,14.09,1.28,20.83,2.1,6.74,5.81,12.87,10.8,17.86s11.12,8.7,17.86,10.8c6.74,2.1,13.89,2.54,20.83,1.28s13.48-4.2,19.04-8.54c5.56-4.35,9.99-9.98,12.9-16.41,2.55,8.33,3.85,16.99,3.84,25.7Z" fill="#f9f9f9" fill-rule="evenodd" stroke-width="0"/>
  <path d="m77.81,107.26h0c10.5-12.16,28.88-13.51,41.04-3.01l374.42,323.32c12.16,10.5,13.51,28.88,3.01,41.04h0c-10.5,12.16-28.88,13.51-41.04,3.01L80.82,148.3c-12.16-10.5-13.51-28.88-3.01-41.04Z" fill="#fff" stroke-width="0"/>
</svg>