<?xml version="1.0" encoding="UTF-8"?>
<svg id="Ruta_Expresa_Altocontraste" data-name="Ruta Expresa Altocontraste" xmlns="http://www.w3.org/2000/svg" viewBox="0 0 622 622.08">
  <defs>
    <style>
      .cls-1 {
        fill: #fff;
      }

      .cls-1, .cls-2 {
        stroke-width: 0px;
      }

      .cls-2 {
        fill: #231f20;
      }
    </style>
  </defs>
  <g id="Ruta_Roja" data-name="Ruta Roja">
    <g id="Circulo_externo" data-name="Circulo externo">
      <path class="cls-1" d="m311.11,582.08c-149.49,0-271.11-121.59-271.11-271.04S161.62,40,311.11,40s270.89,121.59,270.89,271.04-121.52,271.04-270.89,271.04Z"/>
      <path class="cls-2" d="m311.11,60c138.34,0,250.89,112.62,250.89,251.04s-112.55,251.04-250.89,251.04S60,449.46,60,311.04,172.65,60,311.11,60m0-40C150.61,20,20,150.55,20,311.04s130.61,291.04,291.11,291.04,290.89-130.55,290.89-291.04S471.5,20,311.11,20h0Z"/>
    </g>
    <path class="cls-2" d="m184.84,486.97V135.11h143.4c64.39,0,96.59,31.21,96.59,93.63,0,49.61-20.04,77.53-60.12,83.78v.99c21.35,1.97,36.3,9.53,44.84,22.67,8.54,12.81,12.81,31.54,12.81,56.18v30.06c0,27.93,1.48,44.19,4.44,48.79,1.64,2.63,5.09,6.24,10.35,10.84v4.93h-97.57c-5.91-12.48-8.87-34.82-8.87-67.02v-23.65c0-19.71-2.3-33.02-6.9-39.92-4.27-6.9-11.99-10.35-23.16-10.35h-24.15v140.94h-91.66Zm91.66-285.82v82.79h18.23c25.63,0,38.44-13.96,38.44-41.89s-12.98-40.9-38.93-40.9h-17.74Z"/>
  </g>
</svg>