<?xml version="1.0" encoding="UTF-8"?>
<svg id="Estrellitas" xmlns="http://www.w3.org/2000/svg" viewBox="0 0 622 622.08">
  <defs>
    <style>
      .cls-1 {
        stroke-width: 0px;
      }
    </style>
  </defs>
  <path class="cls-1" d="m571.06,219.05l-164.57-14.28-64.26-151.31c-11.56-27.54-51-27.54-62.56,0l-64.26,151.65-164.23,13.94c-29.92,2.38-42.16,39.78-19.38,59.5l124.79,108.12-37.4,160.49c-6.8,29.24,24.82,52.36,50.66,36.72l141.11-85,141.11,85.34c25.84,15.64,57.46-7.48,50.66-36.72l-37.4-160.83,124.79-108.12c22.78-19.72,10.88-57.12-19.04-59.5Zm-260.11,216.25l-127.85,77.18,34-145.53-112.89-97.92,148.93-12.92,57.8-137.03,58.14,137.37,148.93,12.92-112.89,97.92,34,145.53-128.19-77.52Z"/>
</svg>