<?xml version="1.0" encoding="UTF-8"?>
<svg id="Capa_1" data-name="Capa 1" xmlns="http://www.w3.org/2000/svg" viewBox="0 0 583.15 582.48">
  <circle cx="291.59" cy="291.24" r="291" stroke-width="0"/>
  <g>
    <g>
      <path d="m188.67,434.58c-25.53,9.86-44.16,0-44.16,0,8.28,33.12,33.12,35.94,53.13,37.35,20.01,1.41,27.6-11.98,26.91-21.84-.69-9.86-10.35-25.37-35.88-15.5Z" fill="#fff" stroke-width="0"/>
      <path d="m255.6,431.42c-13.8,5.97-24.15,8.79-24.15,8.79,0,0,8.28,9.86,4.14,21.14,13.8,3.52,26.22,4.93,26.22,4.93,0,0,13.8-24.64-6.21-34.86Z" fill="#fff" stroke-width="0"/>
      <path d="m270.1,431.42s13.8,22.88,0,34.86c46.92-7.05,155.64-18.32,163.39-24.66,8.43-10.2-163.39-10.2-163.39-10.2Z" fill="#fff" stroke-width="0"/>
    </g>
    <path d="m291.59,118.45c-97.71,0-176.92,63.57-176.92,141.99s79.21,141.99,176.92,141.99,176.92-63.57,176.92-141.99-79.21-141.99-176.92-141.99Zm-43.29,149.83c-9.16,3.17-18.38,6.23-27.64,9.16,4.14-.96,8.3-1.9,12.44-2.86,5.14-1.17,8.68,6.3,3.7,8.94-4.43,2.37-8.89,4.62-13.4,6.77,5.23.08,6.75,7.36,1.4,9.53-5.58,2.25-11.12,4.54-16.64,6.91,2.17-.39,4.33-.84,6.5-1.39,6-1.37,8.55,7.93,2.55,9.43-3.3.76-6.46,1.76-9.47,3.01,3.53.76,6.25,4.93,2.72,7.97-2.66,2.29-5.35,4.6-8.01,6.89.75,1.12,1.48,2.21,2.22,3.33,3.49,5.21-4.83,10.1-8.28,4.93-1.5-2.21-2.97-4.44-4.47-6.67-.86-1.27-.84-3.29-.13-4.76-1.38-.16-2.8-.35-4.24-.69-3.39-.76-4.77-5.81-2.11-8.18,1.02-.9,2.05-1.76,3.09-2.58-1.71-.06-3.41-.12-5.14-.25-4.37-.33-7-6.77-2.42-9.12,1.34-.69,2.7-1.31,4.06-1.98-1.42.23-2.84.49-4.26.72-6,1.04-8.51-7.48-2.55-9.43,2.26-.74,4.5-1.51,6.73-2.29-5.37,1.23-10.73,2.47-16.1,3.7-3.85.9-7.8-3.41-5.41-7.18,2.76-4.36,6.34-7.4,10.39-9.69-2.61.45-5.19.92-7.8,1.35-6.06,1.02-8.41-7.28-2.55-9.44,1.23-.45,2.43-.9,3.64-1.35-3.7.53-7.42,1.02-11.14,1.45-5.92.69-5.69-7.71-1.27-9.61,4.49-1.92,8.99-3.86,13.47-5.77-3.26.78-6.52,1.61-9.78,2.37-5.08,1.19-8.82-6.56-3.7-8.94,6.98-3.25,13.92-6.56,20.84-9.9-2.89.47-5.81.9-8.74,1.25-4.81.59-6.38-6.95-2.42-9.12,3.64-2,7.34-3.93,11.02-5.83h-1.55c-3.89-.02-6.69-5.54-3.39-8.36,2.8-2.39,5.71-4.56,8.7-6.56-1.36-1.78-1.55-4.56.19-6.6,1.94-2.27,3.99-4.38,6.1-6.4-4.47-.68-4.06-6.85-1.13-8.95,4.33-3.09,8.36-6.13,7.74-12.1-.65-6.26,8.93-6.2,9.58,0,.4,3.88-.42,7.16-2.01,10.02.21-.1.4-.18.61-.27,1.19-.7,2.38-1.37,3.58-2.04,5.46-2.96,9.99,5.03,4.83,8.46-1.17.78-2.34,1.43-3.53,2.04-1.42.86-2.8,1.78-4.16,2.72,2.51-.67,5-1.35,7.49-2.02,5.1-1.37,8.78,6.71,3.7,8.95-7.63,3.35-15.26,6.73-22.43,10.92,3.14-.25,6.27-.65,9.33-1.29,6.46-2.98,12.98-5.85,19.57-8.57,5.48-2.25,7.65,5.97,3.7,8.95-2.07,1.57-4.22,2.88-6.42,4.03,1.97-.76,3.95-1.53,5.9-2.33,5.1-2.09,8.45,6.48,3.7,8.95-7.65,3.97-15.35,7.89-23.06,11.74,9.45-2.56,18.88-5.17,28.27-7.91,6.13-1.78,8.05,7.09,2.55,9.43-12.31,5.29-24.63,10.55-36.95,15.84,15.14-3.58,30.07-8.14,44.72-13.66,5.88-2.21,8.11,7.09,2.55,9.43-9.39,3.95-18.84,7.79-28.31,11.59,10.18-1.98,20.34-4.01,30.5-6.15,6.06-1.27,8.4,7.42,2.47,9.45Zm187.58,0c-9.16,3.17-18.38,6.23-27.64,9.16,4.14-.96,8.3-1.9,12.44-2.86,5.14-1.17,8.68,6.3,3.7,8.94-4.43,2.37-8.89,4.62-13.4,6.77,5.23.08,6.75,7.36,1.4,9.53-5.58,2.25-11.12,4.54-16.64,6.91,2.17-.39,4.33-.84,6.5-1.39,6-1.37,8.55,7.93,2.55,9.43-3.3.76-6.46,1.76-9.47,3.01,3.53.76,6.25,4.93,2.72,7.97-2.66,2.29-5.35,4.6-8.01,6.89.75,1.12,1.48,2.21,2.22,3.33,3.49,5.21-4.83,10.1-8.28,4.93-1.5-2.21-2.97-4.44-4.47-6.67-.86-1.27-.84-3.29-.13-4.76-1.38-.16-2.8-.35-4.24-.69-3.39-.76-4.77-5.81-2.11-8.18,1.02-.9,2.05-1.76,3.09-2.58-1.71-.06-3.41-.12-5.14-.25-4.37-.33-7-6.77-2.42-9.12,1.34-.69,2.7-1.31,4.06-1.98-1.42.23-2.84.49-4.26.72-6,1.04-8.51-7.48-2.55-9.43,2.26-.74,4.5-1.51,6.73-2.29-5.37,1.23-10.73,2.47-16.1,3.7-3.85.9-7.8-3.41-5.41-7.18,2.76-4.36,6.34-7.4,10.39-9.69-2.61.45-5.19.92-7.8,1.35-6.06,1.02-8.41-7.28-2.55-9.44,1.23-.45,2.43-.9,3.64-1.35-3.7.53-7.42,1.02-11.14,1.45-2.6.3-4.01-1.15-4.41-3.03-.54.74-1.26,1.36-2.16,1.72-4.58,1.82-9.16,3.66-13.76,5.46,1.46-.16,2.89-.35,4.35-.51,5.5-.59,6.33,8.22,1.26,9.61-8.07,2.21-16.1,4.58-24.07,7.15,5.06-.8,10.16-1.49,15.3-2.04,4.75-.51,6.5,7.01,2.42,9.12-6.94,3.62-15.41,4.68-23.14,6.99,5.04.14,10.08.57,15.16,1.27,4.03.57,4.7,7.3,1.15,8.94-3.43,1.61-6.84,3.19-10.27,4.8,3.79,1.47,4.01,8.14-.54,9.32-1.27,2.11-2.55,4.25-3.81,6.36,1.55,6.11-7.69,8.69-9.24,2.6-.8-3.15-.71-6.2.15-8.91-2.18-.12-4.37-.27-6.57-.51-4.16-.45-7.21-6.89-2.42-9.12,3.62-1.68,7.27-3.39,10.89-5.07-4.45.08-8.87.39-13.34.94-4.56.55-5.69-5.52-3.39-8.36.17-.21.36-.39.54-.59-.71.2-1.4.37-2.11.57-4.27,1.19-7.15-3.45-5.41-7.18,1.71-3.68,4.22-6.34,7.17-8.46-1.95.39-3.91.72-5.85,1.13-6,1.25-8.55-7.73-2.55-9.43,9.09-2.58,18.06-5.54,26.95-8.71-10.87,1.92-21.68,4.23-32.43,6.95-6,1.45-8.55-7.91-2.55-9.44,15.41-3.72,30.48-8.46,45.2-14.21-16.87,4.21-33.29,13.19-50.56,14.45-4.56.33-6.79-7.18-2.42-9.12,4.14-1.84,8.26-3.66,12.4-5.5-3.49.41-6.96.8-10.45,1.17-5.87.63-5.79-7.77-1.27-9.61,5.04-2.06,10.08-4.11,15.12-6.17-1.65.37-3.28.72-4.91,1.08-6.04,1.31-8.41-7.48-2.55-9.43,2.49-.84,4.95-1.74,7.38-2.68-3.41-1.29-4.56-6.17-.88-8.73,5-3.48,9.99-6.95,14.99-10.43-1.03-1.88-1.02-4.58.36-6.38,2.13-2.78,4.24-5.54,6.34-8.32-.9-.1-1.8-.18-2.74-.31-2.99-.45-4.41-4.78-2.86-7.18,3.28-5.03,5.42-10.12,6.75-16.03,1.36-6.15,10.6-3.52,9.24,2.6-.9,4.05-2.15,7.77-3.81,11.35.73-.1,1.46-.23,2.19-.41,4.95-.94,7.59,4.33,4.66,8.18-.86,1.14-1.74,2.29-2.61,3.43,1.15-.43,2.32-.84,3.49-1.27,5.44-1.96,7.92,6.01,3.7,8.95-4.35,3.03-8.72,6.07-13.07,9.1,6.5-1.98,12.9-4.23,19.24-6.77,5.16-2.07,8.34,6.36,3.7,8.95-3.7,2.07-7.42,4.13-11.16,6.15,5.06-1.12,10.14-2.21,15.22-3.33,6.15-1.35,8.18,7.14,2.55,9.43-9.62,3.93-19.26,7.87-28.9,11.8,3.55-.88,7.07-1.88,10.54-3.01,6.88-3.05,13.74-6.11,20.62-9.16,5.5-2.45,10.33,5.25,4.83,8.46-5.16,3.01-10.48,5.48-15.91,7.59,5.85-.76,11.85-.78,18.09.39,3.97.74,4.77,7.2,1.15,8.94-3.34,1.61-6.67,3.13-10.04,4.64,3.74-.39,7.46-.76,11.19-1.08,2.56-.21,4.01,1.25,4.43,3.12.54-.79,1.26-1.44,2.16-1.83,4.49-1.92,8.99-3.86,13.47-5.77-3.26.78-6.52,1.61-9.78,2.37-5.08,1.19-8.82-6.56-3.7-8.94,6.98-3.25,13.92-6.56,20.83-9.9-2.89.47-5.81.9-8.74,1.25-4.81.59-6.38-6.95-2.41-9.12,3.64-2,7.34-3.93,11.02-5.83h-1.55c-3.89-.02-6.69-5.54-3.39-8.36,2.8-2.39,5.71-4.56,8.7-6.56-1.36-1.78-1.55-4.56.19-6.6,1.94-2.27,3.99-4.38,6.1-6.4-4.47-.68-4.06-6.85-1.13-8.95,4.33-3.09,8.36-6.13,7.74-12.1-.65-6.26,8.93-6.2,9.58,0,.4,3.88-.42,7.16-2.01,10.02.21-.1.4-.18.61-.27,1.19-.7,2.38-1.37,3.58-2.04,5.46-2.96,9.99,5.03,4.83,8.46-1.17.78-2.34,1.43-3.53,2.04-1.42.86-2.8,1.78-4.16,2.72,2.51-.67,5-1.35,7.49-2.02,5.1-1.37,8.78,6.71,3.7,8.95-7.63,3.35-15.26,6.73-22.43,10.92,3.14-.25,6.27-.65,9.34-1.29,6.46-2.98,12.98-5.85,19.57-8.57,5.48-2.25,7.65,5.97,3.7,8.95-2.07,1.57-4.22,2.88-6.42,4.03,1.97-.76,3.95-1.53,5.9-2.33,5.1-2.09,8.45,6.48,3.7,8.95-7.65,3.97-15.35,7.89-23.06,11.74,9.45-2.56,18.88-5.17,28.27-7.91,6.13-1.78,8.05,7.09,2.55,9.43-12.31,5.29-24.63,10.55-36.95,15.84,15.14-3.58,30.07-8.14,44.72-13.66,5.88-2.21,8.11,7.09,2.55,9.43-9.39,3.95-18.84,7.79-28.31,11.59,10.18-1.98,20.34-4.01,30.5-6.15,6.06-1.27,8.4,7.42,2.47,9.45Z" fill="#fff" stroke-width="0"/>
  </g>
</svg>