<?xml version="1.0" encoding="UTF-8"?>
<svg id="Capa_1" data-name="Capa 1" xmlns="http://www.w3.org/2000/svg" viewBox="0 0 583.15 582.48">
  <circle cx="291.59" cy="291.24" r="291" stroke-width="0"/>
  <path d="m247.6,137.25v22h87.99v-22c0-12.15,9.83-22,22-22s22,9.85,22,22v22h33c18.22,0,33,14.77,33,33v33H137.61v-33c0-18.22,14.77-33,33-33h33v-22c0-12.15,9.83-22,22-22s22,9.85,22,22Zm-109.99,109.99h307.97v186.98c0,18.22-14.78,33-33,33h-241.98c-18.22,0-33-14.78-33-33v-186.98Zm44,76.99c0,6.05,4.92,11,11,11h22c6.05,0,11-4.95,11-11v-22c0-6.05-4.95-11-11-11h-22c-6.08,0-11,4.95-11,11v22Zm87.99,0c0,6.05,4.95,11,11,11h22c6.05,0,11-4.95,11-11v-22c0-6.05-4.95-11-11-11h-22c-6.05,0-11,4.95-11,11v22Zm98.99-33c-6.05,0-11,4.95-11,11v22c0,6.05,4.95,11,11,11h22c6.05,0,11-4.95,11-11v-22c0-6.05-4.95-11-11-11h-22Zm-186.98,120.99c0,6.05,4.92,11,11,11h22c6.05,0,11-4.95,11-11v-22c0-6.05-4.95-11-11-11h-22c-6.08,0-11,4.95-11,11v22Zm98.99-33c-6.05,0-11,4.95-11,11v22c0,6.05,4.95,11,11,11h22c6.05,0,11-4.95,11-11v-22c0-6.05-4.95-11-11-11h-22Zm76.99,33c0,6.05,4.95,11,11,11h22c6.05,0,11-4.95,11-11v-22c0-6.05-4.95-11-11-11h-22c-6.05,0-11,4.95-11,11v22Z" fill="#fff" stroke-width="0"/>
</svg>