<?xml version="1.0" encoding="UTF-8"?>
<svg id="Capa_1" data-name="Capa 1" xmlns="http://www.w3.org/2000/svg" viewBox="0 0 583.15 582.48">
  <circle cx="291.59" cy="291.24" r="291" stroke-width="0"/>
  <path id="Compartir_IOS" data-name="Compartir IOS" d="m387.78,454.05h-191.86c-31.74,0-57.56-25.82-57.56-57.56v-95.94c0-10.6,8.59-19.19,19.19-19.19s19.19,8.59,19.19,19.19v95.94c0,10.58,8.61,19.19,19.19,19.19h191.86c10.58,0,19.19-8.61,19.19-19.19v-95.94c0-10.6,8.59-19.19,19.19-19.19s19.19,8.59,19.19,19.19v95.94c0,31.74-25.82,57.56-57.56,57.56h-.01Zm-95.94-105.52c-10.6,0-19.19-8.59-19.19-19.19v-135.95l-24.8,24.8c-7.49,7.49-19.64,7.49-27.14,0-7.49-7.49-7.49-19.64,0-27.14l57.56-57.56c7.49-7.49,19.64-7.49,27.14,0l57.56,57.56c7.49,7.49,7.49,19.64,0,27.14-7.49,7.49-19.64,7.49-27.14,0l-24.8-24.8v135.95c0,10.6-8.59,19.19-19.19,19.19h0Z" fill="#fff" stroke-width="0"/>
</svg>