<?xml version="1.0" encoding="UTF-8"?>
<svg id="Capa_1" data-name="Capa 1" xmlns="http://www.w3.org/2000/svg" viewBox="0 0 583.15 582.48">
  <circle cx="291.59" cy="291.24" r="291" stroke-width="0"/>
  <path id="Compartir_Android" data-name="Compartir Android" d="m437.84,183.51c0,30.83-24.99,55.82-55.83,55.82-14.67,0-28.75-5.78-39.2-16.08l-88.6,48.82c4.36,12.17,4.36,25.48-.02,37.65l88.56,48.78c21.94-21.66,57.29-21.43,78.95.51,21.66,21.94,21.43,57.29-.51,78.95s-57.29,21.43-78.95-.51c-12.59-12.76-18.29-30.78-15.33-48.46l-94.09-51.82c-25.57,17.22-60.26,10.45-77.48-15.13s-10.45-60.26,15.13-77.48c18.87-12.71,43.57-12.69,62.43.05l94.03-51.84c-5-30.42,15.61-59.14,46.04-64.13,30.42-5,59.14,15.61,64.13,46.04.48,2.92.73,5.88.74,8.84Z" fill="#fff" fill-rule="evenodd" stroke-width="0"/>
</svg>