<?xml version="1.0" encoding="UTF-8"?>
<svg id="Capa_1" data-name="Capa 1" xmlns="http://www.w3.org/2000/svg" viewBox="0 0 583.15 582.48">
  <circle cx="291.59" cy="291.24" r="291" stroke-width="0"/>
  <path d="m435.05,457.89H148.14c-8.8,0-15.94-7.14-15.94-15.94s7.14-15.94,15.94-15.94h286.92c8.8,0,15.94,7.14,15.94,15.94s-7.14,15.94-15.94,15.94Zm-47.82-47.82c-8.8,0-15.94-7.14-15.94-15.94v-127.52c0-8.8,7.14-15.94,15.94-15.94s15.94,7.14,15.94,15.94v127.52c0,8.8-7.14,15.94-15.94,15.94Zm-63.76,0c-8.8,0-15.94-7.14-15.94-15.94v-127.52c0-8.8,7.14-15.94,15.94-15.94s15.94,7.14,15.94,15.94v127.52c0,8.8-7.14,15.94-15.94,15.94Zm-63.76,0c-8.8,0-15.94-7.14-15.94-15.94v-127.52c0-8.8,7.14-15.94,15.94-15.94s15.94,7.14,15.94,15.94v127.52c0,8.8-7.14,15.94-15.94,15.94Zm-63.76,0c-8.8,0-15.94-7.14-15.94-15.94v-127.52c0-8.8,7.14-15.94,15.94-15.94s15.94,7.14,15.94,15.94v127.52c0,8.8-7.14,15.94-15.94,15.94Zm223.16-175.34h-255.04c-7.11,0-13.36-4.71-15.32-11.55-1.96-6.84.84-14.14,6.87-17.91l120.76-75.48c3.2-2,5.96-3.73,9.91-4.62,3.47-.79,7.13-.79,10.6,0,3.94.9,6.71,2.62,9.91,4.62l120.76,75.47c6.03,3.77,8.83,11.08,6.87,17.91-1.96,6.84-8.21,11.55-15.32,11.55Zm-199.46-31.88h143.88l-71.94-44.96-71.94,44.96Z" fill="#fff" stroke-width="0"/>
</svg>