<?xml version="1.0" encoding="UTF-8"?>
<svg id="Capa_1" data-name="Capa 1" xmlns="http://www.w3.org/2000/svg" viewBox="0 0 583.15 582.48">
  <circle cx="291.59" cy="291.24" r="291" stroke-width="0"/>
  <g id="ISOTIPO_METRO" data-name="ISOTIPO METRO">
    <path d="m291.59,440.87c107.51,0,189.35-69.45,189.35-149.23s-81.83-149.23-189.35-149.23-189.35,69.45-189.35,149.23,81.83,149.23,189.35,149.23Zm0,23.77c119.36,0,216.12-77.63,216.12-173.4s-96.76-173.4-216.12-173.4-216.12,77.63-216.12,173.4,96.76,173.4,216.12,173.4Z" fill="#fff" fill-rule="evenodd" stroke-width="0"/>
    <path d="m187.81,199.23l51.91,89.66-51.91,89.66-51.91-89.66,51.91-89.66Z" fill="#fff" stroke-width="0"/>
    <path d="m291.63,199.23l51.91,89.66-51.91,89.66-51.91-89.66,51.91-89.66Z" fill="#fff" stroke-width="0"/>
    <path d="m395.4,199.23l51.91,89.66-51.91,89.66-51.91-89.66,51.91-89.66Z" fill="#fff" stroke-width="0"/>
  </g>
</svg>