<?xml version="1.0" encoding="UTF-8"?>
<svg id="BiblioMetro" xmlns="http://www.w3.org/2000/svg" viewBox="0 0 584.73 582.73">
  <defs>
    <style>
      .cls-1, .cls-2 {
        stroke-width: 0px;
      }

      .cls-2 {
        fill: #fff;
      }
    </style>
  </defs>
  <g id="Fondo">
    <path class="cls-1" d="m292.48,582.28C131.97,582.28,1.37,451.72,1.37,291.24S131.97.2,292.48.2s290.89,130.55,290.89,291.04-130.5,291.04-290.89,291.04Z"/>
  </g>
  <g id="Libro">
    <path class="cls-2" d="m420.79,143.93c-4.17-2.96-9.53-3.72-14.35-2.02l-179.51,62.82c-22.64-1.07-38.05-7.28-48.68-14.19-3.2-2.08-3.89-3.3-3.89-3.3-1.92-1.92-2.66-4.57-2.11-7.31.55-2.74,2.51-4.98,5.14-5.9l160.65-56.22c2.41-.85,5.09-.47,7.17,1,.18.14.35.32.52.46l11.76-4.25c-.73-4.03-2.91-7.68-6.32-10.08-4.17-2.97-9.53-3.72-14.35-2.03l-168.94,59.13c-6.33,2.22-10.57,8.2-10.57,14.9v264.52s11.13,36.22,69.63,39l179.37-62.78c12.66-4.43,21.15-16.39,21.15-29.81v-231.06c0-5.12-2.48-9.92-6.65-12.88Z"/>
    <polygon class="cls-2" points="194.45 180.56 201.57 183.96 363.89 127.14 356.75 123.74 194.45 180.56"/>
    <polygon class="cls-2" points="221.17 193.2 383.28 136.45 376.18 133.04 214.04 189.8 221.17 193.2"/>
  </g>
</svg>