<?xml version="1.0" encoding="UTF-8"?>
<svg id="Capa_1" data-name="Capa 1" xmlns="http://www.w3.org/2000/svg" viewBox="0 0 583.15 582.48">
  <circle cx="291.59" cy="291.24" r="291" stroke-width="0"/>
  <g>
    <path d="m264.59,147.87c3.04.61,6.1,1.14,9.12,1.84,13.31,3.1,23.5,10.66,31.03,21.88,9.14,13.61,13.52,29.03,16.8,44.82.96,4.63,1.71,9.31,2.36,13.99.32,2.27,1.23,2.97,3.59,3.12,7.71.52,15.51.78,23.07,2.25,19.01,3.7,31.87,15.11,39.19,32.9,5.51,13.41,8.55,27.52,8.85,41.83.87,40.99.91,82,1.27,122.99,0,.37-.11.73-.22,1.36h-40.36c0-1.5,0-2.96,0-4.42-.07-35.03.23-70.06-.42-105.08-.22-11.85-2.2-23.79-4.56-35.45-1.88-9.29-7.18-16.77-17.43-18.98-2.87-.62-5.83-.77-8.94-1.16,0,2.9-.05,5.24,0,7.57.48,19.68,1.37,39.38-1.14,59-1.46,11.42-3.96,22.58-9.19,32.94-8.43,16.73-22.04,25.56-40.86,26.32-13.35.55-25.93-1.71-36.64-10.32-10.47-8.42-15.68-19.89-17.81-32.76-4.27-25.74-1.37-50.47,12.27-73.2,11.09-18.48,27.51-30.65,47.63-37.95,2.93-1.07,3.91-2.44,3.36-5.39-2.03-11-3.27-22.19-6.08-32.98-4.65-17.87-18.59-22.14-34.92-16.35-13.15,4.66-22.65,14.36-31.16,24.97-15.56,19.39-25.86,41.61-34.34,64.75-12.22,33.33-19.99,67.79-25.43,102.78-2.73,17.59-4.68,35.3-6.99,52.96-.11.86-.33,1.7-.54,2.77h-40.47c0-1.46,0-2.91,0-4.35-.37-64.19-.74-128.39-1.13-192.58-.01-2.1-.28-4.2-.43-6.3,0-26.93,0-53.86,0-80.79h41.07v121.44c.31.02.63.04.94.06.5-1.38,1.02-2.76,1.51-4.15,9.36-26.4,20.73-51.79,37.38-74.54,11.01-15.04,23.62-28.59,40.48-37.07,7.78-3.92,16.19-7.29,24.86-8.73,4.69-.78,9.5,0,14.25,0Zm22.65,130.6c-1.33.75-2.4,1.27-3.38,1.93-7.18,4.88-12.62,11.25-16.27,19.12-5.64,12.18-6.91,25.14-6.24,38.3.25,4.91,1.21,9.86,2.49,14.62,1.18,4.39,4.59,6.68,9.24,6.8,4.72.12,8.44-1.77,10.06-6.25,1.42-3.95,2.93-8.11,3.07-12.23.7-20.14.97-40.3,1.37-60.45,0-.45-.17-.91-.35-1.84Z" fill="#fff" stroke-width="0"/>
    <path d="m476.7,434.95h-40.06v-202.2h40.06v202.2Z" fill="#fff" stroke-width="0"/>
    <circle cx="455.88" cy="173.49" r="23.21" fill="#fff" stroke-width="0"/>
  </g>
</svg>