<?xml version="1.0" encoding="UTF-8"?>
<svg id="Capa_1" data-name="Capa 1" xmlns="http://www.w3.org/2000/svg" viewBox="0 0 583.15 582.48">
  <circle cx="291.59" cy="291.24" r="291" stroke-width="0"/>
  <path d="m291.59,482.46c-86.67-116.46-130-199.31-130-248.59,0-35.5,13.7-69.55,38.08-94.65,24.38-25.1,57.45-39.21,91.92-39.21s67.54,14.1,91.92,39.21c24.38,25.1,38.08,59.15,38.08,94.65,0,49.28-43.33,132.14-130,248.59Zm0-172.1c19.7,0,38.6-8.06,52.53-22.4,13.93-14.34,21.76-33.8,21.76-54.09s-7.83-39.74-21.76-54.09c-13.93-14.34-32.83-22.4-52.53-22.4s-38.6,8.06-52.53,22.4c-13.93,14.34-21.76,33.8-21.76,54.09s7.83,39.74,21.76,54.09c13.93,14.34,32.83,22.4,52.53,22.4h0Z" fill="#fff" stroke-width="0"/>
</svg>