<?xml version="1.0" encoding="UTF-8"?>
<svg id="Estado_de_la_red" data-name="Estado de la red" xmlns="http://www.w3.org/2000/svg" viewBox="0 0 585.11 585.11">
  <defs>
    <style>
      .cls-1, .cls-2, .cls-3 {
        stroke-width: 0px;
      }

      .cls-2, .cls-3 {
        fill: #fff;
      }

      .cls-3 {
        fill-rule: evenodd;
      }
    </style>
  </defs>
  <circle class="cls-2" cx="292.55" cy="292.55" r="291" />
  <circle class="cls-1" cx="292.55" cy="292.55" r="276.32" fill="#0C9445" />
  <path class="cls-3" d="m457.16,211.17c3.04-3.48,5.35-7.52,6.81-11.9,1.45-4.38,2.01-9.01,1.65-13.61-.36-4.6-1.64-9.09-3.76-13.19-2.12-4.1-5.04-7.74-8.59-10.69-3.55-2.96-7.65-5.17-12.06-6.52-4.41-1.35-9.06-1.8-13.65-1.32-4.59.47-9.04,1.86-13.09,4.08-4.05,2.22-7.61,5.23-10.48,8.84l-148.88,178.63-77.04-77.07c-6.53-6.31-15.28-9.8-24.35-9.72-9.08.08-17.76,3.72-24.18,10.14s-10.06,15.1-10.14,24.18c-.08,9.08,3.41,17.82,9.72,24.35l103.87,103.87c3.4,3.4,7.48,6.05,11.96,7.79,4.48,1.74,9.28,2.52,14.09,2.3,4.8-.22,9.51-1.43,13.82-3.57,4.31-2.14,8.13-5.15,11.2-8.84l173.12-207.74Z"/>
</svg>