<?xml version="1.0" encoding="UTF-8"?>
<svg id="Capa_1" data-name="Capa 1" xmlns="http://www.w3.org/2000/svg" viewBox="0 0 622 622.08">
  <defs>
    <style>
      .cls-1 {
        fill: #fff;
        stroke-width: 0px;
      }
    </style>
  </defs>
  <g id="ESTADO_RED" data-name="ESTADO RED">
    <g>
      <path class="cls-1" d="m311.11,582.08c-149.49,0-271.11-121.59-271.11-271.04S161.62,40,311.11,40s270.89,121.59,270.89,271.04-121.52,271.04-270.89,271.04Z"/>
      <path class="cls-1" d="m311.11,60c138.34,0,250.89,112.62,250.89,251.04s-112.55,251.04-250.89,251.04S60,449.46,60,311.04,172.65,60,311.11,60m0-40C150.61,20,20,150.55,20,311.04s130.61,291.04,291.11,291.04,290.89-130.55,290.89-291.04S471.5,20,311.11,20h0Z"/>
    </g>
    <path class="cls-1" d="m311,459.04c-81.74,0-148-66.25-148-147.97s66.27-148.03,148-148.03,148,66.28,148,148.03-66.29,147.97-148,147.97Z"/>
  </g>
</svg>