<?xml version="1.0" encoding="UTF-8"?>
<svg id="Quiebres_de_servicio" data-name="Quiebres de servicio" xmlns="http://www.w3.org/2000/svg" viewBox="0 0 622 622.08">
        <path  d="m311.11,582.08c-149.49,0-271.11-121.59-271.11-271.04S161.62,40,311.11,40s270.89,121.59,270.89,271.04-121.52,271.04-270.89,271.04Z"/>
        <path d="m311.11,60c138.34,0,250.89,112.62,250.89,251.04s-112.55,251.04-250.89,251.04S60,449.46,60,311.04,172.65,60,311.11,60m0-40C150.61,20,20,150.55,20,311.04s130.61,291.04,291.11,291.04,290.89-130.55,290.89-291.04S471.5,20,311.11,20h0Z"/>
    <path fill="#FFFFFF" d="m311,468.54c-86.98,0-157.5-70.5-157.5-157.47s70.52-157.53,157.5-157.53,157.5,70.54,157.5,157.53-70.55,157.47-157.5,157.47Z"/>
</svg>