<?xml version="1.0" encoding="UTF-8"?>
<svg id="Estado_de_la_red" data-name="Estado de la red" xmlns="http://www.w3.org/2000/svg" viewBox="0 0 585.11 585.11">
  <defs>
    <style>
      .cls-1, .cls-2, .cls-3 {
        stroke-width: 0px;
      }

      .cls-2, .cls-3 {
        fill: #fff;
      }

      .cls-3 {
        fill-rule: evenodd;
      }
    </style>
  </defs>
  <circle class="cls-2" cx="292.55" cy="292.55" r="291"/>
  <circle class="cls-1" cx="292.55" cy="292.55" r="259.51"/>
  <path class="cls-3" d="m436.98,221.15c2.67-3.05,4.7-6.6,5.97-10.45,1.27-3.85,1.76-7.91,1.45-11.94-.32-4.04-1.44-7.97-3.3-11.57-1.86-3.6-4.42-6.79-7.54-9.38-3.11-2.59-6.71-4.54-10.58-5.72-3.87-1.18-7.95-1.58-11.98-1.16-4.03.41-7.93,1.63-11.49,3.58-3.55,1.95-6.68,4.58-9.2,7.76l-130.63,156.72-67.59-67.62c-5.73-5.53-13.4-8.6-21.37-8.53-7.97.07-15.58,3.27-21.22,8.9s-8.83,13.25-8.9,21.22c-.07,7.97,2.99,15.64,8.53,21.37l91.14,91.14c2.99,2.98,6.56,5.31,10.49,6.84,3.93,1.52,8.14,2.21,12.36,2.02,4.21-.19,8.34-1.26,12.12-3.14,3.78-1.87,7.13-4.52,9.83-7.76l151.89-182.27Z"/>
</svg>