<?xml version="1.0" encoding="UTF-8"?>
<svg id="Estado_de_la_red" data-name="Estado de la red" xmlns="http://www.w3.org/2000/svg" viewBox="0 0 585.11 585.11">
  <defs>
    <style>
      .cls-1, .cls-2 {
        stroke-width: 0px;
      }

      .cls-2 {
        fill: #fff;
      }
    </style>
  </defs>
  <circle class="cls-2" cx="292.55" cy="292.55" r="291"/>
  <circle class="cls-1" cx="292.55" cy="292.55" r="259.51"/>
  <path class="cls-2" d="m215.89,164.76c-6.49-6.55-15.24-10.37-24.45-10.69-9.21-.31-18.2,2.91-25.12,9-6.92,6.1-11.24,14.61-12.09,23.79-.85,9.18,1.84,18.34,7.52,25.6l3.04,3.43,76.62,76.62-76.62,76.69c-6.55,6.49-10.37,15.24-10.69,24.45-.31,9.22,2.91,18.2,9,25.12,6.1,6.92,14.61,11.25,23.79,12.09,9.18.85,18.34-1.84,25.6-7.52l3.4-3,76.65-76.69,76.65,76.69c6.49,6.55,15.24,10.37,24.45,10.68,9.22.31,18.2-2.91,25.12-9,6.92-6.09,11.24-14.6,12.09-23.79.85-9.18-1.84-18.34-7.52-25.6l-3-3.43-76.69-76.65,76.69-76.65c6.55-6.49,10.38-15.24,10.68-24.45.31-9.22-2.91-18.2-9-25.12-6.09-6.92-14.6-11.24-23.78-12.09-9.18-.85-18.34,1.84-25.6,7.52l-3.43,3-76.65,76.69-76.65-76.69Z"/>
</svg>