<?xml version="1.0" encoding="UTF-8"?>
<svg id="MetroArte" xmlns="http://www.w3.org/2000/svg" viewBox="0 0 584.73 582.73">
  <defs>
    <style>
      .cls-1, .cls-2 {
        stroke-width: 0px;
      }

      .cls-2 {
        fill: #fff;
      }
    </style>
  </defs>
  <g id="Fondo">
    <path class="cls-1" d="m292.48,582.28C131.97,582.28,1.37,451.72,1.37,291.24S131.97.2,292.48.2s290.89,130.55,290.89,291.04-130.5,291.04-290.89,291.04Z"/>
  </g>
  <g>
    <path class="cls-2" d="m238.59,302.46c-28.34,0-54.68-3.75-76.75-10.27-22.06-6.54-39.89-15.72-51.24-27.38l-.23-.26v80.12c0,6.16,2.81,12.36,8.86,18.65,6.02,6.24,15.22,12.24,26.85,17.32,13.55,5.93,30.42,10.56,49.27,13.43v-49.77h12v51.31c8.54.91,17.39,1.45,26.5,1.59v-28.61h12v28.71h26.5v-53.01h12v53.01h26.5v-28.71h12v28.71h26.5v-53.01h12v53.01h26.5v-28.71h12v28.71h26.5v-53.01h12v53.01h25.02c6.06,0,10.98-4.92,10.98-10.98v-72.89c0-6.06-4.92-10.98-10.98-10.98h-224.79Z"/>
    <path class="cls-2" d="m320.64,290.45h46.17v-25.91l-.23.26c-7.56,7.79-18.02,14.43-30.68,19.96-4.75,2.07-9.91,3.94-15.26,5.68Z"/>
    <path class="cls-2" d="m146.08,273.78c23.27,10.18,56.16,16.69,92.51,16.68,27.27,0,52.57-3.63,73.35-9.77,20.78-6.1,36.99-14.84,46.02-24.22,6.05-6.29,8.85-12.49,8.86-18.65,0-6.17-2.81-12.36-8.86-18.65-6.02-6.24-15.22-12.24-26.85-17.32-23.27-10.19-56.16-16.69-92.51-16.68-27.27,0-52.57,3.63-73.35,9.77-20.78,6.1-36.99,14.84-46.02,24.22-6.05,6.29-8.86,12.48-8.86,18.65,0,6.16,2.81,12.36,8.86,18.65,6.02,6.24,15.22,12.24,26.85,17.32Zm50.93-40.26c2.62-2.77,8.13-5.87,15.43-7.99,7.3-2.16,16.37-3.48,26.15-3.47,13.03-.02,24.81,2.36,32.81,5.87,4,1.73,7.01,3.76,8.76,5.59,1.78,1.87,2.22,3.21,2.23,4.29,0,1.07-.45,2.42-2.23,4.29-2.61,2.77-8.12,5.87-15.43,7.99-7.3,2.16-16.36,3.47-26.14,3.47-13.04.01-24.82-2.36-32.81-5.87-4-1.73-7.01-3.76-8.77-5.59-1.78-1.87-2.22-3.22-2.22-4.29,0-1.08.44-2.42,2.22-4.29Z"/>
  </g>
</svg>