<?xml version="1.0" encoding="UTF-8"?>
<svg id="MetroArte" xmlns="http://www.w3.org/2000/svg" viewBox="0 0 584.73 582.73">
  <defs>
    <style>
      .cls-1, .cls-2 {
        stroke-width: 0px;
      }

      .cls-2 {
        fill: #fff;
        fill-rule: evenodd;
      }
    </style>
  </defs>
  <g id="Fondo">
    <path class="cls-1" d="m292.48,582.28C131.97,582.28,1.37,451.72,1.37,291.24S131.97.2,292.48.2s290.89,130.55,290.89,291.04-130.5,291.04-290.89,291.04Z"/>
  </g>
  <g id="Técnica">
    <g>
      <path class="cls-2" d="m432.47,205.16c-8.96,10.61-90.59,93.55-134.26,125.95l-17.91-17c25.3-49.25,92.98-143.01,101.9-153.6,11.67-13.81,39.95-23.83,55.05-13.12,19.85,14.04,6.86,43.93-4.79,57.78h0Z"/>
      <path class="cls-2" d="m264.49,331.81s-41.03-10.85-65.66,31.26c-24.61,42.11-48.07,27.69-58.62,24.08-10.55-3.61,8.83,41.82,24.12,47.77,16.42,6.39,103,19.79,120.24-70.6.35-1.98,1.41-29.08-20.08-32.52h0Z"/>
    </g>
  </g>
</svg>