<?xml version="1.0" encoding="UTF-8"?>
<svg id="MetroArte" xmlns="http://www.w3.org/2000/svg" viewBox="0 0 584.73 582.73">
  <defs>
    <style>
      .cls-1, .cls-2 {
        stroke-width: 0px;
      }

      .cls-2 {
        fill: #fff;
      }
    </style>
  </defs>
  <g id="Fondo">
    <path class="cls-1" d="m292.48,582.28C131.97,582.28,1.37,451.72,1.37,291.24S131.97.2,292.48.2s290.89,130.55,290.89,291.04-130.5,291.04-290.89,291.04Z"/>
  </g>
  <path class="cls-2" d="m162.55,142.88c-10.24,0-18.54,8.3-18.54,18.54v55.63c0,10.24,8.3,18.54,18.54,18.54s18.54-8.3,18.54-18.54c0-20.48,16.61-37.09,37.09-37.09h37.09v203.97c.01,10.24-8.28,18.55-18.53,18.56,0,0-.01,0-.02,0h-.02c-10.24,0-18.54,8.31-18.54,18.55,0,10.24,8.31,18.54,18.55,18.54h111.27c10.24,0,18.54-8.3,18.54-18.54s-8.3-18.54-18.54-18.54-18.54-8.3-18.54-18.54v-203.99h37.09c20.48,0,37.09,16.61,37.09,37.09,0,10.24,8.3,18.54,18.54,18.54s18.54-8.3,18.54-18.54v-55.63c0-10.24-8.3-18.54-18.54-18.54H162.55Z"/>
</svg>