<?xml version="1.0" encoding="UTF-8"?>
<svg id="Etiquetas_nuevo_y_pronto" data-name="Etiquetas nuevo y pronto" xmlns="http://www.w3.org/2000/svg" viewBox="0 0 585.11 585.11">
  <defs>
    <style>
      .cls-1, .cls-2 {
        stroke-width: 0px;
      }

      .cls-2 {
        fill: #fff;
      }
    </style>
  </defs>
  <path class="cls-1" d="m1.55,292.55c0-29.02,35.13-53.46,44.3-79.43,9.17-27.5-4.58-67.21,12.22-90.13,15.28-24.44,58.05-22.91,80.96-39.72,22.91-16.8,35.13-58.05,62.63-65.69,27.5-9.17,61.1,15.28,90.13,15.28s62.63-25.97,90.13-16.8c27.5,9.17,39.72,48.88,62.63,65.69,22.91,16.8,65.69,15.28,82.49,39.72,16.8,22.91,3.06,62.63,12.22,90.13,9.17,27.5,44.3,50.41,44.3,79.43s-35.13,53.46-44.3,79.43c-9.17,27.5,4.58,67.21-12.22,90.13-16.8,22.91-59.57,21.39-82.49,39.72-22.91,16.8-35.13,58.05-62.63,65.69-27.5,10.69-61.1-13.75-90.13-13.75s-62.63,25.97-90.13,16.8c-27.5-9.17-39.72-48.88-62.63-65.69-22.91-16.8-65.69-15.28-82.49-39.72-16.8-22.91-3.06-62.63-12.22-90.13-7.64-27.5-42.77-51.94-42.77-80.96Z"/>
  <g>
    <path class="cls-2" d="m59.59,240.62h27.5l35.13,62.63v-62.63h24.44v100.82h-27.5l-35.13-62.63v62.63h-24.44v-100.82Z"/>
    <path class="cls-2" d="m235.25,341.45h-22.91v-10.69c-1.53,3.06-4.58,6.11-9.17,9.17-4.58,3.06-9.17,3.06-13.75,3.06-10.69,0-16.8-3.06-21.39-7.64-4.58-4.58-6.11-13.75-6.11-22.91v-44.3h24.44v42.77c0,4.58,1.53,7.64,3.06,10.69,1.53,1.53,4.58,3.06,9.17,3.06,1.53,0,3.06,0,4.58-1.53,1.53,0,3.06-1.53,4.58-3.06s3.06-3.06,3.06-4.58c1.53-1.53,1.53-4.58,1.53-7.64v-39.72h24.44v73.32h-1.53Z"/>
    <path class="cls-2" d="m271.93,310.88c0,4.58,1.53,9.17,4.58,12.22,3.06,3.06,6.11,4.58,12.22,4.58,3.06,0,6.11,0,7.64-1.53,1.53-1.53,4.58-3.06,6.11-6.11h22.91c-1.53,7.64-6.11,13.75-13.75,18.33-6.11,4.58-13.75,6.11-22.91,6.11-12.22,0-21.39-3.06-29.02-10.69-7.64-7.64-10.69-16.8-10.69-29.02,0-6.11,1.53-10.69,3.06-15.28,1.53-4.58,4.58-9.17,9.17-12.22,3.06-3.06,7.64-6.11,12.22-7.64,4.58-1.53,9.17-3.06,15.28-3.06s12.22,1.53,16.8,3.06c4.58,1.53,9.17,4.58,12.22,9.17,3.06,3.06,6.11,7.64,7.64,13.75,1.53,4.58,3.06,10.69,3.06,16.8v3.06h-56.52v-1.53Zm30.55-13.75c0-4.58-1.53-7.64-4.58-10.69s-6.11-4.58-10.69-4.58-7.64,1.53-10.69,4.58c-3.06,3.06-4.58,6.11-4.58,10.69h30.55Z"/>
    <path class="cls-2" d="m381.9,341.45h-27.5l-24.44-73.32h24.44l13.75,48.88,13.75-48.88h24.44l-24.44,73.32Z"/>
    <path class="cls-2" d="m412.46,289.49c1.53-4.58,4.58-9.17,7.64-12.22,3.06-3.06,7.64-6.11,12.22-7.64,4.58-1.53,9.17-3.06,15.28-3.06s10.69,1.53,15.28,3.06c4.58,1.53,9.17,4.58,12.22,7.64,3.06,3.06,6.11,7.64,7.64,12.22,1.53,4.58,3.06,9.17,3.06,15.28s-1.53,10.69-3.06,15.28c-1.53,4.58-4.58,9.17-7.64,12.22-3.06,3.06-7.64,6.11-12.22,7.64-3.06,3.06-9.17,3.06-13.75,3.06s-10.69-1.53-15.28-3.06c-4.58-1.53-9.17-4.58-12.22-7.64s-6.11-7.64-7.64-12.22c-1.53-4.58-3.06-9.17-3.06-15.28s0-10.69,1.53-15.28Zm22.91,22.91c0,3.06,1.53,4.58,3.06,6.11l4.58,4.58c1.53,1.53,4.58,1.53,6.11,1.53,3.06,0,4.58,0,6.11-1.53l4.58-4.58c1.53-1.53,1.53-4.58,3.06-6.11,0-3.06,1.53-4.58,1.53-7.64s0-4.58-1.53-7.64c0-3.06-1.53-4.58-3.06-6.11l-4.58-4.58c-1.53-1.53-4.58-1.53-6.11-1.53-3.06,0-4.58,0-6.11,1.53l-4.58,4.58c-1.53,1.53-1.53,4.58-3.06,6.11,0,3.06-1.53,4.58-1.53,7.64s0,4.58,1.53,7.64Z"/>
    <path class="cls-2" d="m499.54,315.47h25.97v25.97h-25.97v-25.97Zm25.97-50.41l-6.11,42.77h-12.22l-6.11-42.77v-24.44h24.44v24.44Z"/>
  </g>
</svg>