<?xml version="1.0" encoding="UTF-8"?>
<svg id="Capa_1" data-name="Capa 1" xmlns="http://www.w3.org/2000/svg" viewBox="0 0 580 256.42">
  <defs>
    <style>
      .cls-1, .cls-2 {
        stroke-width: 0px;
      }

      .cls-2 {
        fill: #fff;
      }
    </style>
  </defs>
  <path class="cls-1" d="m451.79,256.42H128.21C58,256.42,0,198.42,0,128.21S58,0,128.21,0h323.58c70.21,0,128.21,58,128.21,128.21s-58,128.21-128.21,128.21Z"/>
  <g>
    <path class="cls-2" d="m72.5,80.13h24.42l32.05,58v-58h22.9v94.63h-24.42l-32.05-58v58h-22.89v-94.63Z"/>
    <path class="cls-2" d="m237.35,174.75h-21.37v-9.16c-1.53,3.05-4.58,6.11-9.16,7.63-4.58,1.53-7.63,3.05-12.21,3.05-9.16,0-15.26-3.05-19.84-7.63s-6.11-12.21-6.11-21.37v-41.21h22.89v39.68c0,4.58,1.53,7.63,3.05,9.16s4.58,3.05,7.63,3.05h4.58c1.53,0,3.05-1.53,4.58-3.05s1.53-3.05,3.05-4.58c0-1.53,1.53-4.58,1.53-7.63v-36.63h22.89v68.68h-1.53Z"/>
    <path class="cls-2" d="m270.92,145.76c0,4.58,1.53,9.16,4.58,10.68,3.05,3.05,6.11,4.58,10.68,4.58,3.05,0,6.11,0,7.63-1.53,3.05-1.53,4.58-3.05,4.58-6.11h21.37c-1.53,7.63-6.11,13.74-12.21,16.79-6.11,3.05-13.74,6.11-21.37,6.11-10.68,0-19.84-3.05-27.47-9.16-6.11-6.11-10.68-15.26-10.68-25.95,0-4.58,1.53-10.68,3.05-13.74,1.53-6.11,4.58-9.16,7.63-13.74,3.05-4.58,7.63-6.11,12.21-7.63,4.58-1.53,9.16-3.05,13.74-3.05,6.11,0,10.68,1.53,15.26,3.05,4.58,1.53,7.63,4.58,10.68,7.63,3.05,3.05,4.58,7.63,6.11,12.21s3.05,9.16,3.05,15.26v3.05h-48.84v1.53Zm27.47-12.21c0-4.58-1.53-7.63-4.58-10.68-3.05-3.05-6.11-4.58-9.16-4.58-4.58,0-7.63,1.53-9.16,4.58-3.05,3.05-4.58,6.11-4.58,10.68h27.47Z"/>
    <path class="cls-2" d="m373.18,174.75h-25.95l-22.89-68.68h22.89l12.21,45.79,12.21-45.79h24.42l-22.89,68.68Z"/>
    <path class="cls-2" d="m402.19,125.92c1.53-4.58,4.58-7.63,7.63-12.21,3.05-4.58,7.63-6.11,12.21-7.63,4.58-1.53,9.16-3.05,13.74-3.05s10.68,1.53,13.74,3.05,7.63,4.58,12.21,7.63c3.05,3.05,6.11,7.63,7.63,12.21,1.53,4.58,3.05,9.16,3.05,13.74s-1.53,9.16-3.05,13.74c-1.53,4.58-4.58,7.63-7.63,12.21-3.05,3.05-7.63,6.11-12.21,7.63-4.58,1.53-9.16,3.05-13.74,3.05s-10.68-1.53-13.74-3.05c-4.58-1.53-7.63-4.58-12.21-7.63-3.05-3.05-6.11-7.63-7.63-12.21-1.53-4.58-3.05-9.16-3.05-13.74s1.53-9.16,3.05-13.74Zm19.84,21.37c0,1.53,1.53,4.58,3.05,6.11,1.53,1.53,3.05,3.05,4.58,4.58,1.53,1.53,4.58,1.53,6.11,1.53,3.05,0,4.58,0,6.11-1.53,1.53-1.53,3.05-3.05,4.58-4.58,1.53-1.53,1.53-4.58,3.05-6.11v-12.21c0-1.53-1.53-4.58-3.05-6.11-1.53-1.53-3.05-3.05-4.58-4.58-1.53-1.53-4.58-1.53-6.11-1.53-3.05,0-4.58,0-6.11,1.53-1.53,1.53-3.05,1.53-4.58,3.05-1.53,1.53-1.53,4.58-3.05,6.11v13.74Z"/>
    <path class="cls-2" d="m483.08,150.34h24.42v24.42h-24.42v-24.42Zm22.89-45.79l-6.11,39.68h-10.68l-6.11-39.68v-24.42h22.89v24.42Z"/>
  </g>
</svg>