<?xml version="1.0" encoding="UTF-8"?>
<svg id="Etiquetas_nuevo_y_pronto" data-name="Etiquetas nuevo y pronto" xmlns="http://www.w3.org/2000/svg" viewBox="0 0 585.11 585.11">
  <defs>
    <style>
      .cls-1, .cls-2 {
        stroke-width: 0px;
      }

      .cls-2 {
        fill: #fff;
      }
    </style>
  </defs>
  <path class="cls-1" d="m1.55,292.55c0-29.02,35.13-53.46,44.3-79.43,9.17-27.5-4.58-67.21,12.22-90.13,15.28-24.44,58.05-22.91,80.96-39.72,22.91-16.8,35.13-58.05,62.63-65.69,27.5-9.17,61.1,15.28,90.13,15.28s62.63-25.97,90.13-16.8c27.5,9.17,39.72,48.88,62.63,65.69,22.91,16.8,65.69,15.28,82.49,39.72,16.8,22.91,3.06,62.63,12.22,90.13,9.17,27.5,44.3,50.41,44.3,79.43s-35.13,53.46-44.3,79.43c-9.17,27.5,4.58,67.21-12.22,90.13-16.8,22.91-59.57,21.39-82.49,39.72-22.91,16.8-35.13,58.05-62.63,65.69-27.5,10.69-61.1-13.75-90.13-13.75s-62.63,25.97-90.13,16.8c-27.5-9.17-39.72-48.88-62.63-65.69-22.91-16.8-65.69-15.28-82.49-39.72-16.8-22.91-3.06-62.63-12.22-90.13-7.64-27.5-42.77-51.94-42.77-80.96Z"/>
  <g>
    <path class="cls-2" d="m64.94,241.38h47.35c4.58,0,9.17,0,13.75,1.53,4.58,1.53,7.64,3.06,12.22,6.11,3.06,3.06,6.11,6.11,7.64,10.69,1.53,4.58,3.06,9.17,3.06,15.28,0,12.22-3.06,21.39-9.17,25.97-6.11,6.11-15.28,7.64-27.5,7.64h-21.39v33.61h-25.97v-100.82Zm25.97,45.83h18.33c4.58,0,7.64-1.53,10.69-3.06,3.06-1.53,3.06-4.58,3.06-9.17s-1.53-7.64-4.58-10.69c-3.06-1.53-6.11-3.06-10.69-3.06h-16.8v25.97Z"/>
    <path class="cls-2" d="m161.19,268.86h22.91v12.22c1.53-4.58,4.58-7.64,9.17-10.69,4.58-3.06,7.64-3.06,13.75-3.06h6.11v21.39c-3.06-1.53-6.11-1.53-9.17-1.53-6.11,0-10.69,1.53-13.75,4.58-3.06,3.06-4.58,7.64-4.58,12.22v36.66h-24.44v-71.8Z"/>
    <path class="cls-2" d="m217.71,290.25c1.53-4.58,4.58-9.17,7.64-12.22,3.06-3.06,7.64-6.11,12.22-7.64,4.58-1.53,9.17-3.06,15.28-3.06s10.69,1.53,15.28,3.06c4.58,1.53,9.17,4.58,12.22,7.64,3.06,3.06,6.11,7.64,7.64,12.22s3.06,9.17,3.06,15.28-1.53,10.69-3.06,15.28-4.58,9.17-7.64,12.22c-3.06,3.06-7.64,6.11-12.22,7.64-4.58,1.53-10.69,3.06-15.28,3.06-6.11,0-10.69-1.53-15.28-3.06-4.58-1.53-9.17-4.58-12.22-7.64-3.06-3.06-6.11-7.64-7.64-12.22-1.53-4.58-3.06-9.17-3.06-15.28s0-10.69,3.06-15.28Zm21.39,22.91c0,3.06,1.53,4.58,3.06,6.11,1.53,1.53,3.06,3.06,4.58,4.58,1.53,1.53,4.58,1.53,6.11,1.53,3.06,0,4.58,0,6.11-1.53,1.53-1.53,3.06-3.06,4.58-4.58,1.53-1.53,3.06-4.58,3.06-6.11,0-3.06,1.53-4.58,1.53-7.64s0-4.58-1.53-7.64c0-3.06-1.53-4.58-3.06-6.11s-3.06-3.06-4.58-4.58c-1.53-1.53-4.58-1.53-6.11-1.53-3.06,0-4.58,0-6.11,1.53-1.53,1.53-3.06,3.06-4.58,4.58-1.53,1.53-1.53,4.58-3.06,6.11,0,3.06-1.53,4.58-1.53,7.64s1.53,4.58,1.53,7.64Z"/>
    <path class="cls-2" d="m303.23,268.86h24.44v10.69c1.53-3.06,6.11-6.11,9.17-9.17,4.58-1.53,9.17-3.06,13.75-3.06,6.11,0,10.69,1.53,13.75,3.06,3.06,1.53,6.11,4.58,7.64,7.64,1.53,3.06,3.06,6.11,3.06,9.17s1.53,6.11,1.53,9.17v47.35h-24.44v-35.13c0-7.64,0-12.22-1.53-15.28-1.53-3.06-4.58-4.58-9.17-4.58s-7.64,1.53-9.17,4.58c-3.06,0-4.58,4.58-4.58,9.17v39.72h-24.44v-73.32Z"/>
    <path class="cls-2" d="m436.15,284.15h-15.28v33.61c0,3.06,0,4.58,1.53,6.11,1.53,1.53,3.06,1.53,6.11,1.53h6.11v18.33h-13.75c-4.58,0-9.17,0-12.22-1.53-3.06-1.53-6.11-1.53-7.64-4.58-1.53-1.53-3.06-4.58-4.58-7.64-1.53-3.06-1.53-7.64-1.53-12.22v-32.08h-12.22v-15.28h12.22v-21.39h24.44v21.39h15.28v13.75h1.53Z"/>
    <path class="cls-2" d="m446.84,290.25c1.53-4.58,4.58-9.17,7.64-12.22,3.06-3.06,7.64-6.11,12.22-7.64,4.58-1.53,9.17-3.06,15.28-3.06s10.69,1.53,15.28,3.06c4.58,1.53,9.17,4.58,12.22,7.64,3.06,3.06,6.11,7.64,7.64,12.22,1.53,4.58,3.06,9.17,3.06,15.28s-1.53,10.69-3.06,15.28c-1.53,4.58-4.58,9.17-7.64,12.22-3.06,3.06-7.64,6.11-12.22,7.64-4.58,1.53-10.69,3.06-15.28,3.06s-10.69-1.53-15.28-3.06c-4.58-1.53-9.17-4.58-12.22-7.64-3.06-3.06-6.11-7.64-7.64-12.22-1.53-4.58-3.06-9.17-3.06-15.28s1.53-10.69,3.06-15.28Zm21.39,22.91c0,3.06,1.53,4.58,3.06,6.11s3.06,3.06,4.58,4.58c1.53,1.53,4.58,1.53,6.11,1.53,3.06,0,4.58,0,6.11-1.53,1.53-1.53,3.06-3.06,4.58-4.58,3.06-1.53,3.06-4.58,3.06-6.11,0-3.06,1.53-4.58,1.53-7.64s0-4.58-1.53-7.64c0-3.06-1.53-4.58-3.06-6.11s-3.06-3.06-4.58-4.58c-1.53-1.53-4.58-1.53-6.11-1.53-3.06,0-4.58,0-6.11,1.53-1.53,1.53-3.06,3.06-4.58,4.58s-1.53,4.58-3.06,6.11c0,3.06-1.53,4.58-1.53,7.64s1.53,4.58,1.53,7.64Z"/>
  </g>
</svg>