<?xml version="1.0" encoding="UTF-8"?>
<svg id="Capa_1" data-name="Capa 1" xmlns="http://www.w3.org/2000/svg" xmlns:xlink="http://www.w3.org/1999/xlink" viewBox="0 0 200.76 200.76">
  <defs>
    <style>
      .cls-1 {
        fill: #fff;
      }

      .cls-1, .cls-2 {
        stroke-width: 0px;
      }

      .cls-2 {
        fill: url(#Degradado_sin_nombre_6);
      }
    </style>
    <linearGradient id="Degradado_sin_nombre_6" data-name="Degradado sin nombre 6" x1="100.38" y1="21.52" x2="100.38" y2="201.68" gradientUnits="userSpaceOnUse">
      <stop offset="0" stop-color="#ed0a1a"/>
      <stop offset=".28" stop-color="#e20918"/>
      <stop offset=".76" stop-color="#c50615"/>
      <stop offset="1" stop-color="#b50514"/>
    </linearGradient>
  </defs>
  <circle class="cls-2" cx="100.38" cy="100.38" r="100.38"/>
  <path class="cls-1" d="m63.1,50.47c.75,14.67,15.31,26.55,33.77,27.9,1.55.11,3.11.15,4.69.11,18.32-.5,33.26-11.76,35.37-25.78.24-1.58.36-3.2.32-4.84-.06-3.07-.67-6.03-1.95-8.73-4.73-10.14-16.46-17.66-30.62-18.95-1.84-.18-3.72-.23-5.6-.19-2.54.06-5.01.32-7.39.76-11.47,1.92-26.38,10.69-28.38,25.31-.22,1.53-.2,3.31-.2,4.41m37.27-33.65c22.26,0,40.3,14.51,40.3,32.42s-18.04,32.41-40.3,32.41c-20.08,0-36.74-11.82-39.79-27.3-.31-1.57-.51-3.35-.51-5.12,0-15.06,12.56-26.81,27.8-30.82,3.99-1.06,8.14-1.6,12.5-1.6m-10.29,32.31l-10,18.1-10.01-18.1,10.01-18.1,10,18.1Zm40.31,0l-10.01,18.1-10.01-18.1,10.01-18.1,10.01,18.1Zm-20.16,0l-10,18.1-10.01-18.1,10.01-18.1,10,18.1Z"/>
  <g>
    <g>
      <path class="cls-1" d="m85.54,170.57c-2.25,0-4.35-.41-6.29-1.23-1.94-.82-3.65-1.95-5.11-3.4-1.46-1.45-2.59-3.14-3.4-5.09-.8-1.94-1.21-4.02-1.21-6.25s.4-4.29,1.21-6.2c.8-1.92,1.93-3.6,3.38-5.04,1.45-1.44,3.13-2.57,5.06-3.38,1.93-.8,4.02-1.21,6.27-1.21s4.34.4,6.27,1.21c1.93.81,3.62,1.93,5.09,3.38,1.46,1.45,2.59,3.14,3.4,5.07.8,1.93,1.21,4,1.21,6.23s-.4,4.3-1.21,6.23c-.8,1.93-1.93,3.61-3.38,5.06-1.45,1.44-3.13,2.58-5.06,3.4-1.93.82-4,1.23-6.22,1.23Zm-.09-5.57c1.96,0,3.68-.44,5.15-1.32,1.48-.88,2.63-2.09,3.46-3.64s1.25-3.36,1.25-5.44c0-1.52-.24-2.91-.72-4.16-.48-1.26-1.16-2.34-2.04-3.26-.88-.92-1.92-1.63-3.11-2.13-1.2-.5-2.53-.75-3.99-.75-1.93,0-3.63.43-5.11,1.29-1.48.86-2.63,2.07-3.46,3.62s-1.25,3.35-1.25,5.39c0,1.55.24,2.97.72,4.25.48,1.29,1.15,2.38,2.02,3.29s1.9,1.61,3.11,2.1c1.21.5,2.53.75,3.97.75Zm13.99,7.36l-14.12-14.12,3.59-3.64,14.16,14.16-3.64,3.6Z"/>
      <path class="cls-1" d="m107.15,170.09v-30.82h5.96v30.82h-5.96Zm4.38-12.89v-4.65h7.15c1.46,0,2.59-.37,3.4-1.12.8-.74,1.2-1.77,1.2-3.09,0-1.2-.4-2.2-1.2-3-.8-.8-1.94-1.2-3.4-1.2h-7.15v-4.87h7.67c1.99,0,3.73.39,5.24,1.16,1.5.77,2.67,1.83,3.51,3.18.83,1.35,1.25,2.89,1.25,4.65s-.42,3.38-1.25,4.71c-.83,1.33-2.01,2.37-3.53,3.11-1.52.75-3.29,1.12-5.3,1.12h-7.58Zm12.45,12.89l-10.17-13.33,5.48-1.71,11.93,15.04h-7.23Z"/>
    </g>
    <path id="Trazado_144" data-name="Trazado 144" class="cls-1" d="m161.22,100.24c-9.37,0-15.62,6.25-15.62,13.83s5.8,13.83,15.62,13.83c9.08,0,15.17-6.25,15.17-13.83s-6.55-13.83-15.17-13.83m0,22.76c-6.39,0-9.22-4.02-9.22-8.93s3.12-8.92,9.22-8.92c5.5,0,8.93,4.02,8.93,8.93s-3.12,8.92-8.93,8.92m-70.51-17.7v.89h8.78v21.27h6.25v-21.27h7.73v-5.36h-18.59c-2.97,0-4.16,1.93-4.16,4.46m-36-4.46h-.89c-2.17-.11-4.19,1.13-5.06,3.12l-7.29,15.17-7.29-15.17c-1.04-2.08-2.68-3.12-5.36-3.12h-.59c-2.68,0-3.87,1.93-3.87,4.02v22.61h5.65v-20.08l6.55,13.69c1.19,2.53,2.23,3.12,4.76,3.12h.15c2.68,0,3.87-.74,4.91-3.12l6.55-13.69v20.08h5.65v-22.61c0-2.08-1.19-4.02-3.87-4.02m86.72,8.92c0-4.91-4.16-8.93-9.97-8.93h-9.52c-2.98,0-4.17,1.93-4.17,4.46v22.17h5.36v-8.93h5.5l6.55,8.93h7.14l-7.44-9.22c3.84-1.03,6.52-4.5,6.55-8.48m-18.59,3.72v-7.29h9.08c2.68,0,4.02,1.64,4.02,3.57,0,2.53-1.64,3.87-4.02,3.87h-9.08v-.15Zm-51.17,3.27h14.28v-5.2h-14.28v-5.36h15.62v-5.36h-16.36c-3.57,0-4.46,1.79-4.46,4.46v22.17h21.27v-5.36h-16.06v-5.36Z"/>
  </g>
</svg>