<svg data-name="Capa 1" xmlns="http://www.w3.org/2000/svg" viewBox="0 0 582 582.02"><circle cx="291" cy="291.01" r="290"/><path d="M3.47 336.65C-26.35 140.02 140.39-26.56 337.01 3.53 459.59 22.29 559.77 122.5 578.49 245.09c30.06 196.87-137.18 363.72-333.93 333.34C122.05 559.51 22.06 459.21 3.47 336.65Z" fill="#c8102e" fill-rule="evenodd"/><path d="M278.33 431.39V249.3h-70.59v-42.92c9.89.27 19.46-.46 28.68-2.2 9.22-1.73 17.51-4.81 24.86-9.22 7.35-4.41 13.57-10.22 18.65-17.45 5.07-7.22 8.42-16.18 10.03-26.87h45.32V431.4h-56.95Z" fill="#fff"/></svg>