<svg data-name="Capa 1" xmlns="http://www.w3.org/2000/svg" viewBox="0 0 583.15 582.02"><path d="M4.06 336.65C-25.76 140.02 140.98-26.56 337.6 3.53 460.18 22.29 560.36 122.5 579.08 245.09c30.06 196.87-137.18 363.72-333.93 333.34C122.64 559.51 22.65 459.21 4.06 336.65Z" fill="#ff671f" fill-rule="evenodd"/><path d="M205.76 188.53c5.62-9.63 12.91-17.65 21.87-24.06 8.95-6.42 19.05-11.23 30.28-14.44s22.59-4.81 34.1-4.81c17.38 0 32.09 2.67 44.11 8.02 12.03 5.35 21.73 11.83 29.08 19.45 7.35 7.63 12.63 15.78 15.84 24.47 3.21 8.7 4.81 16.51 4.81 23.46 0 13.9-3.41 26.07-10.22 36.5-6.82 10.43-17.05 17.92-30.68 22.46v.8c16.84 3.75 29.81 11.7 38.9 23.86 9.09 12.17 13.63 27.08 13.63 44.72 0 14.98-3.01 27.95-9.02 38.9-6.02 10.97-13.97 20.05-23.86 27.28-9.9 7.22-21.13 12.63-33.69 16.25-12.57 3.6-25.41 5.41-38.5 5.41s-26.81-1.66-39.51-5.01c-12.7-3.34-24.06-8.62-34.09-15.83-10.03-7.23-18.06-16.31-24.07-27.28-6.01-10.96-9.03-24.06-9.03-39.31 0-17.91 4.61-32.89 13.85-44.92 9.22-12.03 22.26-20.05 39.1-24.07v-.8c-13.63-3.74-23.93-10.83-30.88-21.26-6.95-10.43-10.43-22.59-10.43-36.5 0-12.56 2.81-23.67 8.42-33.29Zm40.91 177.69c2.67 5.88 6.22 10.89 10.63 15.04 4.41 4.14 9.68 7.35 15.84 9.63 6.15 2.27 12.56 3.41 19.25 3.41s13.3-1.14 19.05-3.41 10.83-5.48 15.25-9.63c4.41-4.15 7.82-9.17 10.22-15.04 2.41-5.89 3.61-12.3 3.61-19.26s-1.27-12.76-3.81-18.24c-2.55-5.48-6.02-10.23-10.43-14.24-4.42-4.01-9.5-7.09-15.25-9.22-5.75-2.14-11.97-3.21-18.64-3.21-13.9 0-25.67 3.81-35.3 11.43-9.63 7.63-14.43 18.65-14.43 33.09 0 7.23 1.33 13.78 4 19.66Zm15.25-111.71c8.55 6.29 18.58 9.43 30.08 9.43s22.06-3.14 30.08-9.43c8.02-6.28 12.03-15.44 12.03-27.48 0-3.74-.54-7.81-1.61-12.23-1.08-4.41-3.14-8.63-6.22-12.63-3.07-4.01-7.35-7.35-12.84-10.03s-12.63-4.01-21.45-4.01c-5.62 0-11.04.87-16.25 2.61-5.22 1.73-9.83 4.21-13.84 7.41-4.01 3.21-7.16 7.23-9.43 12.03-2.27 4.82-3.41 10.43-3.41 16.84 0 12.03 4.28 21.2 12.84 27.48Z" fill="#fff"/></svg>