<svg data-name="Capa 1" xmlns="http://www.w3.org/2000/svg" viewBox="0 0 583.15 582.02"><path d="M4.06 336.65C-25.76 140.02 140.98-26.56 337.6 3.53 460.18 22.29 560.36 122.5 579.08 245.09c30.06 196.87-137.18 363.72-333.93 333.34C122.64 559.51 22.65 459.21 4.06 336.65Z" fill="#e782a9" fill-rule="evenodd"/><path d="M260.31 383.86c6.68 6.95 14.97 10.43 24.87 10.43 10.42 0 18.98-3.01 25.67-9.03 6.68-6.01 12.03-13.37 16.04-22.06s6.88-17.98 8.63-27.87c1.73-9.89 2.87-18.71 3.41-26.48l-.8-.8c-7.76 11.23-16.84 19.25-27.27 24.07-10.43 4.81-22.46 7.22-36.09 7.22-12.03 0-23.8-2.6-35.3-7.82-11.5-5.21-21.26-12.23-29.28-21.05-7.49-8.56-12.97-18.31-16.44-29.28-3.49-10.96-5.22-22.06-5.22-33.29 0-14.43 2.34-27.87 7.02-40.3 4.67-12.44 11.36-23.27 20.05-32.49 8.69-9.22 19.06-16.51 31.08-21.86 12.03-5.35 25.4-8.02 40.11-8.02 21.4 0 38.97 4.21 52.75 12.63 13.77 8.42 24.79 19.52 33.09 33.28 8.28 13.78 14.03 29.36 17.24 46.73 3.21 17.39 4.82 34.9 4.82 52.54s-2.01 34.76-6.02 52.14c-4 17.38-10.43 33.09-19.25 47.13-8.82 14.03-20.19 25.4-34.09 34.09-13.91 8.69-30.88 13.03-50.94 13.03-12.03 0-23.27-1.66-33.69-5.01-10.43-3.34-19.65-8.35-27.67-15.04-8.02-6.68-14.58-14.84-19.65-24.46-5.08-9.63-8.42-20.58-10.03-32.89h54.14c1.87 9.36 6.15 17.52 12.84 24.47Zm48.13-91.65c5.62-2.8 10.29-6.61 14.04-11.43 3.74-4.81 6.55-10.36 8.42-16.65 1.87-6.28 2.81-12.9 2.81-19.85 0-6.42-1.01-12.77-3.02-19.06-2-6.28-4.95-11.9-8.82-16.84s-8.62-8.89-14.24-11.84c-5.61-2.94-12.03-4.41-19.25-4.41-6.69 0-12.7 1.47-18.05 4.41a44.02 44.02 0 0 0-13.64 11.63c-3.74 4.82-6.55 10.3-8.42 16.45-1.87 6.15-2.81 12.43-2.81 18.85s.87 13.17 2.61 19.45c1.73 6.29 4.34 11.91 7.81 16.85s7.96 8.96 13.44 12.02c5.47 3.08 11.83 4.61 19.05 4.61 7.76 0 14.44-1.4 20.05-4.21Z" fill="#fff"/></svg>