<svg data-name="Capa 1" xmlns="http://www.w3.org/2000/svg" viewBox="0 0 582 582.02"><circle cx="291" cy="291.01" r="290"/><path d="M3.47 336.65C-26.35 140.02 140.39-26.56 337.01 3.53 459.59 22.29 559.77 122.5 578.49 245.09c30.06 196.87-137.18 363.72-333.93 333.34C122.05 559.51 22.06 459.21 3.47 336.65Z" fill="#0072ce" fill-rule="evenodd"/><g fill="#fff"><path d="M52.36 369.21v-52.13l121.93-163.65h50.94v168.86h37.3v46.92h-37.3v64.98h-54.14v-64.98H52.36Zm117.53-144.38-72.6 97.46h73.8v-97.46h-1.2ZM422.56 147.82l107.09 286.37h-65.37l-21.66-63.78H335.53l-22.46 63.78H249.7l108.29-286.37h64.58Zm3.61 175.67-36.1-105.08h-.8l-37.3 105.08h74.2Z"/></g></svg>