<svg data-name="Capa 1" xmlns="http://www.w3.org/2000/svg" viewBox="0 0 583.15 582.02"><path d="M4.06 336.65C-25.76 140.02 140.98-26.56 337.6 3.53 460.18 22.29 560.36 122.5 579.08 245.09c30.06 196.87-137.18 363.72-333.93 333.34C122.64 559.51 22.65 459.21 4.06 336.65Z" fill="#8e3a80" fill-rule="evenodd"/><path d="M322.88 198.56c-6.69-6.95-14.98-10.43-24.87-10.43s-18.64 3.01-25.47 9.03c-6.82 6.01-12.23 13.38-16.25 22.06-4 8.69-6.95 17.98-8.82 27.87-1.87 9.9-2.95 18.72-3.2 26.48l.8.8c7.75-11.23 16.84-19.25 27.27-24.07 10.43-4.81 22.46-7.22 36.09-7.22 12.03 0 23.79 2.6 35.3 7.82 11.49 5.21 21.26 12.23 29.28 21.05 7.48 8.56 12.96 18.32 16.44 29.28 3.48 10.97 5.22 22.06 5.22 33.29 0 14.43-2.35 27.87-7.02 40.3-4.68 12.44-11.37 23.27-20.05 32.49-8.7 9.22-19.06 16.44-31.09 21.66-12.02 5.21-25.4 7.81-40.11 7.81-21.12 0-38.64-4.21-52.53-12.63-13.91-8.42-25.01-19.45-33.29-33.09-8.29-13.64-14.04-29.08-17.24-46.33-3.21-17.24-4.82-34.82-4.82-52.74s2.01-34.76 6.02-52.14c4-17.38 10.43-33.09 19.25-47.13 8.82-14.03 20.18-25.47 34.09-34.29 13.9-8.82 30.88-13.23 50.94-13.23 12.03 0 23.27 1.73 33.69 5.21 10.43 3.48 19.65 8.49 27.67 15.04s14.57 14.64 19.65 24.26c5.07 9.63 8.42 20.73 10.03 33.29h-54.15c-1.87-9.36-6.15-17.51-12.83-24.47Zm-47.93 91.65c-5.75 2.8-10.5 6.61-14.24 11.43-3.75 4.81-6.55 10.37-8.42 16.65-1.88 6.29-2.81 12.91-2.81 19.85 0 6.42 1 12.78 3.01 19.06 2.01 6.29 4.95 11.9 8.82 16.84 3.88 4.95 8.63 8.89 14.24 11.84 5.62 2.94 12.03 4.41 19.26 4.41s13.03-1.47 18.24-4.41c5.22-2.95 9.69-6.83 13.43-11.63 3.74-4.82 6.55-10.29 8.43-16.45 1.86-6.14 2.8-12.43 2.8-18.85s-.87-13.16-2.6-19.45c-1.74-6.29-4.35-11.9-7.82-16.85-3.48-4.95-7.95-8.95-13.43-12.02s-11.83-4.61-19.05-4.61-14.11 1.4-19.86 4.21Z" fill="#fff"/></svg>