<svg data-name="Capa 1" xmlns="http://www.w3.org/2000/svg" viewBox="0 0 583.15 582.02"><path d="M4.06 336.65C-25.76 140.02 140.98-26.56 337.6 3.53 460.18 22.29 560.36 122.5 579.08 245.09c30.06 196.87-137.18 363.72-333.93 333.34C122.64 559.51 22.65 459.21 4.06 336.65Z" fill="#858685" fill-rule="evenodd"/><path d="M348.35 246.89c-11.37 18.72-20.86 38.65-28.48 59.76-7.63 21.13-13.51 42.52-17.66 64.18-4.14 21.66-6.36 41.85-6.62 60.56h-60.96c3.2-41.98 13.03-82.35 29.47-121.13 16.44-38.77 38.03-74.33 64.77-106.69H195.71v-52.95h191.72v48.93c-14.71 12.84-27.74 28.61-39.1 47.33Z" fill="#fff"/></svg>