<?xml version="1.0" encoding="UTF-8"?>
<svg id="bip_" data-name="bip!" xmlns="http://www.w3.org/2000/svg" viewBox="0 0 580.78 435">
  <defs>
    <style>
      .cls-1 {
        fill: #fab700;
      }

      .cls-1, .cls-2 {
        stroke-width: 0px;
      }

      .cls-2 {
        fill: #0070cd;
      }
    </style>
  </defs>
  <rect class="cls-2" width="580" height="435" rx="53.02" ry="53.02"/>
  <g>
    <path class="cls-1" d="m215.24,158.54c12.77,0,23.12-9.84,23.12-21.99s-10.35-21.99-23.12-21.99-23.12,9.84-23.12,21.99,10.35,21.99,23.12,21.99Z"/>
    <path class="cls-1" d="m396.54,319.26c18.29,0,33.12-14.1,33.12-31.5s-14.83-31.5-33.12-31.5-33.12,14.1-33.12,31.5,14.83,31.5,33.12,31.5Z"/>
    <path class="cls-1" d="m140,168.02c-15.42,0-27.2,12.06-27.2,12.06v-60.34h-41.69v168.07h27.22l9.03-8.59s12.69,12.49,28.11,12.49c27.2,0,45.33-31.9,45.33-71.13s-25.38-52.57-40.8-52.57h0Zm-4.53,70.26c0,7.33-4.08,16.65-11.34,18.03-7.26,1.36-11.34-6.82-11.34-6.82v-37.07s3.61-9.05,10.87-8.63,11.78,11.65,11.78,11.65v22.85h.03Z"/>
    <path class="cls-1" d="m362.09,239.4c5.23-38.9-18.12-71.13-45.33-71.13-15.42,0-25.83,13.08-25.83,13.08l-5.43-9.18h-33.08v168.07h41.69v-54.17s11.77,5.89,27.2,5.89,36.72-22.27,40.81-52.57h-.03Zm-45.33,5.18s-4.53,11.21-11.78,11.65-10.87-8.63-10.87-8.63v-37.07s4.08-8.19,11.34-6.82c7.26,1.36,11.34,10.7,11.34,18.03v22.85h-.03Z"/>
    <path class="cls-1" d="m235.62,171.46h-43.51v116.31h43.51v-116.31h0Z"/>
    <path class="cls-1" d="m393.37,233.52l56.21-138.79,58.02,25-68.45,131.46-45.78-17.68h0Z"/>
  </g>
</svg>