<?xml version="1.0" encoding="UTF-8"?>
<svg id="TAM" xmlns="http://www.w3.org/2000/svg" viewBox="0 0 580.78 435">
  <defs>
    <style>
      .cls-1, .cls-2, .cls-3, .cls-4 {
        stroke-width: 0px;
      }

      .cls-2 {
        fill: #c4c4c4;
      }

      .cls-3 {
        fill: #fab700;
      }

      .cls-4 {
        fill: #fff;
      }
    </style>
  </defs>
  <rect class="cls-3" width="580" height="435" rx="53.02" ry="53.02"/>
  <path class="cls-4" d="m550.61,151.97H33c-6.6,0-12,5.4-12,12v190.07c0,6.6,5.4,12,12,12h190.07c6.6,0,12-5.4,12-12v-81.54h315.54c6.6,0,12-5.4,12-12v-96.54c0-6.6-5.4-12-12-12Z"/>
  <g>
    <rect class="cls-2" x="37.87" y="169.03" width="179.93" height="179.93"/>
    <g>
      <path class="cls-4" d="m127.84,192.21c5.94,0,11.76,1.76,16.7,5.07,4.94,3.3,8.8,8,11.07,13.49,2.28,5.49,2.87,11.54,1.71,17.37-1.16,5.83-4.02,11.19-8.23,15.39-4.2,4.2-9.56,7.07-15.39,8.23-5.83,1.16-11.87.56-17.37-1.71-5.49-2.28-10.19-6.13-13.49-11.07-3.3-4.94-5.07-10.75-5.07-16.7,0-7.97,3.17-15.62,8.8-21.25,5.64-5.64,13.28-8.8,21.25-8.8Z"/>
      <path class="cls-4" d="m74.45,305.29c.12-8.77,3.68-17.14,9.92-23.31,6.24-6.16,14.66-9.62,23.43-9.62h40.08c8.77,0,17.19,3.46,23.43,9.62,6.24,6.16,9.81,14.54,9.92,23.31-14.65,13.2-33.67,20.51-53.39,20.51s-38.74-7.31-53.39-20.51Z"/>
    </g>
  </g>
  <g>
    <path class="cls-1" d="m312.09,65.27c.59,11.55,12.06,20.91,26.59,21.97,1.23.09,2.45.12,3.69.08,14.43-.4,26.19-9.26,27.85-20.3.19-1.24.28-2.52.25-3.81-.05-2.42-.53-4.75-1.53-6.87-3.72-7.99-12.96-13.9-24.11-14.92-1.46-.14-2.93-.19-4.41-.15-2,.05-3.95.25-5.82.6-9.04,1.51-20.77,8.42-22.35,19.93-.17,1.21-.16,2.6-.16,3.47m29.35-26.5c17.53,0,31.73,11.43,31.73,25.53s-14.2,25.53-31.73,25.53c-15.82,0-28.94-9.32-31.34-21.5-.24-1.24-.4-2.64-.4-4.03,0-11.86,9.89-21.11,21.89-24.28,3.14-.83,6.41-1.25,9.85-1.25m-8.11,25.44l-7.87,14.25-7.88-14.25,7.88-14.25,7.87,14.25Zm31.74,0l-7.88,14.25-7.88-14.25,7.88-14.25,7.88,14.25Zm-15.87,0l-7.87,14.25-7.88-14.25,7.88-14.25,7.87,14.25Z"/>
    <path class="cls-1" d="m520.15,40.68c-9.32,0-15.49,6.13-15.49,13.67s5.72,13.66,15.49,13.66c8.94,0,15.02-6.12,15.02-13.66s-6.46-13.67-15.02-13.67m-.08,22.48c-6.3,0-9.17-3.94-9.17-8.81s3.16-8.82,9.17-8.82c5.52,0,8.86,3.95,8.86,8.82s-3.1,8.81-8.86,8.81m-69.84-17.47v.88h8.65v21.08h6.15v-21.08h7.7v-5.27h-18.4c-2.92,0-4.1,1.97-4.1,4.39m-35.63-4.36h-.83c-2.36,0-4.03,1.01-5.03,3.07l-7.25,15-7.25-15c-1-2.06-2.55-3.07-5.2-3.07h-.72c-2.64,0-3.77,1.9-3.77,3.93v22.38h5.55v-19.89l6.45,13.51c1.17,2.44,2.25,3.17,4.72,3.17h.17c2.6,0,3.84-.8,4.93-3.06l6.52-13.62v19.89h5.54v-22.38c0-2.01-1.14-3.93-3.83-3.93m85.87,8.75c0-4.85-4.1-8.78-9.92-8.78h-9.5c-2.91,0-4.09,1.97-4.09,4.4v21.94h5.28v-8.77h5.39l6.44,8.77h7.02l-7.35-9.18c4.26-1.13,6.74-4.45,6.74-8.37m-18.34,3.75v-7.27s9.02,0,9.02,0c2.65,0,3.94,1.55,3.94,3.52,0,2.55-1.61,3.75-3.94,3.75h-9.02Zm-50.75,3.27h14.1v-5.26h-14.09l-.02-5.27h15.42v-5.27h-16.19c-3.49,0-4.49,1.73-4.49,4.4v21.95h21.1v-5.27h-15.83v-5.27Z"/>
    <path class="cls-1" d="m466.97,78.25v-.39c0-1.09,1.05-1.96,2.35-1.96h10.15v2.34h-4.88v9.37h-2.74v-9.37h-4.88Z"/>
    <path class="cls-1" d="m386.59,85.29h5.16c2.33,0,4.22-1.58,4.22-3.52s-1.89-3.51-4.22-3.51h-5.16v7.03Zm4.69,2.34h-7.03v-9.76c0-1.08,1.05-1.96,2.35-1.96h4.68c3.88,0,7.03,2.62,7.03,5.85s-3.15,5.86-7.03,5.86"/>
    <path class="cls-1" d="m403.02,85.29h8.59v2.34h-10.93v-9.76c0-1.08,1.04-1.96,2.34-1.96h8.59v2.34h-8.59v2.35h7.81v2.34h-7.81v2.35Z"/>
    <rect class="cls-1" x="482.01" y="75.91" width="2.34" height="11.72"/>
    <path class="cls-1" d="m509.45,78.24c-2.33,0-4.22,1.58-4.22,3.52s1.89,3.52,4.22,3.52h3.6v-2.35h-3.12v-2.35h5.47v5.08c0,1.08-1.05,1.96-2.35,1.96h-3.13c-3.89,0-7.04-2.63-7.04-5.87s3.15-5.86,7.04-5.86h5.47v2.34s-5.95,0-5.95,0Z"/>
    <path class="cls-1" d="m462.2,85.46v-9.56h2.35v9.77c0,1.08-1.06,1.96-2.35,1.96-.87,0-1.61-.42-2.04-1l-6.57-8.57v9.57h-2.34v-9.77c0-1.08,1.05-1.96,2.34-1.96.89,0,1.6.41,2.06,1.01l6.55,8.55Z"/>
    <path class="cls-1" d="m441.47,75.9c1.02,0,1.89.54,2.21,1.3l4.44,10.44h-2.55l-.99-2.35h-6.2l-.99,2.35h-2.55l4.44-10.44c.32-.76,1.19-1.3,2.21-1.3m2.11,7.04l-2.11-4.97-2.11,4.97h4.22Z"/>
    <path class="cls-1" d="m494.4,75.9c1.02,0,1.89.54,2.21,1.3l4.44,10.44h-2.55l-1-2.35h-6.21l-1,2.35h-2.55l4.44-10.44c.32-.76,1.2-1.3,2.21-1.3m2.11,7.04l-2.11-4.97-2.11,4.97h4.22Z"/>
    <path class="cls-1" d="m428.44,80.59c2.33,0,4.23,1.57,4.23,3.51s-1.89,3.53-4.23,3.53h-7.91s0-2.34,0-2.34h8.38c.78,0,1.41-.53,1.41-1.18s-.63-1.17-1.41-1.17h-4.52c-2.34,0-4.23-1.57-4.23-3.51s1.89-3.52,4.23-3.52h7.08v2.34h-7.56c-.78,0-1.41.53-1.41,1.18s.63,1.17,1.41,1.17h4.53Z"/>
    <path class="cls-1" d="m530.22,81.82c0,.07-.08.11-.08.18,0,0,0,.01,0,.01,0,2.31-2.24,4.17-5,4.17s-5.01-1.87-5.01-4.17c0-.07.08-.11.09-.18,0,0,0-.01,0-.02,0-2.31,2.24-4.17,5.01-4.17s5,1.86,5,4.17m2.37,0c0-3.37-3.28-6.11-7.32-6.11s-7.33,2.73-7.33,6.11,3.28,6.11,7.33,6.11,7.32-2.74,7.32-6.11"/>
    <path class="cls-1" d="m531.81,72.84v-2.89h1.28c.25,0,.46.03.59.08.13.05.24.14.32.27.08.13.12.28.12.44,0,.2-.07.37-.2.51-.13.15-.34.24-.62.28.11.05.18.09.24.14.11.11.21.23.32.39l.5.79h-.48l-.38-.6c-.11-.17-.21-.3-.28-.4-.07-.09-.14-.16-.19-.19-.05-.04-.11-.06-.18-.07-.04-.01-.11-.02-.21-.02h-.44v1.29h-.38Zm.38-1.62h.82c.18,0,.31-.02.41-.06.1-.03.17-.09.22-.17.05-.08.08-.17.08-.26,0-.14-.05-.26-.15-.34-.1-.09-.25-.13-.47-.13h-.91v.95Z"/>
    <path class="cls-1" d="m530.14,71.39c0-1.51,1.23-2.74,2.74-2.74s2.74,1.23,2.74,2.74-1.23,2.74-2.74,2.74-2.74-1.23-2.74-2.74m.36,0c0,1.31,1.06,2.37,2.38,2.37s2.37-1.06,2.37-2.37-1.06-2.38-2.37-2.38-2.38,1.06-2.38,2.38"/>
  </g>
</svg>