<?xml version="1.0" encoding="UTF-8"?>
<svg id="Bip_Adulto_Mayor" data-name="Bip! Adulto Mayor" xmlns="http://www.w3.org/2000/svg" xmlns:xlink="http://www.w3.org/1999/xlink" viewBox="0 0 580.78 435">
  <defs>
    <style>
      .cls-1 {
        fill: #de1731;
      }

      .cls-1, .cls-2, .cls-3, .cls-4 {
        stroke-width: 0px;
      }

      .cls-2 {
        fill: #420d42;
      }

      .cls-3 {
        fill: none;
      }

      .cls-4 {
        fill: #fff;
      }

      .cls-5 {
        clip-path: url(#clippath);
      }
    </style>
    <clipPath id="clippath">
      <rect class="cls-3" width="580" height="435" rx="53.02" ry="53.02"/>
    </clipPath>
  </defs>
  <g class="cls-5">
    <rect class="cls-2" width="580" height="435" rx="53.02" ry="53.02"/>
    <g>
      <path class="cls-4" d="m95.43,340.81c4.44,0,8.04-3.42,8.04-7.65s-3.6-7.65-8.04-7.65-8.04,3.42-8.04,7.65,3.6,7.65,8.04,7.65Z"/>
      <path class="cls-4" d="m158.46,396.68c6.36,0,11.51-4.9,11.51-10.95s-5.16-10.95-11.51-10.95-11.51,4.9-11.51,10.95,5.16,10.95,11.51,10.95Z"/>
      <path class="cls-4" d="m69.27,344.1c-5.36,0-9.46,4.19-9.46,4.19v-20.98h-14.49v58.43h9.46l3.14-2.99s4.41,4.34,9.77,4.34c9.46,0,15.76-11.09,15.76-24.73s-8.82-18.28-14.18-18.28h0Zm-1.57,24.43c0,2.55-1.42,5.79-3.94,6.27-2.52.47-3.94-2.37-3.94-2.37v-12.89s1.26-3.15,3.78-3,4.1,4.05,4.1,4.05v7.94h.01Z"/>
      <path class="cls-4" d="m146.48,368.92c1.82-13.52-6.3-24.73-15.76-24.73-5.36,0-8.98,4.55-8.98,4.55l-1.89-3.19h-11.5v58.43h14.49v-18.83s4.09,2.05,9.46,2.05,12.77-7.74,14.19-18.28h-.01Zm-15.76,1.8s-1.57,3.9-4.1,4.05-3.78-3-3.78-3v-12.89s1.42-2.85,3.94-2.37c2.52.47,3.94,3.72,3.94,6.27v7.94h-.01Z"/>
      <path class="cls-4" d="m102.51,345.3h-15.13v40.44h15.13v-40.44h0Z"/>
      <path class="cls-4" d="m157.36,366.87l19.54-48.25,20.17,8.69-23.8,45.7-15.92-6.15h0Z"/>
    </g>
    <path class="cls-4" d="m0,148.07V.25h580.78v65.86s-31.82,27.67-65.42,30.78c-42.43,3.93-89.66-17.37-133.07-8.74-65.84,13.08-127.29,89.82-234.54,87.89C48.65,174.25,0,148.07,0,148.07Z"/>
    <circle class="cls-4" cx="393.86" cy="130.71" r="19.29"/>
  </g>
  <g id="layer1">
    <g id="g1322">
      <path id="path228" class="cls-1" d="m61.16,58.19c-.22,3.69-3.26,6.64-6.99,6.73h-3.42c-1.35,0-2.44-1.1-2.44-2.45v-9.43c0-1.35,1.1-2.45,2.45-2.45h3.07c4.19,0,7.59,3.43,7.34,7.6m8.25,24.05c-1.65-.58-2.14-2.28-2.99-5.79-.4-1.65-.86-3.51-1.69-5.26-.13-.26-.26-.51-.4-.76-.48-.82-.4-1.86.26-2.54,2.58-2.69,4.14-6.37,4.07-10.39-.14-7.91-6.97-14.38-14.88-14.38h-9.19c-2.07,0-3.75,1.68-3.75,3.75v29.09c0,2.02,1.55,3.77,3.57,3.86,2.14.09,3.91-1.62,3.91-3.74v-1.22c0-1.35,1.1-2.45,2.45-2.45h4.03c1.35,0,2.6.79,3.18,2.01.5,1.05.88,2.38,1.18,3.82,1.05,5.16,4.59,11.29,9.03,11.29,1.55,0,2.99-.97,3.53-2.51.68-1.95-.34-4.09-2.3-4.77"/>
      <path id="path230" class="cls-1" d="m94.91,62.49c0,1.35-1.1,2.45-2.45,2.45h-9.44c-1.35,0-2.44-1.1-2.44-2.45v-4.56c0-4.01,3.28-7.39,7.28-7.33,3.9.07,7.05,3.26,7.05,7.17v4.72Zm-7.45-19.36c-8.02.15-14.37,6.87-14.37,14.89v16.85c0,8.67,5.76,14.52,14.37,14.65h.28c6.46-.05,11.5-3.4,13.53-8.98.69-1.9-.13-4.06-1.98-4.86-2.02-.86-4.31.17-5.02,2.2-.95,2.73-3.18,4.13-6.61,4.15-6.16-.04-7.08-4.5-7.08-7.16,0-1.35,1.09-2.45,2.44-2.45h11.25c4.48,0,8.12-3.64,8.12-8.12v-6.53c0-8.17-6.73-14.8-14.93-14.65"/>
      <path id="path232" class="cls-1" d="m48.48,85.64c0,2.15-1.75,3.9-3.9,3.9s-3.9-1.75-3.9-3.9,1.74-3.9,3.9-3.9,3.9,1.74,3.9,3.9"/>
      <path id="path234" class="cls-1" d="m128.68,74.89c0,1.23-.3,2.4-.89,3.47-.94,1.7-2.55,2.95-4.42,3.45-4.74,1.26-9.02-2.52-9.02-7.08v-16.84c0-3.8,2.88-7.07,6.67-7.32,3.09-.21,5.91,1.55,7.1,4.36.36.85.55,1.76.56,2.7v17.25Zm9.38,10.03l-1.72-8.23c-.13-.59-.17-1.19-.17-1.79h0s0-41.34,0-41.34c0-2.02-1.55-3.75-3.56-3.85-2.15-.1-3.92,1.61-3.92,3.74v7.83c0,1.63-1.57,2.79-3.14,2.34-1.52-.43-3.12-.62-4.77-.54-7.83.39-13.91,7.03-13.91,14.88v16.67c0,8.07,6.42,14.8,14.48,14.89,2.72.03,5.32-.68,7.56-1.99.84-.49,1.92-.31,2.5.47.86,1.17,2.36,1.78,3.88,1.42,1.94-.46,3.17-2.56,2.77-4.51"/>
      <path id="path236" class="cls-1" d="m168.87,57.9l-5.59-10.4v13.15c0,.48-.4.88-.88.88s-.88-.4-.88-.88v-16.66c0-.48.4-.88.88-.88.4,0,.67.24.8.51l6.47,12.11,6.5-12.11c.11-.18.32-.51.81-.51s.88.4.88.88v16.66c0,.48-.4.88-.88.88s-.89-.4-.89-.88v-13.15l-5.61,10.4c-.19.35-.48.51-.8.51-.27,0-.61-.13-.8-.51"/>
      <path id="path238" class="cls-1" d="m188.41,50.36c-2.33,0-3.61,1.5-3.77,3.88h7.19c0-1.92-.67-3.88-3.42-3.88m0-1.55c4.28,0,5.11,3.39,5.11,5.21,0,.78,0,1.71-1.07,1.71h-7.81c0,2.65,1.52,4.36,4.04,4.36,1.55,0,2.46-.59,3.21-1.15.16-.11.26-.16.48-.16.43,0,.77.35.77.78,0,.29-.13.45-.29.61-.4.4-1.79,1.49-4.17,1.49-3.56,0-5.78-1.95-5.78-6.44,0-4.12,2.03-6.42,5.51-6.42"/>
      <path id="path240" class="cls-1" d="m198.81,46.37c0-.45.4-.86.86-.86s.85.4.85.86v2.81h1.74c.45,0,.8.35.8.8s-.35.8-.8.8h-1.74v7.38c0,1.15.64,1.76,1.55,1.76.45,0,.83.35.83.8s-.37.81-.83.81c-2.11,0-3.26-1.42-3.26-3.37v-7.38h-1.05c-.45,0-.8-.35-.8-.8s.35-.8.8-.8h1.05v-2.81Z"/>
      <path id="path242" class="cls-1" d="m209.29,51c.53-1.23,1.87-2.14,3.72-2.14.45,0,.83.37.83.83s-.37.83-.83.83c-2.46,0-3.72,1.71-3.72,4.17v5.99c0,.48-.38.86-.86.86s-.86-.37-.86-.86v-10.85c0-.48.37-.86.86-.86s.86.37.86.86v1.18Z"/>
      <path id="path244" class="cls-1" d="m226.37,55.22c0-3.37-1.42-4.87-3.88-4.87s-3.88,1.5-3.88,4.87,1.41,4.89,3.88,4.89,3.88-1.47,3.88-4.89m1.74,0c0,4.38-2.14,6.45-5.62,6.45s-5.61-2.06-5.61-6.45,2.17-6.42,5.61-6.42,5.62,2.03,5.62,6.42"/>
      <path id="path246" class="cls-1" d="m238.11,60.11c2.46,0,3.85-1.55,3.85-4.89s-1.44-4.87-3.9-4.87c-1.98,0-3.64,1.39-3.64,4.87s1.61,4.89,3.69,4.89m-3.64-10.29v.86c.51-.91,1.85-1.87,3.64-1.87,3.47,0,5.58,2.03,5.58,6.42s-2.11,6.44-5.58,6.44c-1.79,0-3.08-.96-3.64-1.87v6.04c0,.45-.4.86-.85.86s-.86-.4-.86-.86v-16.01c0-.48.4-.86.86-.86s.85.37.85.86"/>
      <path id="path248" class="cls-1" d="m257.03,55.22c0-3.37-1.41-4.87-3.88-4.87s-3.88,1.5-3.88,4.87,1.42,4.89,3.88,4.89,3.88-1.47,3.88-4.89m1.74,0c0,4.38-2.14,6.45-5.61,6.45s-5.61-2.06-5.61-6.45,2.17-6.42,5.61-6.42,5.61,2.03,5.61,6.42"/>
      <path id="path250" class="cls-1" d="m265,43.99v14.42c0,1.07.34,1.52,1.07,1.52.43,0,.8.34.8.8s-.37.8-.8.8c-1.79,0-2.78-1.07-2.78-3.13v-14.42c0-.45.4-.85.86-.85s.86.4.86.85"/>
      <path id="path252" class="cls-1" d="m272.8,60.68c0,.48-.37.86-.86.86s-.86-.37-.86-.86v-10.85c0-.48.37-.86.86-.86s.86.37.86.86v10.85Zm-1.87-15.24c0-.77.37-1.07,1.02-1.07s1.02.29,1.02,1.07c0,.64-.37,1.02-1.02,1.02s-1.02-.37-1.02-1.02"/>
      <path id="path254" class="cls-1" d="m278.93,46.37c0-.45.4-.86.86-.86s.85.4.85.86v2.81h1.74c.45,0,.8.35.8.8s-.35.8-.8.8h-1.74v7.38c0,1.15.64,1.76,1.55,1.76.45,0,.83.35.83.8s-.37.81-.83.81c-2.11,0-3.26-1.42-3.26-3.37v-7.38h-1.05c-.45,0-.8-.35-.8-.8s.35-.8.8-.8h1.05v-2.81Z"/>
      <path id="path256" class="cls-1" d="m295.31,56.69v-1.12h-3.77c-1.74,0-2.94.72-2.94,2.27,0,1.39.96,2.27,3.05,2.27,1.87,0,3.66-1.15,3.66-3.42m-6.26-4.92c-.27.3-.45.37-.7.37-.43,0-.77-.34-.77-.77,0-.18.05-.32.13-.45.75-1.18,2.2-2.11,4.44-2.11,3.1,0,4.82,1.82,4.82,4.54v7.35c0,.46-.38.83-.83.83s-.83-.37-.83-.83v-.96c-.67,1.26-2.22,1.93-3.83,1.93-2.83,0-4.62-1.36-4.62-3.83s1.79-3.77,4.68-3.77h3.77v-.72c0-1.82-1.21-2.94-3.16-2.94-1.41,0-2.27.43-3.1,1.36"/>
      <path id="path258" class="cls-1" d="m312.34,53.54v7.14c0,.48-.37.86-.86.86s-.86-.37-.86-.86v-6.79c0-2.12-.61-3.56-3.21-3.56s-3.56,1.6-3.56,3.74v6.6c0,.48-.37.86-.86.86s-.85-.37-.85-.86v-10.85c0-.48.37-.86.85-.86s.86.37.86.86v.86c.51-1.02,1.82-1.87,3.56-1.87,4.12,0,4.92,2.46,4.92,4.73"/>
      <path id="path260" class="cls-1" d="m325.15,56.69v-1.12h-3.77c-1.74,0-2.94.72-2.94,2.27,0,1.39.96,2.27,3.05,2.27,1.87,0,3.66-1.15,3.66-3.42m-6.26-4.92c-.27.3-.45.37-.69.37-.43,0-.78-.34-.78-.77,0-.18.05-.32.13-.45.75-1.18,2.19-2.11,4.44-2.11,3.1,0,4.81,1.82,4.81,4.54v7.35c0,.46-.37.83-.83.83s-.83-.37-.83-.83v-.96c-.67,1.26-2.22,1.93-3.82,1.93-2.83,0-4.63-1.36-4.63-3.83s1.79-3.77,4.68-3.77h3.77v-.72c0-1.82-1.2-2.94-3.15-2.94-1.41,0-2.27.43-3.1,1.36"/>
      <path id="path262" class="cls-1" d="m170.52,80.55s-1.02-2.35-3.53-2.35-3.77,1.57-3.77,4.87,1.31,4.89,3.77,4.89c2.06,0,3.53-1.18,3.53-3.72v-3.69Zm0-2.17v-6.58c0-.48.37-.86.86-.86s.85.37.85.86v12.44c0,3.53-2.19,5.27-5.24,5.27-3.45,0-5.48-2.06-5.48-6.44s1.92-6.42,5.37-6.42c1.71,0,3.02.88,3.64,1.74"/>
      <path id="path264" class="cls-1" d="m182.39,78.2c-2.33,0-3.61,1.49-3.77,3.88h7.19c0-1.93-.67-3.88-3.43-3.88m0-1.55c4.28,0,5.11,3.4,5.11,5.21,0,.78,0,1.71-1.07,1.71h-7.81c0,2.65,1.52,4.36,4.03,4.36,1.55,0,2.46-.59,3.21-1.15.16-.11.27-.16.48-.16.43,0,.78.34.78.77,0,.29-.13.45-.3.62-.4.4-1.79,1.49-4.17,1.49-3.56,0-5.77-1.95-5.77-6.45,0-4.11,2.03-6.42,5.5-6.42"/>
      <path id="path266" class="cls-1" d="m211.95,85.74l-5.59-10.4v13.15c0,.48-.4.88-.88.88s-.89-.4-.89-.88v-16.66c0-.48.4-.88.89-.88.4,0,.67.24.8.51l6.47,12.11,6.5-12.11c.11-.19.32-.51.8-.51s.89.4.89.88v16.66c0,.48-.4.88-.89.88s-.88-.4-.88-.88v-13.15l-5.61,10.4c-.19.35-.48.51-.8.51-.27,0-.62-.13-.8-.51"/>
      <path id="path268" class="cls-1" d="m236.7,83.07c0-3.37-1.41-4.87-3.88-4.87s-3.88,1.49-3.88,4.87,1.41,4.89,3.88,4.89,3.88-1.47,3.88-4.89m1.74,0c0,4.38-2.14,6.44-5.61,6.44s-5.61-2.06-5.61-6.44,2.17-6.42,5.61-6.42,5.61,2.03,5.61,6.42"/>
      <path id="path270" class="cls-1" d="m247.22,88.84l-4.54-10.8c-.02-.08-.08-.18-.08-.37,0-.48.37-.85.85-.85s.7.29.8.56l3.77,9.22,3.77-9.22c.11-.27.32-.56.8-.56s.86.37.86.85c0,.19-.05.29-.08.37l-4.55,10.8c-.16.35-.45.53-.8.53s-.64-.18-.8-.53"/>
      <path id="path272" class="cls-1" d="m260.5,88.52c0,.48-.37.85-.85.85s-.86-.37-.86-.85v-10.86c0-.48.37-.86.86-.86s.85.38.85.86v10.86Zm-1.87-15.24c0-.78.37-1.07,1.02-1.07s1.02.29,1.02,1.07c0,.64-.38,1.02-1.02,1.02s-1.02-.37-1.02-1.02"/>
      <path id="path274" class="cls-1" d="m268.9,71.81v14.44c0,1.07.34,1.52,1.07,1.52.42,0,.8.35.8.8s-.38.8-.8.8c-1.79,0-2.78-1.07-2.78-3.13v-14.44c0-.45.4-.86.86-.86.48,0,.86.4.86.86"/>
      <path id="path276" class="cls-1" d="m277.92,88.52c0,.48-.37.85-.85.85s-.86-.37-.86-.85v-10.86c0-.48.37-.86.86-.86s.85.38.85.86v10.86Zm-1.87-15.24c0-.78.37-1.07,1.02-1.07s1.02.29,1.02,1.07c0,.64-.38,1.02-1.02,1.02s-1.02-.37-1.02-1.02"/>
      <path id="path278" class="cls-1" d="m292.81,80.55s-1.02-2.35-3.53-2.35-3.77,1.57-3.77,4.87,1.31,4.89,3.77,4.89c2.06,0,3.53-1.18,3.53-3.72v-3.69Zm0-2.17v-6.58c0-.48.37-.86.86-.86s.86.37.86.86v12.44c0,3.53-2.2,5.27-5.24,5.27-3.45,0-5.48-2.06-5.48-6.44s1.92-6.42,5.37-6.42c1.71,0,3.02.88,3.64,1.74"/>
      <path id="path280" class="cls-1" d="m308.82,84.54v-1.12h-3.77c-1.74,0-2.94.72-2.94,2.27,0,1.39.96,2.27,3.05,2.27,1.87,0,3.66-1.15,3.66-3.42m-6.26-4.92c-.27.29-.45.37-.69.37-.43,0-.78-.35-.78-.77,0-.19.05-.32.13-.46.75-1.18,2.19-2.11,4.44-2.11,3.1,0,4.81,1.82,4.81,4.55v7.35c0,.45-.37.83-.83.83s-.83-.37-.83-.83v-.96c-.67,1.26-2.22,1.92-3.82,1.92-2.83,0-4.63-1.36-4.63-3.82s1.79-3.77,4.68-3.77h3.77v-.72c0-1.82-1.2-2.94-3.15-2.94-1.42,0-2.27.43-3.1,1.36"/>
      <path id="path282" class="cls-1" d="m325.1,80.55s-1.02-2.35-3.53-2.35-3.77,1.57-3.77,4.87,1.31,4.89,3.77,4.89c2.06,0,3.53-1.18,3.53-3.72v-3.69Zm0-2.17v-6.58c0-.48.37-.86.86-.86s.85.37.85.86v12.44c0,3.53-2.19,5.27-5.24,5.27-3.45,0-5.48-2.06-5.48-6.44s1.92-6.42,5.37-6.42c1.71,0,3.02.88,3.64,1.74"/>
    </g>
  </g>
</svg>