<?xml version="1.0" encoding="utf-8"?>
<!-- Generator: Adobe Illustrator 27.9.1, SVG Export Plug-In . SVG Version: 6.00 Build 0)  -->
<svg version="1.1" id="Capa_1" xmlns="http://www.w3.org/2000/svg" xmlns:xlink="http://www.w3.org/1999/xlink" x="0px" y="0px"
	 viewBox="0 0 620 620" style="enable-background:new 0 0 620 620;" xml:space="preserve">
<path d="M620,310c0,171.2-138.8,310-310,310S0,481.2,0,310S138.8,0,310,0C481.2,0,620,138.7,620,310
	C620,309.9,620,310,620,310z M459.3,133.9c-14.8-8.6-33.8-3.5-42.3,11.3c0,0,0,0,0,0.1L267,404.8l-67.9-81.4
	c-11-13.1-30.5-14.9-43.7-4c-13.1,11-14.9,30.5-4,43.7l96.3,115.6c5.9,7.1,14.6,11.2,23.8,11.2c0.9,0,1.8,0,2.7-0.1
	c10.1-0.9,19.1-6.6,24.2-15.4l172.1-298.1C479.1,161.4,474,142.4,459.3,133.9C459.2,133.9,459.2,133.9,459.3,133.9L459.3,133.9z"/>
</svg>
