<?xml version="1.0" encoding="UTF-8"?>
<svg id="Capa_1" data-name="Capa 1" xmlns="http://www.w3.org/2000/svg" viewBox="0 0 583.15 582.48">
  <path d="m291.59.24c160.72,0,291,130.28,291,291s-130.28,291-291,291S.59,451.96.59,291.24,130.87.24,291.59.24Zm-61.72,202.07c-5.22-5.27-12.27-8.35-19.69-8.6-7.42-.25-14.66,2.34-20.23,7.25-5.57,4.91-9.05,11.76-9.74,19.15-.68,7.39,1.48,14.77,6.06,20.61l2.44,2.76,61.69,61.69-61.69,61.75c-5.27,5.22-8.35,12.27-8.6,19.69-.25,7.42,2.34,14.65,7.25,20.22,4.91,5.57,11.76,9.06,19.15,9.74,7.39.69,14.77-1.48,20.61-6.06l2.74-2.41,61.72-61.75,61.72,61.75c5.22,5.27,12.27,8.35,19.69,8.6,7.42.25,14.66-2.34,20.23-7.25,5.57-4.91,9.05-11.76,9.73-19.15.69-7.39-1.48-14.77-6.06-20.61l-2.41-2.76-61.75-61.72,61.75-61.72c5.27-5.22,8.35-12.27,8.6-19.69.25-7.42-2.34-14.66-7.25-20.23-4.91-5.57-11.76-9.05-19.15-9.74-7.39-.68-14.77,1.48-20.61,6.06l-2.76,2.42-61.72,61.75-61.72-61.75Z" stroke-width="0"/>
</svg>