<?xml version="1.0" encoding="UTF-8"?>
<svg id="Consulta_y_carga_bip_" data-name="Consulta y carga bip!" xmlns="http://www.w3.org/2000/svg" viewBox="0 0 584.73 582.73">
  <defs>
    <style>
      .cls-1 {
        stroke-width: 0px;
      }
    </style>
  </defs>
  <path class="cls-1" d="m521.01,83.38h-124.71v-31.18c0-28.7-23.27-51.96-51.96-51.96h-103.93c-28.7,0-51.96,23.27-51.96,51.96v31.18H63.72c-11.48,0-20.79,9.31-20.79,20.79s9.31,20.79,20.79,20.79h22.08l24.68,396.12c1.84,34.88,28.58,61.16,62.36,61.16h239.04c33.95,0,60.15-25.7,62.36-61.06l24.68-396.23h22.08c11.48,0,20.79-9.31,20.79-20.79s-9.31-20.79-20.79-20.79ZM209.96,499.1h-.74c-11.2,0-20.39-8.86-20.79-20.05l-10.39-291c-.41-11.48,8.57-21.12,20.05-21.53,11.48-.41,21.12,8.57,21.53,20.05l10.39,291c.42,11.47-8.55,21.11-20.02,21.53,0,0-.02,0-.03,0Zm103.19-20.79c0,11.48-9.31,20.79-20.79,20.79s-20.79-9.31-20.79-20.79V187.31c0-11.48,9.31-20.79,20.79-20.79s20.79,9.31,20.79,20.79v291Zm41.57-394.93h-124.71v-31.18c-.06-5.67,4.48-10.33,10.16-10.39.08,0,.16,0,.24,0h103.93c5.67-.06,10.33,4.48,10.39,10.16,0,.08,0,.16,0,.24v31.18Zm41.57,395.67c-.4,11.19-9.59,20.05-20.79,20.05h-.75c-11.47-.41-20.44-10.04-20.03-21.51,0,0,0,0,0-.01l10.39-291c.41-11.48,10.05-20.45,21.53-20.05,11.48.41,20.45,10.05,20.05,21.53l-10.39,291Z"/>
</svg>