<?xml version="1.0" encoding="UTF-8"?>
<svg id="Header" xmlns="http://www.w3.org/2000/svg" viewBox="0 0 584.73 582.73">
  <defs>
    <style>
      .cls-1 {
        fill-rule: evenodd;
        stroke-width: 0px;
      }
    </style>
  </defs>
  <path id="Configuración_de_notificaciones" data-name="Configuración de notificaciones" class="cls-1" d="m312.14.24c26.18,0,48.67,18.03,53.6,42.96l2.19,11.09c8.61,43.57,55.1,69.59,98.32,55.04l11-3.71c24.73-8.33,52.08,1.54,65.17,23.52l19.77,33.2c13.09,21.98,8.23,49.88-11.57,66.48l-8.81,7.38c-34.62,29.02-34.62,81.06,0,110.07l8.81,7.38c19.81,16.6,24.66,44.5,11.57,66.48l-19.77,33.2c-13.09,21.98-40.44,31.85-65.17,23.52l-11-3.71c-43.23-14.56-89.72,11.46-98.33,55.04l-2.19,11.09c-4.93,24.93-27.42,42.96-53.6,42.96h-39.55c-26.18,0-48.67-18.03-53.6-42.95l-2.19-11.09c-8.61-43.57-55.1-69.59-98.33-55.03l-11,3.7c-24.73,8.33-52.08-1.54-65.17-23.52l-19.77-33.2c-13.09-21.98-8.24-49.88,11.57-66.48l8.81-7.38c34.62-29.02,34.62-81.06,0-110.07l-8.81-7.38c-19.81-16.6-24.66-44.5-11.57-66.48l19.77-33.2c13.09-21.98,40.44-31.85,65.17-23.52l11,3.7c43.23,14.56,89.71-11.46,98.32-55.03l2.19-11.09C223.92,18.26,246.41.24,272.59.24h39.55Zm-19.77,374.14c45.92,0,83.14-37.23,83.14-83.14s-37.23-83.14-83.14-83.14-83.14,37.22-83.14,83.14,37.22,83.14,83.14,83.14Z"/>
</svg>