<?xml version="1.0" encoding="UTF-8"?>
<svg id="Header" xmlns="http://www.w3.org/2000/svg" viewBox="0 0 584.73 582.73">
  <defs>
    <style>
      .cls-1 {
        stroke-width: 0px;
      }
    </style>
  </defs>
  <g id="Menú">
    <path class="cls-1" d="m546.99,169.99H37.74c-20.09,0-36.37-16.29-36.37-36.38s16.29-36.38,36.37-36.38h509.25c20.09,0,36.38,16.29,36.38,36.38s-16.29,36.38-36.38,36.38Z"/>
    <path class="cls-1" d="m546.99,327.61H37.74c-20.09,0-36.37-16.29-36.37-36.38s16.29-36.38,36.37-36.38h509.25c20.09,0,36.38,16.29,36.38,36.38s-16.29,36.38-36.38,36.38Z"/>
    <path class="cls-1" d="m546.99,485.24H37.74c-20.09,0-36.37-16.29-36.37-36.38s16.29-36.38,36.37-36.38h509.25c20.09,0,36.38,16.29,36.38,36.38s-16.29,36.38-36.38,36.38Z"/>
  </g>
</svg>