<?xml version="1.0" encoding="UTF-8"?>
<svg id="Header" xmlns="http://www.w3.org/2000/svg" viewBox="0 0 584.73 582.73">
  <defs>
    <style>
      .cls-1 {
        stroke-width: 0px;
      }
    </style>
  </defs>
  <g id="Notificación">
    <path class="cls-1" d="m531.51,402.07c-2.16-2.6-4.27-5.2-6.35-7.7-28.58-34.57-45.87-55.43-45.87-153.29,0-50.67-12.12-92.24-36.01-123.42-17.62-23.03-41.43-40.51-72.81-53.42-.4-.22-.76-.52-1.07-.87C358.1,25.56,327.21.24,292.37.24s-65.72,25.32-77.01,63.08c-.3.34-.66.62-1.05.84-73.24,30.15-108.84,88-108.84,176.86,0,97.9-17.27,118.76-45.87,153.29-2.08,2.51-4.2,5.05-6.35,7.7-11.37,13.72-13.73,32.8-6.04,48.87,8.02,16.89,25.1,27.37,44.6,27.37h401.28c19.41,0,36.38-10.47,44.42-27.28,7.73-16.08,5.39-35.18-5.99-48.92Z"/>
    <path class="cls-1" d="m292.37,582.24c38.25-.03,73.39-21.05,91.51-54.73,1.34-2.54.37-5.68-2.16-7.02-.75-.4-1.59-.6-2.43-.6h-173.79c-2.87-.01-5.2,2.31-5.21,5.18,0,.85.2,1.69.6,2.45,18.12,33.68,53.25,54.7,91.5,54.73Z"/>
  </g>
</svg>